<?xml version="1.0" encoding="UTF-8" standalone="no"?>
<!-- Created with Inkscape (http://www.inkscape.org/) -->

<svg
   width="287.3118mm"
   height="273.24991mm"
   viewBox="0 0 287.3118 273.24991"
   version="1.1"
   id="svg99762"
   sodipodi:docname="flower-1.svg"
   inkscape:version="1.1.2 (0a00cf5339, 2022-02-04)"
   xmlns:inkscape="http://www.inkscape.org/namespaces/inkscape"
   xmlns:sodipodi="http://sodipodi.sourceforge.net/DTD/sodipodi-0.dtd"
   xmlns:xlink="http://www.w3.org/1999/xlink"
   xmlns="http://www.w3.org/2000/svg"
   xmlns:svg="http://www.w3.org/2000/svg">
  <sodipodi:namedview
     id="namedview99764"
     pagecolor="#505050"
     bordercolor="#eeeeee"
     borderopacity="1"
     inkscape:pageshadow="0"
     inkscape:pageopacity="0"
     inkscape:pagecheckerboard="0"
     inkscape:document-units="mm"
     showgrid="false"
     inkscape:zoom="0.32026165"
     inkscape:cx="480.85682"
     inkscape:cy="371.57118"
     inkscape:window-width="1920"
     inkscape:window-height="1011"
     inkscape:window-x="0"
     inkscape:window-y="0"
     inkscape:window-maximized="1"
     inkscape:current-layer="layer1" />
  <defs
     id="defs99759">
    <linearGradient
       inkscape:collect="always"
       id="linearGradient828">
      <stop
         style="stop-color:#231f20;stop-opacity:1;"
         offset="0"
         id="stop824" />
      <stop
         style="stop-color:#231f20;stop-opacity:1"
         offset="0.61419421"
         id="stop1438" />
      <stop
         style="stop-color:#231f20;stop-opacity:0"
         offset="1"
         id="stop826" />
    </linearGradient>
    <radialGradient
       inkscape:collect="always"
       xlink:href="#linearGradient828"
       id="radialGradient830"
       cx="12.3922"
       cy="133.42281"
       fx="12.3922"
       fy="133.42281"
       r="143.65591"
       gradientTransform="matrix(0.93901203,0,0,0.9788671,0.75577578,2.8196103)"
       gradientUnits="userSpaceOnUse" />
  </defs>
  <g
     inkscape:label="Layer 1"
     inkscape:groupmode="layer"
     id="layer1"
     transform="translate(131.2637,3.2021428)">
    <path
       d="m 25.095837,136.79382 c 0,-6.92962 -5.617634,-12.54725 -12.547247,-12.54725 -6.929614,0 -12.54724726,5.61763 -12.54724726,12.54725 0,6.92961 5.61763326,12.54689 12.54724726,12.54689 6.929613,0 12.547247,-5.61728 12.547247,-12.54689"
       style="fill:#231f20;fill-opacity:1;fill-rule:nonzero;stroke:none;stroke-width:0.352778"
       id="path329-2-2" />
    <path
       d="m -21.468077,125.84324 c 0,0 6.11505,14.5154 7.73183,19.49133 1.616781,4.97557 5.2017083,20.31365 5.2017083,20.31365 0,0 15.6947302,-1.32998 20.9264247,-1.32998 5.232047,0 20.926777,1.32998 20.926777,1.32998 0,0 3.585281,-15.33808 5.201708,-20.31365 1.616781,-4.97593 7.731831,-19.49133 7.731831,-19.49133 0,0 -13.479286,-8.14952 -17.711914,-11.22433 -4.232627,-3.07516 -16.148402,-13.37663 -16.148402,-13.37663 0,0 -11.91542216,10.30147 -16.1480498,13.37663 -4.2326277,3.07481 -17.7119132,11.22433 -17.7119132,11.22433 z"
       style="fill:none;stroke:#231f20;stroke-width:3.01096;stroke-linecap:butt;stroke-linejoin:miter;stroke-miterlimit:10;stroke-dasharray:none;stroke-opacity:1"
       id="path333-3-4" />
    <path
       id="path393-8-4"
       style="fill:none;stroke:url(#radialGradient830);stroke-width:0.352778;stroke-linecap:butt;stroke-linejoin:miter;stroke-miterlimit:10;stroke-dasharray:none;stroke-opacity:1"
       d="m -76.255065,165.64786 c 0,0 13.479286,8.14917 17.711914,11.22398 4.232627,3.07552 16.148049,13.37663 16.148049,13.37663 0,0 11.915775,-10.30111 16.148403,-13.37663 4.232628,-3.07481 17.7119133,-11.22398 17.7119133,-11.22398 0,0 -6.1150503,-14.51574 -7.7318303,-19.49167 -1.616428,-4.97523 -5.201356,-20.3133 -5.201356,-20.3133 0,0 -15.695082,1.32997 -20.92713,1.32997 -5.231694,0 -20.926424,-1.32997 -20.926424,-1.32997 0,0 -3.584928,15.33807 -5.201708,20.3133 -1.616781,4.97593 -7.731831,19.49167 -7.731831,19.49167 z m 109.573834,0 c 0,0 13.479286,8.14917 17.712266,11.22398 4.232275,3.07552 16.14805,13.37663 16.14805,13.37663 0,0 11.915775,-10.30111 16.148402,-13.37663 4.232275,-3.07481 17.711913,-11.22398 17.711913,-11.22398 0,0 -6.115402,-14.51574 -7.73183,-19.49167 -1.61678,-4.97523 -5.201708,-20.3133 -5.201708,-20.3133 0,0 -15.695083,1.32997 -20.926777,1.32997 -5.231694,0 -20.926777,-1.32997 -20.926777,-1.32997 0,0 -3.584928,15.33807 -5.201709,20.3133 -1.61678,4.97593 -7.73183,19.49167 -7.73183,19.49167 z m -88.647127,-64.40593 c 0,0 13.479286,8.14952 17.711914,11.22433 4.232627,3.07517 16.148402,13.37663 16.148402,13.37663 0,0 11.9157747,-10.30146 16.1480496,-13.37663 4.2326277,-3.07481 17.7119134,-11.22433 17.7119134,-11.22433 0,0 -6.1150498,-14.515745 -7.7314775,-19.491323 C 3.043663,76.77503 -0.54126474,61.436958 -0.54126474,61.436958 c 0,0 -15.69508326,1.329972 -20.92677726,1.329972 -5.231694,0 -20.926777,-1.329972 -20.926777,-1.329972 0,0 -3.584928,15.338072 -5.201709,20.313649 -1.61678,4.975578 -7.73183,19.491323 -7.73183,19.491323 z m 211.154708,24.60131 c 0,0 -13.47928,-8.14952 -17.71226,-11.22433 -4.23228,-3.07516 -16.14805,-13.37663 -16.14805,-13.37663 0,0 -11.91578,10.30147 -16.14841,13.37663 -4.23227,3.07481 -17.711909,11.22433 -17.711909,11.22433 0,0 6.115403,14.5154 7.73183,19.49133 1.616781,4.97557 5.201709,20.31365 5.201709,20.31365 0,0 15.69508,-1.32998 20.92678,-1.32998 5.23169,0 20.92677,1.32998 20.92677,1.32998 0,0 3.58493,-15.33808 5.20171,-20.31365 1.61678,-4.97593 7.73183,-19.49133 7.73183,-19.49133 z M 134.89947,61.436958 c 0,0 -13.47929,-8.14952 -17.71191,-11.224331 C 112.95493,47.137464 101.03951,36.836 101.03951,36.836 c 0,0 -11.916131,10.301464 -16.148406,13.376627 -4.232627,3.074811 -17.711913,11.224331 -17.711913,11.224331 0,0 6.11505,14.515747 7.73183,19.491324 1.616428,4.975578 5.201356,20.313648 5.201356,20.313648 0,0 15.695083,-1.32997 20.927133,-1.32997 5.23134,0 20.92642,1.32997 20.92642,1.32997 0,0 3.58493,-15.33807 5.20171,-20.313648 1.61678,-4.975577 7.73183,-19.491324 7.73183,-19.491324 z M -63.321667,125.84324 c 0,0 -13.479286,-8.14952 -17.711914,-11.22433 -4.232627,-3.07516 -16.148402,-13.37663 -16.148402,-13.37663 0,0 -11.915777,10.30147 -16.148047,13.37663 -4.23263,3.07481 -17.71192,11.22433 -17.71192,11.22433 0,0 6.11505,14.5154 7.73148,19.49133 1.61678,4.97557 5.20171,20.31365 5.20171,20.31365 0,0 15.69508,-1.32998 20.926777,-1.32998 5.231694,0 20.926777,1.32998 20.926777,1.32998 0,0 3.584928,-15.33808 5.201708,-20.31365 1.616781,-4.97593 7.731831,-19.49133 7.731831,-19.49133 z m 20.926707,64.40558 c 0,0 -13.479286,-8.14916 -17.711914,-11.22398 -4.232628,-3.07516 -16.14805,-13.37662 -16.14805,-13.37662 0,0 -11.915774,10.30146 -16.148402,13.37662 -4.232628,3.07482 -17.711914,11.22398 -17.711914,11.22398 0,0 6.11505,14.51575 7.73183,19.49168 1.61643,4.97522 5.201356,20.31365 5.201356,20.31365 0,0 15.695083,-1.33033 20.92713,-1.33033 5.231695,0 20.926425,1.33033 20.926425,1.33033 0,0 3.584928,-15.33843 5.201708,-20.31365 1.616781,-4.97593 7.731831,-19.49168 7.731831,-19.49168 z m 54.786987,39.80533 c 0,0 -13.4792859,-8.14952 -17.7119136,-11.22468 -4.2326277,-3.07482 -16.1480494,-13.37628 -16.1480494,-13.37628 0,0 -11.916128,10.30146 -16.148403,13.37628 -4.232627,3.07516 -17.711913,11.22468 -17.711913,11.22468 0,0 6.11505,14.51539 7.73183,19.49132 1.616428,4.97558 5.201356,20.31365 5.201356,20.31365 0,0 15.695083,-1.32997 20.92713,-1.32997 5.231341,0 20.92642431,1.32997 20.92642431,1.32997 0,0 3.58492769,-15.33807 5.20170819,-20.31365 1.6167806,-4.97593 7.7318305,-19.49132 7.7318305,-19.49132 z M 80.112482,21.631984 c 0,0 -13.479285,-8.149167 -17.711913,-11.224331 -4.232628,-3.0751635 -16.14805,-13.3766272 -16.14805,-13.3766272 0,0 -11.915775,10.3014637 -16.148402,13.3766272 -4.232628,3.075164 -17.711914,11.224331 -17.711914,11.224331 0,0 6.11505,14.515747 7.731831,19.491324 1.616427,4.975578 5.201355,20.31365 5.201355,20.31365 0,0 15.695083,-1.329972 20.92713,-1.329972 5.231695,0 20.926425,1.329972 20.926425,1.329972 0,0 3.584927,-15.338072 5.201708,-20.31365 1.616781,-4.975577 7.73183,-19.491324 7.73183,-19.491324 z M -42.39496,61.436958 c 0,0 -13.479286,-8.14952 -17.711914,-11.224331 C -64.339502,47.137464 -76.254924,36.836 -76.254924,36.836 c 0,0 -11.915774,10.301464 -16.148402,13.376627 -4.232628,3.074811 -17.711914,11.224331 -17.711914,11.224331 0,0 6.11505,14.515747 7.73183,19.491324 1.61643,4.975578 5.201356,20.313648 5.201356,20.313648 0,0 15.695083,-1.32997 20.92713,-1.32997 5.231695,0 20.926425,1.32997 20.926425,1.32997 0,0 3.584928,-15.33807 5.201708,-20.313648 1.616781,-4.975577 7.731831,-19.491324 7.731831,-19.491324 z M 134.89947,190.24882 c 0,0 -13.47929,-8.14916 -17.71191,-11.22398 -4.23263,-3.07516 -16.14805,-13.37662 -16.14805,-13.37662 0,0 -11.916131,10.30146 -16.148406,13.37662 -4.232627,3.07482 -17.711913,11.22398 -17.711913,11.22398 0,0 6.11505,14.51575 7.73183,19.49168 1.616428,4.97522 5.201356,20.31365 5.201356,20.31365 0,0 15.695083,-1.33033 20.927133,-1.33033 5.23134,0 20.92642,1.33033 20.92642,1.33033 0,0 3.58493,-15.33843 5.20171,-20.31365 1.61678,-4.97593 7.73183,-19.49168 7.73183,-19.49168 z m -54.786988,39.80533 c 0,0 -13.479285,-8.14952 -17.711913,-11.22468 -4.232628,-3.07482 -16.14805,-13.37628 -16.14805,-13.37628 0,0 -11.915775,10.30146 -16.148402,13.37628 -4.232628,3.07516 -17.711914,11.22468 -17.711914,11.22468 0,0 6.11505,14.51539 7.731831,19.49132 1.616427,4.97558 5.201355,20.31365 5.201355,20.31365 0,0 15.695083,-1.32997 20.92713,-1.32997 5.231695,0 20.926425,1.32997 20.926425,1.32997 0,0 3.584927,-15.33807 5.201708,-20.31365 1.616781,-4.97593 7.73183,-19.49132 7.73183,-19.49132 z M 12.392027,21.631984 c 0,0 -13.4792859,-8.149167 -17.7119136,-11.224331 C -9.5525143,7.3324895 -21.467936,-2.9689742 -21.467936,-2.9689742 c 0,0 -11.916128,10.3014637 -16.148403,13.3766272 -4.232627,3.075164 -17.711913,11.224331 -17.711913,11.224331 0,0 6.11505,14.515747 7.73183,19.491324 1.616428,4.975578 5.201356,20.31365 5.201356,20.31365 0,0 15.695083,-1.329972 20.92713,-1.329972 5.231341,0 20.92642431,1.329972 20.92642431,1.329972 0,0 3.58492769,-15.338072 5.20170819,-20.31365 C 6.2769771,36.147731 12.392027,21.631984 12.392027,21.631984 Z M -21.468077,205.45284 c 0,0 13.4792855,8.14952 17.7119132,11.22433 4.23262764,3.07516 16.1480498,13.37663 16.1480498,13.37663 0,0 11.915775,-10.30147 16.148402,-13.37663 4.232628,-3.07481 17.711914,-11.22433 17.711914,-11.22433 0,0 -6.11505,-14.51575 -7.731831,-19.49133 -1.616427,-4.97557 -5.201708,-20.31365 -5.201708,-20.31365 0,0 -15.69473,1.32998 -20.926777,1.32998 -5.2316945,0 -20.9264247,-1.32998 -20.9264247,-1.32998 0,0 -3.5849273,15.33808 -5.2017083,20.31365 -1.61678,4.97558 -7.73183,19.49133 -7.73183,19.49133 z M 12.392027,101.24193 c 0,0 13.479286,8.14952 17.711913,11.22433 4.232628,3.07517 16.148403,13.37663 16.148403,13.37663 0,0 11.915775,-10.30146 16.148049,-13.37663 4.232628,-3.07481 17.711914,-11.22433 17.711914,-11.22433 0,0 -6.11505,-14.515745 -7.731478,-19.491323 -1.61678,-4.975577 -5.201708,-20.313649 -5.201708,-20.313649 0,0 -15.695083,1.329972 -20.926777,1.329972 -5.231694,0 -20.926777,-1.329972 -20.926777,-1.329972 0,0 -3.584928,15.338072 -5.201709,20.313649 -1.61678,4.975578 -7.73183,19.491323 -7.73183,19.491323 z" />
  </g>
</svg>
