<?xml version="1.0" encoding="UTF-8" standalone="no"?>
<!-- Created with Inkscape (http://www.inkscape.org/) -->

<svg
   width="692.66895mm"
   height="87.584846mm"
   viewBox="0 0 692.66895 87.584845"
   version="1.1"
   id="svg2556"
   inkscape:export-filename="/home/hawk/stanzino/graftholders/nextjs/nextjs-blog/public/images/footer.png"
   inkscape:export-xdpi="72"
   inkscape:export-ydpi="72"
   inkscape:version="1.1.2 (0a00cf5339, 2022-02-04)"
   sodipodi:docname="footer.svg"
   xmlns:inkscape="http://www.inkscape.org/namespaces/inkscape"
   xmlns:sodipodi="http://sodipodi.sourceforge.net/DTD/sodipodi-0.dtd"
   xmlns:xlink="http://www.w3.org/1999/xlink"
   xmlns="http://www.w3.org/2000/svg"
   xmlns:svg="http://www.w3.org/2000/svg">
  <sodipodi:namedview
     id="namedview2558"
     pagecolor="#505050"
     bordercolor="#eeeeee"
     borderopacity="1"
     inkscape:pageshadow="0"
     inkscape:pageopacity="0"
     inkscape:pagecheckerboard="0"
     inkscape:document-units="mm"
     showgrid="false"
     inkscape:object-nodes="false"
     inkscape:snap-nodes="false"
     inkscape:snap-bbox="true"
     inkscape:snap-object-midpoints="true"
     inkscape:snap-center="true"
     inkscape:snap-text-baseline="true"
     inkscape:snap-page="true"
     inkscape:bbox-paths="true"
     inkscape:bbox-nodes="true"
     inkscape:snap-bbox-edge-midpoints="true"
     inkscape:snap-bbox-midpoints="true"
     inkscape:zoom="0.32026164"
     inkscape:cx="1394.1726"
     inkscape:cy="565.1629"
     inkscape:window-width="1920"
     inkscape:window-height="1023"
     inkscape:window-x="0"
     inkscape:window-y="0"
     inkscape:window-maximized="1"
     inkscape:current-layer="layer1" />
  <defs
     id="defs2553">
    <linearGradient
       inkscape:collect="always"
       id="linearGradient18863">
      <stop
         style="stop-color:#ffffff;stop-opacity:1"
         offset="0"
         id="stop18859" />
      <stop
         style="stop-color:#ffffff;stop-opacity:1"
         offset="0.53127414"
         id="stop20019" />
      <stop
         style="stop-color:#ffffff;stop-opacity:0"
         offset="1"
         id="stop18861" />
    </linearGradient>
    <mask
       maskUnits="userSpaceOnUse"
       id="mask21569">
      <rect
         style="display:inline;opacity:1;fill:url(#linearGradient21573);fill-opacity:1;stroke:#000000;stroke-width:0.695092;stroke-dashoffset:13.3417;stroke-opacity:0.498039"
         id="rect21571"
         width="691.97388"
         height="86.889755"
         x="-391.78152"
         y="92.14537"
         inkscape:label="rettangolo" />
    </mask>
    <linearGradient
       inkscape:collect="always"
       xlink:href="#linearGradient18863"
       id="linearGradient21573"
       gradientUnits="userSpaceOnUse"
       x1="-5.4244895"
       y1="179.73502"
       x2="-5.4244895"
       y2="92.512169"
       gradientTransform="translate(-7.0833335e-6)" />
  </defs>
  <g
     inkscape:label="Layer 1"
     inkscape:groupmode="layer"
     id="layer1"
     transform="translate(392.12907,-91.797824)">
    <path
       id="path327-9-6"
       style="fill:#231f20;fill-opacity:1;fill-rule:nonzero;stroke:none;stroke-width:0.352778"
       d="m 282.83927,179.38267 1.0989,-21.77768 h -2.1978 z m -10.35791,0 1.09891,-21.77768 h -2.19781 z m -10.35755,0 1.0989,-21.77768 h -2.1978 z m -10.35791,0 1.0989,-21.77768 h -2.1978 z m -10.35755,0 1.0989,-21.77768 h -2.19781 z m -10.35756,0 1.0989,-21.77768 h -2.1978 z m -10.35791,0 1.0989,-21.77768 h -2.1978 z m -10.35791,0 1.09891,-21.77768 h -2.19781 z m -10.35755,0 1.0989,-21.77768 h -2.1978 z m -10.35791,0 1.0989,-21.77768 h -2.1978 z m -10.35756,0 1.09891,-21.77768 h -2.19781 z m -10.35755,0 1.0989,-21.77768 h -2.1978 z m -10.35791,0 1.0989,-21.77768 h -2.1978 z m -10.35755,0 1.0989,-21.77768 h -2.19781 z m -10.35756,0 1.0989,-21.77768 h -2.1978 z m -10.35791,0 1.09891,-21.77768 h -2.19781 z m -10.35791,0 1.09891,-21.77768 h -2.19781 z m -10.35755,0 1.0989,-21.77768 h -2.1978 z m -10.357909,0 1.098903,-21.77768 h -2.197806 z m -10.357555,0 1.098903,-21.77768 h -2.197806 z m -10.357908,0 1.098902,-21.77768 h -2.197805 z m -10.357556,0 1.098903,-21.77768 H 64.22818 Z m -10.357555,0 1.098903,-21.77768 h -2.197806 z m -10.357908,0 1.098903,-21.77768 h -2.197806 z m -10.357908,0 1.099255,-21.77768 h -2.198158 z m -10.357555,0 1.098902,-21.77768 h -2.197805 z m -10.357909,0 1.098903,-21.77768 h -2.197805 z m -10.3575549,0 1.0989027,-21.77768 H 2.0817893 Z m -10.3575553,0 1.0989027,-21.77768 H -8.275766 Z m -10.3579078,0 1.098902,-21.77768 h -2.197805 z m -10.357556,0 1.098903,-21.77768 h -2.197805 z m -10.357555,0 1.098903,-21.77768 h -2.197806 z m -10.357767,0 1.098903,-21.77768 h -2.197806 z m -10.358049,0 1.098903,-21.77768 h -2.197806 z m -10.357661,0 1.098902,-21.77768 h -2.197805 z m -10.357697,0 1.099256,-21.77768 h -2.198159 z m -10.357661,0 1.098903,-21.77768 h -2.197806 z m -10.357693,0 1.098899,-21.77768 h -2.197809 z m -10.35766,0 1.0989,-21.77768 h -2.19781 z m -10.3577,0 1.0989,-21.77768 h -2.1978 z m -10.35784,0 1.0989,-21.77768 h -2.1978 z m -10.35769,0 1.0989,-21.77768 h -2.19781 z m -10.35767,0 1.09891,-21.77768 h -2.19781 z m -10.35769,0 1.0989,-21.77768 h -2.19781 z m -10.35784,0 1.0989,-21.77768 h -2.1978 z m -10.3577,0 1.09891,-21.77768 h -2.19781 z m -10.35766,0 1.09891,-21.77768 h -2.19781 z m -10.35769,0 1.0989,-21.77768 h -2.19781 z m -10.35767,0 1.09891,-21.77768 h -2.19816 z m -10.35787,0 1.0989,-21.77768 h -2.1978 z m -10.35766,0 1.0989,-21.77768 h -2.1978 z m -10.3577,0 1.09891,-21.77768 h -2.19781 z m -10.35766,0 1.09891,-21.77768 h -2.19781 z m -10.35787,0 1.0989,-21.77768 h -2.1978 z m -10.35766,0 1.0989,-21.77768 h -2.1978 z m -10.3577,0 1.09891,-21.77768 h -2.19781 z m -10.35766,0 1.0989,-21.77768 h -2.1978 z m -10.35787,0 1.0989,-21.77768 h -2.1978 z m -10.35766,0 1.0989,-21.77768 h -2.19781 z m -10.3577,0 1.0989,-21.77768 h -2.1978 z m -10.35766,0 1.0989,-21.77768 h -2.1978 z m -10.3577,0 1.09891,-21.77768 h -2.19816 z m -10.35783,0 1.0989,-21.77768 h -2.19781 z m -10.3577,0 1.0989,-21.77768 h -2.1978 z m -10.35766,0 1.0989,-21.77768 h -2.1978 z m 663.12159,-21.77768 c -0.007,-12.78713 -0.84455,-25.5591 -0.77928,-38.34694 0.0642,-12.59311 1.04246,-25.307217 4.75826,-37.402556 3.64914,-11.875911 10.4835,-22.532622 12.65344,-34.889722 2.09479,-11.926358 0.57996,-24.162807 -4.10316,-35.304588 -4.52085,-10.75478322 -11.28042,-20.4868637 -14.998,-31.592307 -0.4579,-1.367367 -0.86218,-2.750609 -1.21602,-4.148314 -0.0727,-0.286808 -0.51717,-0.1651 -0.44415,0.122767 2.83881,11.216216 9.25125,20.9772235 14.20707,31.3033816 2.61267,5.4433614 4.7371,11.0825144 5.89703,17.0218804 1.19557,6.1214 1.44463,12.425892 0.76306,18.62455 -0.68827,6.260747 -2.44087,12.262203 -4.81894,18.07845 -2.35091,5.749924 -5.13468,11.320991 -7.22877,17.175338 -4.17513,11.66883 -5.56401,24.12858 -5.86493,36.4557 -0.3108,12.7127 0.496,25.41623 0.67804,38.12434 0.0226,1.59279 0.0346,3.18523 0.0356,4.77802 0,0.29633 0.46072,0.29704 0.46072,0 m -10.35755,0 c -0.004,-10.90436 -0.45473,-21.78932 -1.1116,-32.67145 -0.49037,-8.12165 -1.04881,-16.25212 -0.91158,-24.39353 0.0691,-4.11303 0.31679,-8.221833 0.74895,-12.312997 0.61418,-5.821539 1.61925,-11.593688 2.40806,-17.392649 0.84878,-6.240639 1.50212,-12.54372 1.25377,-18.849975 -0.24448,-6.204303 -1.49578,-12.206464 -3.80012,-17.973675 -4.45276,-11.143544 -12.10981,-22.244402 -10.48703,-34.82022434 0.19544,-1.51729726 0.54998,-3.00284446 1.04422,-4.44958606 0.0963,-0.2811639 -0.34854,-0.4021667 -0.44379,-0.1227667 -4.04072,11.8261692 2.26236,23.6675081 7.11376,34.1700551 2.67194,5.78485 4.88174,11.672711 5.69066,18.028003 0.80963,6.3627 0.48225,12.810419 -0.22578,19.16571 -1.17157,10.51807 -3.27377,20.886561 -3.67947,31.484711 -0.30868,8.071194 0.14147,16.137814 0.629,24.192434 0.62689,10.3505 1.17581,20.69889 1.28482,31.07055 0.0169,1.6249 0.0247,3.25014 0.0254,4.87539 0,0.29633 0.46073,0.29704 0.46073,0 m -10.28559,0 c -0.30727,-11.39543 -0.38947,-22.80179 0.049,-34.1951 0.44132,-11.46281 1.40687,-22.91715 3.22474,-34.247663 1.78047,-11.098741 4.29965,-22.073305 5.73123,-33.228491 1.40335,-10.931172 1.5561,-21.910674 -0.80998,-32.720491 -2.28847,-10.459508 -6.21736,-20.6470249 -6.86259,-31.4159191 -0.0797,-1.3296195 -0.10336,-2.6610019 -0.0762,-3.9927379 0.006,-0.296686 -0.45473,-0.296686 -0.46073,0 -0.21625,10.6478905 3.28048,20.8170625 5.87728,31.00846 1.36067,5.341056 2.40665,10.731147 2.76648,16.239066 0.36584,5.610225 0.13829,11.244086 -0.42791,16.832439 -1.15182,11.363677 -3.67454,22.523802 -5.61587,33.76436 -1.91171,11.068756 -3.05047,22.245107 -3.61633,33.460967 -0.57503,11.39719 -0.59231,22.81555 -0.34466,34.22191 0.031,1.42452 0.0663,2.84904 0.10477,4.2732 0.008,0.29598 0.46849,0.29704 0.46073,0 m -10.42988,0 c 0.004,-8.78805 0.22084,-17.55845 0.73378,-26.33133 0.19403,-3.31823 0.37853,-6.63681 0.49248,-9.95892 0.21343,-6.26251 -0.0981,-12.49574 -0.76941,-18.72368 -1.40017,-12.988919 -4.06647,-25.839555 -4.61645,-38.915616 -0.26529,-6.306961 -0.0515,-12.661547 1.05022,-18.887369 0.54081,-3.055408 1.29399,-6.074833 2.29376,-9.013119 1.03717,-3.046589 2.34562,-5.989108 3.56764,-8.96373 1.20121,-2.92347 2.29447,-5.885745 3.01837,-8.967258 0.69744,-2.968273 1.10031,-6.002161 1.28623,-9.0445175 0.3877,-6.3327138 -0.1517,-12.680597 -0.87242,-18.9702715 -0.18345,-1.601611 -0.37994,-3.201458 -0.5775,-4.801658 -0.036,-0.290336 -0.49741,-0.293864 -0.46073,0 1.55928,12.6206242 3.02225,25.677988 -1.38042,37.916202 -2.15476,5.988403 -5.01826,11.647664 -6.51651,17.867136 -1.43721,5.965825 -1.97732,12.119327 -1.97167,18.246372 0.0127,13.009033 2.49061,25.816982 4.14161,38.675026 0.84314,6.569073 1.47179,13.181183 1.43334,19.810583 -0.0222,3.82023 -0.22966,7.64223 -0.44733,11.45505 -0.4512,7.92198 -0.79022,15.83196 -0.84878,23.7684 -0.0116,1.6129 -0.0166,3.2258 -0.0169,4.8387 0,0.29633 0.46072,0.29704 0.46072,0 m -10.35755,0 c 0,-13.69236 -0.13264,-27.3879 -0.69638,-41.07003 -0.54328,-13.19283 -1.49896,-26.372961 -3.09916,-39.482183 -0.80398,-6.586713 -1.75224,-13.147674 -3.05117,-19.656424 -1.33456,-6.685139 -2.89207,-13.325122 -4.11057,-20.033544 -1.21214,-6.67632 -2.08386,-13.441186 -2.00871,-20.238508 0.036,-3.246261 0.16439,-6.603647 1.01494,-9.7528949 0.89782,-3.3249305 2.85432,-5.7209971 5.32236,-8.032397 4.01108,-3.7567305 7.21748,-7.9763055 9.26147,-13.1166301 2.01119,-5.057775 2.84374,-10.606616 2.31105,-16.02881 -0.127,-1.286934 -0.33338,-2.562578 -0.60678,-3.826228 -0.0631,-0.289278 -0.50729,-0.166511 -0.4445,0.122767 2.39924,11.071577 -1.18286,23.146455 -9.3024,31.0645511 -2.15088,2.09761666 -4.52508,4.0103777 -5.88751,6.7535776 -1.28552,2.5879777 -1.71908,5.4955717 -1.9378,8.3481333 -0.50271,6.571545 0.01,13.17625 0.9786,19.681825 0.99378,6.673497 2.46733,13.261975 3.86503,19.858919 1.40406,6.627636 2.60703,13.266914 3.51014,19.982391 1.76671,13.130389 2.8628,26.343327 3.50944,39.574255 0.66075,13.51738 0.86466,27.05241 0.90381,40.58391 0.005,1.75577 0.007,3.51155 0.007,5.26732 0,0.29633 0.46073,0.29704 0.46073,0 m -10.35791,0 c -0.004,-10.22562 -0.23107,-20.49498 -1.62666,-30.63875 -1.22378,-8.89423 -3.47168,-17.60961 -6.72994,-25.97644 -3.52848,-9.060031 -9.28017,-16.988359 -14.91474,-24.827434 -5.69312,-7.920566 -11.4882,-16.001294 -14.79691,-25.264885 -1.94521,-5.445125 -2.86596,-11.171061 -3.417,-16.908639 -0.58173,-6.06178 -0.89923,-12.152841 -1.31022,-18.228027 l -0.31609,-4.671483 c -0.0201,-0.294217 -0.48048,-0.296334 -0.46073,0 0.41699,6.160205 0.80504,12.32288 1.25836,18.480616 0.42722,5.803194 1.01283,11.632494 2.50508,17.272352 2.52518,9.541933 7.88176,17.921817 13.52655,25.897064 5.62222,7.942438 11.66284,15.708488 15.83514,24.553332 2.00272,4.245324 3.53554,8.738304 4.8574,13.237984 1.24601,4.23968 2.22955,8.5538 2.96227,12.91131 1.65136,9.82239 2.05564,19.81235 2.14736,29.75681 0.0138,1.46861 0.019,2.93758 0.0194,4.40619 0,0.29633 0.46073,0.29704 0.46073,0 m -10.35755,0 c 0.12453,-4.96288 0.93168,-9.86084 2.62854,-14.53374 1.29928,-3.57716 3.10092,-6.91868 4.78085,-10.32298 1.53846,-3.1175 2.89278,-6.33624 3.47133,-9.78359 0.52952,-3.15771 0.66393,-6.65515 -0.79798,-9.59661 -2.44757,-4.92513 -8.45679,-6.1341 -13.32265,-7.245 -4.26297,-0.97296 -10.48668,-2.10679 -10.57558,-7.609057 -0.0321,-1.984728 0.91828,-3.478742 2.18723,-4.938536 1.71026,-1.967442 3.73803,-3.660775 5.77179,-5.280025 5.37881,-4.281664 11.12908,-8.08108 16.7379,-12.048419 4.85175,-3.431822 10.01324,-6.8961 14.02362,-11.330516 1.143,-1.264003 2.40347,-2.788003 2.69028,-4.524023 0.10619,-0.645936 0.037,-1.273527 -0.23107,-1.87078 -1.22978,-2.741789 -2.84903,-5.363986 -4.37127,-7.949847 -3.19158,-5.421136 -6.6107,-10.709628 -9.60367,-16.245416 -3.00037,-5.548489 -5.55025,-11.337925 -7.62,-17.295989 -1.94027,-5.58553 -3.56482,-11.3562698 -4.50038,-17.2010918 -0.85831,-5.3601055 -1.09291,-11.0101932 0.42192,-16.2778712 0.72108,-2.505781 1.85737,-4.852106 3.41277,-6.946194 0.17674,-0.238125 -0.22295,-0.467784 -0.39793,-0.232481 -6.48194,8.727369 -4.89444,20.5440129 -2.45569,30.4122654 2.97709,12.0466556 7.9435,23.3327226 14.28609,33.9707356 3.24944,5.450064 6.68302,10.797117 9.62519,16.423569 0.51682,0.988131 1.15535,1.89865 0.99554,3.048706 -0.11042,0.798336 -0.49107,1.545872 -0.91405,2.221089 -1.24036,1.978378 -3.02895,3.622675 -4.77308,5.148439 -2.40524,2.104672 -4.96605,4.029074 -7.54909,5.907969 -5.65256,4.113036 -11.49068,7.967486 -17.09279,12.150019 -2.32234,1.733903 -4.62421,3.518253 -6.74123,5.501922 -1.46756,1.375128 -3.02648,2.915003 -3.8802,4.769203 -0.79199,1.720497 -0.63853,3.971923 0.2547,5.625739 1.0287,1.90359 3.05188,2.94288 5.01544,3.63644 4.99251,1.76424 10.80065,1.8228 15.23365,4.98228 5.7598,4.10492 4.41184,12.40366 2.19675,18.1229 -1.31092,3.38349 -3.12879,6.54014 -4.67925,9.81392 -1.80516,3.81212 -3.21274,7.78193 -3.95604,11.94259 -0.44627,2.49484 -0.66887,5.02179 -0.73237,7.55438 -0.007,0.29669 0.45332,0.29633 0.46073,0 m -10.35756,0 c 0.005,-5.48463 0.20461,-10.99008 1.03893,-16.41828 0.61137,-3.9751 1.60267,-7.86518 2.65289,-11.74256 1.51906,-5.60634 2.97004,-11.22715 4.61998,-16.79751 1.9491,-6.57931 4.02449,-13.12086 5.88715,-19.72486 3.72146,-13.194947 6.20395,-26.664708 7.04674,-40.358835 0.75,-12.189178 0.39864,-24.540986 -1.94839,-36.551305 -2.19604,-11.2402061 -6.23323,-22.2475781 -12.88909,-31.637111 -0.78634,-1.108427 -1.60867,-2.190397 -2.45992,-3.249788 -0.18556,-0.23107 -0.50941,0.09701 -0.32526,0.325966 7.30038,9.0861439 11.90872,19.9859186 14.50869,31.288919 2.70157,11.742914 3.33128,23.884113 2.85221,35.894785 -0.54892,13.772092 -2.71004,27.415066 -6.28086,40.721844 -1.76353,6.572602 -3.79483,13.068645 -5.76156,19.581985 -1.7967,5.94995 -3.41207,11.93835 -5.03061,17.93769 -1.0414,3.86045 -2.13219,7.71208 -2.87902,11.64378 -0.89147,4.69336 -1.28517,9.46045 -1.42523,14.23141 -0.0476,1.61749 -0.066,3.23568 -0.0674,4.85387 0,0.29633 0.46038,0.29704 0.46073,0 m -10.35791,0 c -0.007,-12.78713 -0.84455,-25.5591 -0.77928,-38.34694 0.0642,-12.59311 1.04245,-25.307217 4.75862,-37.402556 3.64878,-11.875911 10.48314,-22.532622 12.65308,-34.889722 2.09479,-11.926358 0.57996,-24.162807 -4.10316,-35.304588 -4.52085,-10.75478322 -11.28042,-20.4868637 -14.998,-31.592307 -0.4579,-1.367367 -0.86218,-2.750609 -1.21602,-4.148314 -0.0727,-0.286808 -0.51717,-0.1651 -0.44415,0.122767 2.8388,11.216216 9.25125,20.9772235 14.20707,31.3033816 2.61267,5.4433614 4.7371,11.0825144 5.89703,17.0218804 1.19557,6.1214 1.44463,12.425892 0.76306,18.62455 -0.68827,6.260747 -2.44087,12.262203 -4.81894,18.07845 -2.35092,5.749924 -5.13433,11.320991 -7.22877,17.175338 -4.17513,11.66883 -5.56402,24.12858 -5.86493,36.4557 -0.3108,12.7127 0.496,25.41623 0.67803,38.12434 0.0226,1.59279 0.0346,3.18523 0.0356,4.77802 0,0.29633 0.46073,0.29704 0.46073,0 m -10.35755,0 c -0.004,-10.90436 -0.45473,-21.78932 -1.11161,-32.67145 -0.49036,-8.12165 -1.0488,-16.25212 -0.91157,-24.39353 0.0691,-4.11303 0.31714,-8.221833 0.74894,-12.312997 0.61454,-5.821539 1.61925,-11.593688 2.40807,-17.392649 0.84878,-6.240639 1.50212,-12.54372 1.25377,-18.849975 -0.24448,-6.204303 -1.49578,-12.206464 -3.80012,-17.973675 -4.45277,-11.143544 -12.10981,-22.244402 -10.48703,-34.82022434 0.19544,-1.51729726 0.54998,-3.00284446 1.04422,-4.44958606 0.0963,-0.2811639 -0.34854,-0.4021667 -0.44379,-0.1227667 -4.04072,11.8261692 2.26236,23.6675081 7.11376,34.1700551 2.67194,5.78485 4.88174,11.672711 5.69066,18.028003 0.80963,6.3627 0.48225,12.810419 -0.22578,19.16571 -1.17157,10.51807 -3.27378,20.886561 -3.67947,31.484711 -0.30833,8.071194 0.14146,16.137814 0.629,24.192434 0.62689,10.3505 1.17581,20.69889 1.28482,31.07055 0.0169,1.6249 0.0247,3.25014 0.0254,4.87539 0,0.29633 0.46073,0.29704 0.46073,0 m -10.28524,0 c -0.30727,-11.39543 -0.38947,-22.80179 0.049,-34.1951 0.44132,-11.46281 1.40688,-22.91715 3.22474,-34.247663 1.78082,-11.098741 4.29965,-22.073305 5.73123,-33.228491 1.40335,-10.931172 1.5561,-21.910674 -0.80998,-32.720491 -2.28847,-10.459508 -6.21736,-20.6470249 -6.86259,-31.4159191 -0.0797,-1.3296195 -0.10336,-2.6610019 -0.0762,-3.9927379 0.006,-0.296686 -0.45473,-0.296686 -0.46072,0 -0.21626,10.6478905 3.28048,20.8170625 5.87727,31.00846 1.36067,5.341056 2.40701,10.731147 2.76649,16.239066 0.36583,5.610225 0.13829,11.244086 -0.42792,16.832439 -1.15182,11.363677 -3.67454,22.523802 -5.61587,33.76436 -1.91171,11.068756 -3.05047,22.245107 -3.61633,33.460967 -0.57467,11.39719 -0.59231,22.81555 -0.34466,34.22191 0.031,1.42452 0.0663,2.84904 0.10477,4.2732 0.008,0.29598 0.46849,0.29704 0.46073,0 m -10.43023,0 c 0.004,-8.78805 0.2212,-17.55845 0.73378,-26.33133 0.19403,-3.31823 0.37889,-6.63681 0.49248,-9.95892 0.21343,-6.26251 -0.0981,-12.49574 -0.76941,-18.72368 -1.40017,-12.988919 -4.06647,-25.839555 -4.61645,-38.915616 -0.26529,-6.306961 -0.0515,-12.661547 1.05057,-18.887369 0.54046,-3.055408 1.29364,-6.074833 2.29341,-9.013119 1.03717,-3.046589 2.34562,-5.989108 3.568,-8.96373 1.20085,-2.92347 2.29446,-5.885745 3.01801,-8.967258 0.69744,-2.968273 1.10031,-6.002161 1.28623,-9.0445175 0.3877,-6.3327138 -0.1517,-12.680597 -0.87242,-18.9702715 -0.18345,-1.601611 -0.37994,-3.201458 -0.5775,-4.801658 -0.036,-0.290336 -0.49742,-0.293864 -0.46073,0 1.55928,12.6206242 3.02225,25.677988 -1.38042,37.916202 -2.15476,5.988403 -5.01826,11.647664 -6.51651,17.867136 -1.43721,5.965825 -1.97732,12.119327 -1.97167,18.246372 0.0127,13.009033 2.49061,25.816982 4.14161,38.675026 0.84314,6.569073 1.47179,13.181183 1.43334,19.810583 -0.0219,3.82023 -0.22966,7.64223 -0.44733,11.45505 -0.4512,7.92198 -0.79022,15.83196 -0.84878,23.7684 -0.0116,1.6129 -0.0166,3.2258 -0.0169,4.8387 0,0.29633 0.46072,0.29704 0.46072,0 m -10.35755,0 c 0,-13.69236 -0.13265,-27.3879 -0.69638,-41.07003 -0.54328,-13.19283 -1.49896,-26.372961 -3.09916,-39.482183 -0.80398,-6.586713 -1.75224,-13.147674 -3.05117,-19.656424 -1.33456,-6.685139 -2.89207,-13.325122 -4.11057,-20.033544 -1.21179,-6.67632 -2.08386,-13.441186 -2.00872,-20.238508 0.036,-3.246261 0.1644,-6.603647 1.01495,-9.7528949 0.89782,-3.3249305 2.85467,-5.7209971 5.32235,-8.032397 4.01109,-3.7567305 7.21748,-7.9763055 9.26148,-13.1166301 2.01119,-5.057775 2.84374,-10.606616 2.31105,-16.02881 -0.12665,-1.286934 -0.33338,-2.562578 -0.60678,-3.826228 -0.0632,-0.289278 -0.5073,-0.166511 -0.4445,0.122767 2.39924,11.071577 -1.18287,23.146455 -9.3024,31.0645511 -2.15088,2.09761666 -4.52508,4.0103777 -5.88751,6.7535776 -1.28552,2.5879777 -1.71908,5.4955717 -1.9378,8.3481333 -0.50271,6.571545 0.01,13.17625 0.9786,19.681825 0.99378,6.673497 2.46768,13.261975 3.86503,19.858919 1.40406,6.627636 2.60703,13.266914 3.51014,19.982391 1.76671,13.130389 2.86279,26.343327 3.50944,39.574255 0.66075,13.51738 0.86465,27.05241 0.90381,40.58391 0.005,1.75577 0.007,3.51155 0.007,5.26732 0,0.29633 0.46073,0.29704 0.46073,0 m -10.35791,0 c -0.004,-10.22562 -0.23072,-20.49498 -1.62666,-30.63875 -1.22378,-8.89423 -3.47168,-17.60961 -6.72994,-25.97644 -3.52848,-9.060031 -9.28017,-16.988359 -14.91474,-24.827434 -5.69313,-7.920566 -11.48821,-16.001294 -14.79691,-25.264885 -1.94522,-5.445125 -2.86597,-11.171061 -3.417,-16.908639 -0.58173,-6.06178 -0.89923,-12.152841 -1.31022,-18.228027 l -0.31609,-4.671483 c -0.0201,-0.294217 -0.48048,-0.296334 -0.46073,0 0.41699,6.160205 0.80504,12.32288 1.25836,18.480616 0.42721,5.803194 1.01283,11.632494 2.50508,17.272352 2.52518,9.541933 7.88176,17.921817 13.52655,25.897064 5.62222,7.942438 11.66284,15.708488 15.83514,24.553332 2.00272,4.245324 3.53554,8.738304 4.8574,13.237984 1.24601,4.23968 2.22955,8.5538 2.96227,12.91131 1.65171,9.82239 2.05564,19.81235 2.14736,29.75681 0.0138,1.46861 0.019,2.93758 0.0194,4.40619 0,0.29633 0.46073,0.29704 0.46073,0 m -10.35755,0 c 0.14005,-5.85082 0.75988,-11.76867 2.74849,-17.30798 1.50424,-4.18959 3.83399,-7.95867 6.47629,-11.51855 7.17056,-9.66011 15.51093,-18.77166 20.62374,-29.772322 2.77531,-5.971117 4.30742,-12.409664 3.9109,-19.015427 -0.42298,-7.05485 -2.73262,-13.871222 -5.77356,-20.203583 -3.23321,-6.73347 -7.32367,-13.002331 -11.13896,-19.409833 -3.82658,-6.426553 -7.21678,-13.066889 -9.88166,-20.062825 -2.51566,-6.603647 -4.578,-13.4986889 -5.6963,-20.4850998 -1.01636,-6.3489416 -1.17546,-13.2411602 1.49013,-19.2313272 0.63041,-1.417108 1.42028,-2.748491 2.34456,-3.992738 0.17674,-0.238125 -0.22295,-0.467784 -0.39793,-0.232481 -3.72145,5.010855 -4.7879,11.303353 -4.52685,17.421224 0.28822,6.75569441 1.98755,13.4560025 3.99909,19.882203 2.17664,6.954308 4.99675,13.708239 8.41693,20.142905 3.53801,6.655858 7.72654,12.934244 11.44764,19.484975 3.67523,6.469238 6.89857,13.28808 8.42856,20.611041 1.47214,7.044619 1.04211,14.170025 -1.40194,20.944769 -2.27718,6.312599 -5.94712,12.027249 -9.8619,17.436039 -3.47698,4.80448 -7.16104,9.4548 -10.78442,14.14815 -2.66135,3.44664 -5.20841,7.00017 -7.00757,10.98585 -2.13925,4.73816 -3.16724,9.86296 -3.60751,15.02234 -0.1464,1.71415 -0.22719,3.43288 -0.26846,5.15267 -0.007,0.29669 0.45332,0.29633 0.46073,0 m -10.35756,0 c 0.005,-5.48463 0.20461,-10.99008 1.03928,-16.41828 0.61101,-3.9751 1.60232,-7.86518 2.65289,-11.74256 1.51871,-5.60634 2.96969,-11.22715 4.61998,-16.79751 1.94874,-6.57931 4.02414,-13.12086 5.8868,-19.72486 3.72146,-13.194947 6.20395,-26.664708 7.04674,-40.358835 0.75,-12.189178 0.39864,-24.540986 -1.94839,-36.551305 -2.19604,-11.2402061 -6.23288,-22.2475781 -12.88909,-31.637111 -0.78599,-1.108427 -1.60867,-2.190397 -2.45992,-3.249788 -0.18556,-0.23107 -0.50941,0.09701 -0.32526,0.325966 7.30038,9.0861439 11.90872,19.9859186 14.50869,31.288919 2.70157,11.742914 3.33163,23.884113 2.85221,35.894785 -0.54892,13.772092 -2.71004,27.415066 -6.28086,40.721844 -1.76353,6.572602 -3.79483,13.068645 -5.76156,19.581985 -1.7967,5.94995 -3.41207,11.93835 -5.03062,17.93769 -1.0414,3.86045 -2.13218,7.71208 -2.87866,11.64378 -0.89147,4.69336 -1.28552,9.46045 -1.42558,14.23141 -0.0476,1.61749 -0.066,3.23568 -0.0674,4.85387 0,0.29633 0.46038,0.29704 0.46073,0 m -10.35791,0 c -0.007,-12.78713 -0.84455,-25.5591 -0.77928,-38.34694 0.0642,-12.59311 1.04245,-25.307217 4.75862,-37.402556 3.64878,-11.875911 10.48314,-22.532622 12.65308,-34.889722 2.09479,-11.926358 0.57996,-24.162807 -4.10316,-35.304588 -4.52085,-10.75478322 -11.28042,-20.4868637 -14.998,-31.592307 -0.4579,-1.367367 -0.86219,-2.750609 -1.21602,-4.148314 -0.0727,-0.286808 -0.51682,-0.1651 -0.44415,0.122767 2.8388,11.216216 9.25125,20.9772235 14.20707,31.3033816 2.61267,5.4433614 4.7371,11.0825144 5.89703,17.0218804 1.19556,6.1214 1.44463,12.425892 0.76306,18.62455 -0.68827,6.260747 -2.44052,12.262203 -4.81895,18.07845 -2.35091,5.749924 -5.13432,11.320991 -7.22876,17.175338 -4.17513,11.66883 -5.56402,24.12858 -5.86494,36.4557 -0.31079,12.7127 0.49601,25.41623 0.67804,38.12434 0.0226,1.59279 0.0346,3.18523 0.0356,4.77802 0,0.29633 0.46073,0.29704 0.46073,0 m -10.35755,0 c -0.004,-10.90436 -0.45473,-21.78932 -1.11125,-32.67145 -0.49072,-8.12165 -1.04916,-16.25212 -0.91193,-24.39353 0.0691,-4.11303 0.31714,-8.221833 0.74894,-12.312997 0.61454,-5.821539 1.61925,-11.593688 2.40806,-17.392649 0.84879,-6.240639 1.50213,-12.54372 1.25378,-18.849975 -0.24351,-6.204303 -1.49481,-12.206464 -3.79916,-17.973675 C 101.12097,22.86717 93.463932,11.766312 95.08671,-0.80951034 95.282148,-2.3268076 95.63669,-3.8123548 96.130932,-5.2590964 96.22724,-5.5402603 95.782387,-5.6612631 95.687137,-5.3818631 91.646421,6.4443061 97.949501,18.285645 102.8009,28.788192 c 2.67194,5.78485 4.88174,11.672711 5.69066,18.028003 0.80962,6.3627 0.48225,12.810419 -0.22578,19.16571 -1.17157,10.51807 -3.27378,20.886561 -3.67947,31.484711 -0.30833,8.071194 0.14182,16.137814 0.629,24.192434 0.62689,10.3505 1.17581,20.69889 1.28482,31.07055 0.0169,1.6249 0.0247,3.25014 0.0254,4.87539 0,0.29633 0.46073,0.29704 0.46073,0 m -10.285239,0 c -0.30727,-11.39543 -0.389467,-22.80179 0.04904,-34.1951 0.441325,-11.46281 1.406877,-22.91715 3.224741,-34.247663 1.780818,-11.098741 4.299648,-22.073305 5.731228,-33.228491 1.40335,-10.931172 1.5561,-21.910674 -0.80998,-32.720491 -2.28847,-10.459508 -6.217353,-20.6470249 -6.862584,-31.4159191 -0.07973,-1.3296195 -0.103364,-2.6610019 -0.0762,-3.9927379 0.006,-0.296686 -0.45473,-0.296686 -0.460728,0 -0.216252,10.6478905 3.280472,20.8170625 5.877272,31.00846 1.36067,5.341056 2.407,10.731147 2.76649,16.239066 0.36583,5.610225 0.13828,11.244086 -0.42792,16.832439 -1.15182,11.363677 -3.67454,22.523802 -5.61587,33.76436 -1.911702,11.068756 -3.050469,22.245107 -3.616324,33.460967 -0.574675,11.39719 -0.592314,22.81555 -0.344664,34.22191 0.03104,1.42452 0.06667,2.84904 0.104775,4.2732 0.0081,0.29598 0.468489,0.29704 0.460728,0 m -10.430228,0 c 0.0035,-8.78805 0.221192,-17.55845 0.733778,-26.33133 0.194028,-3.31823 0.378883,-6.63681 0.492478,-9.95892 0.21343,-6.26251 -0.09807,-12.49574 -0.769409,-18.72368 -1.400175,-12.988919 -4.066469,-25.839555 -4.61645,-38.915616 -0.265289,-6.306961 -0.0515,-12.661547 1.050573,-18.887369 0.540455,-3.055408 1.293636,-6.074833 2.293408,-9.013119 1.037166,-3.046589 2.345619,-5.989108 3.567994,-8.96373 1.200856,-2.92347 2.294467,-5.885745 3.018014,-8.967258 0.697442,-2.968273 1.100314,-6.002161 1.286228,-9.0445175 0.388055,-6.3327138 -0.151695,-12.680597 -0.87242,-18.9702715 -0.183444,-1.601611 -0.379941,-3.201458 -0.577497,-4.801658 -0.03598,-0.290336 -0.497417,-0.293864 -0.460728,0 1.559278,12.6206242 3.022248,25.677988 -1.380419,37.916202 -2.154767,5.988403 -5.018264,11.647664 -6.516511,17.867136 -1.437217,5.965825 -1.977319,12.119327 -1.971675,18.246372 0.0127,13.009033 2.490964,25.816982 4.141611,38.675026 0.843492,6.569073 1.471789,13.181183 1.433336,19.810583 -0.02187,3.82023 -0.229658,7.64223 -0.447322,11.45505 -0.451203,7.92198 -0.790222,15.83196 -0.848431,23.7684 -0.01199,1.6129 -0.01693,3.2258 -0.01729,4.8387 0,0.29633 0.460728,0.29704 0.460728,0 m -10.357555,0 c 0,-16.0528 -0.180975,-32.11265 -1.027995,-48.1464 C 74.474257,101.67525 73.904521,93.89968 73.127352,86.144213 72.74106,82.291174 72.303968,78.443075 71.811138,74.60203 71.324304,70.808258 70.60111,67.014486 70.350638,63.196725 69.392846,48.582553 75.677935,34.922292 77.799893,20.69547 c 0.254706,-1.709914 0.624417,-3.541536 0.594078,-5.272616 -0.0095,-0.544689 -0.217664,-0.996245 -0.534106,-1.4351 C 76.888668,12.640848 75.385129,11.643545 74.044574,10.703393 72.302557,9.4820755 70.497393,8.3503644 68.776191,7.0994144 67.815224,6.4012672 65.780049,5.1721894 65.619182,3.8305756 c -0.04092,-0.3418417 0.109009,-0.5545667 0.29845,-0.8311444 0.601134,-0.8759472 1.321859,-1.6661694 2.071159,-2.41688046 1.207558,-1.20967497 2.509661,-2.32127784 3.689702,-3.55917504 2.205567,-2.3145749 4.060472,-4.9593498 5.513211,-7.8059127 2.862792,-5.608461 4.203347,-12.008203 3.728156,-18.293644 -0.115711,-1.533173 -0.343959,-3.053645 -0.669572,-4.556478 -0.06279,-0.289278 -0.507295,-0.166511 -0.4445,0.122767 1.405113,6.482644 0.774347,13.307483 -1.649942,19.473685 -1.235781,3.143956 -2.939697,6.1192828 -5.062361,8.7492411 -2.176286,2.6962805 -5.049308,4.73956944 -7.155744,7.4824165 -0.900995,1.1729861 -1.004359,1.9254611 -0.01623,3.0674027 1.150055,1.3285611 2.719917,2.3293917 4.15925,3.3101139 1.798814,1.2255502 3.653719,2.3854838 5.367866,3.7309778 1.203678,0.945445 2.579864,1.971675 2.445103,3.629731 -1.166283,14.342533 -7.519458,27.766785 -8.06838,42.185166 -0.137936,3.631141 0.234244,7.169855 0.747889,10.757252 0.564797,3.942292 1.068211,7.892697 1.515533,11.849805 0.868539,7.681384 1.524,15.385697 2.009775,23.100591 0.998714,15.83725 1.288344,31.71013 1.34373,47.57632 0.0074,2.06727 0.0099,4.1349 0.01023,6.20218 0,0.29633 0.460728,0.29704 0.460728,0 m -10.357556,0 c 0.0074,-5.87551 0.498123,-11.72563 1.274234,-17.54681 0.642761,-4.81612 1.477433,-9.60861 1.979789,-14.44272 0.4572,-4.39985 0.578202,-8.83885 -0.06244,-13.22776 -0.664985,-4.55436 -2.11596,-8.99724 -4.280252,-13.059123 C 59.885838,90.72856 52.866619,83.59998 46.300013,76.513733 39.734114,69.428544 32.753347,62.152855 28.566933,53.330942 26.049864,48.02587 24.981653,42.123898 24.316667,36.330228 23.549375,29.647912 23.244222,22.907034 22.789844,16.198612 c -0.115358,-1.702858 -0.230363,-3.406069 -0.345722,-5.10928 -0.02011,-0.294217 -0.480483,-0.296334 -0.460728,0 0.460728,6.804377 0.854075,13.617222 1.407584,20.414896 0.506236,6.221236 1.238955,12.575822 3.30835,18.498608 3.110794,8.903406 9.651647,16.303625 15.897224,23.166564 6.720064,7.384344 14.014097,14.473766 19.430294,22.919619 2.534709,3.951461 4.46017,8.206661 5.569656,12.776901 1.068211,4.39984 1.305278,8.92634 1.030111,13.43484 -0.289631,4.74239 -1.068211,9.43998 -1.750483,14.13686 -0.792339,5.45712 -1.453445,10.93152 -1.682398,16.44474 -0.06562,1.57338 -0.09666,3.14783 -0.09878,4.72263 0,0.29633 0.460375,0.29704 0.460727,0 m -10.357908,0 c 0.176742,-7.16633 1.698625,-13.95307 4.256617,-20.62515 1.927578,-5.02814 3.990975,-9.98573 4.262261,-15.43615 0.28575,-5.73122 -0.655461,-12.1158 -3.982156,-16.92945 -2.1336,-3.08751 -5.259211,-5.035544 -7.793919,-7.722652 -3.179233,-3.369733 -3.159478,-7.888816 -1.923344,-12.143316 2.018594,-6.945842 6.288616,-12.975167 8.942916,-19.66348 0.580672,-1.462617 1.087967,-2.96792 1.376539,-4.518025 0.26035,-1.396295 0.234597,-2.816225 0.579614,-4.200525 0.777875,-3.124906 2.585508,-5.872339 4.313767,-8.543572 1.521177,-2.350206 3.183113,-4.769556 3.90278,-7.511345 0.317147,-1.208616 0.414867,-2.469091 0.202142,-3.704519 -0.290689,-1.691217 -1.22167,-3.139017 -1.991078,-4.643261 -4.236508,-8.279694 -7.481358,-17.064566 -9.648825,-26.1090833 -1.866547,-7.789686 -3.111853,-16.4546127 -0.192264,-24.1536347 0.691797,-1.823861 1.636184,-3.5306 2.798586,-5.095522 0.176742,-0.238125 -0.222955,-0.467784 -0.397933,-0.232481 -4.740275,6.382455 -5.127625,14.6730852 -4.075289,22.2789739 1.216378,8.7915748 4.0005,17.4882531 7.440083,25.6465921 0.86995,2.063044 1.797403,4.101747 2.783417,6.111874 0.885825,1.806223 2.12478,3.602567 2.666647,5.550253 0.786695,2.824692 -0.306564,5.623278 -1.680633,8.071203 -1.536347,2.735439 -3.448756,5.243689 -4.906081,8.026047 -0.696736,1.330678 -1.296105,2.725561 -1.659819,4.186414 -0.361244,1.452033 -0.327025,2.943225 -0.618772,4.405136 -0.655461,3.284361 -2.157236,6.373636 -3.638197,9.352138 -1.670756,3.360209 -3.478742,6.657975 -4.970286,10.104261 -1.887361,4.360333 -3.749675,9.915172 -1.492956,14.505517 1.525058,3.101269 4.689828,4.957233 7.086953,7.306377 3.952169,3.87279 5.732991,8.97043 6.259336,14.40533 0.306916,3.17288 0.255764,6.34964 -0.380295,9.47984 -0.52705,2.59362 -1.404055,5.09376 -2.350911,7.56003 -2.259541,5.88821 -4.388908,11.67624 -5.17913,17.97791 -0.261056,2.07927 -0.398639,4.16983 -0.450497,6.26427 -0.0071,0.29669 0.453319,0.29633 0.460727,0 m -10.357555,0 c 0.0049,-5.48463 0.204611,-10.99008 1.039283,-16.41828 0.611011,-3.9751 1.602317,-7.86518 2.652889,-11.74256 1.518708,-5.60634 2.969683,-11.22715 4.619978,-16.79751 1.948744,-6.57931 4.024136,-13.12086 5.886802,-19.72486 3.721453,-13.194947 6.20395,-26.664708 7.046736,-40.358835 C 66.835913,40.373767 66.484546,28.021959 64.137516,16.01164 61.941474,4.7714339 57.904638,-6.2359381 51.248427,-15.625471 c -0.785989,-1.108427 -1.608666,-2.190397 -2.459919,-3.249788 -0.185561,-0.23107 -0.509411,0.09701 -0.325261,0.325966 7.300383,9.0861439 11.908719,19.9859186 14.508691,31.288919 2.701925,11.742914 3.331633,23.884113 2.852208,35.894785 -0.548922,13.772092 -2.710039,27.415066 -6.280855,40.721844 -1.763536,6.572602 -3.794831,13.068645 -5.761567,19.581985 -1.796697,5.94995 -3.412066,11.93835 -5.030611,17.93769 -1.0414,3.86045 -2.132189,7.71208 -2.878666,11.64378 -0.89147,4.69336 -1.285522,9.46045 -1.425575,14.23141 -0.04762,1.61749 -0.06597,3.23568 -0.06738,4.85387 0,0.29633 0.460375,0.29704 0.460728,0 m -10.357555,0 c -0.0074,-12.78713 -0.84455,-25.5591 -0.779286,-38.34694 0.06421,-12.59311 1.042458,-25.307217 4.758619,-37.402556 C 42.110777,69.979583 48.945141,59.322872 51.11543,46.965772 53.209872,35.039414 51.695044,22.802965 47.012272,11.661184 42.491072,0.90640078 35.731497,-8.8256797 32.013925,-19.931123 c -0.457906,-1.367367 -0.862189,-2.750609 -1.216025,-4.148314 -0.07267,-0.286808 -0.51682,-0.1651 -0.444147,0.122767 2.838802,11.216216 9.251244,20.9772235 14.207066,31.3033816 2.612672,5.4433614 4.7371,11.0825144 5.897033,17.0218804 1.195564,6.1214 1.444625,12.425892 0.763058,18.62455 -0.688269,6.260747 -2.440516,12.262203 -4.818944,18.07845 -2.350911,5.749924 -5.134328,11.320991 -7.228769,17.175338 -4.175125,11.66883 -5.564011,24.12858 -5.864931,36.4557 -0.310797,12.7127 0.496006,25.41623 0.678039,38.12434 0.02258,1.59279 0.03457,3.18523 0.03563,4.77802 0,0.29633 0.460728,0.29704 0.460728,0 m -10.357908,0 c -0.0039,-10.90436 -0.454378,-21.78932 -1.11125,-32.67145 -0.490362,-8.12165 -1.049162,-16.25212 -0.911931,-24.39353 0.06914,-4.11303 0.317147,-8.221833 0.748947,-12.312997 0.614539,-5.821539 1.61925,-11.593688 2.408061,-17.392649 0.849136,-6.240639 1.502128,-12.54372 1.253772,-18.849975 C 26.26788,45.780086 25.016578,39.777925 22.712233,34.010714 18.259825,22.86717 10.602431,11.766312 12.225209,-0.80951034 12.420647,-2.3268076 12.775189,-3.8123548 13.269431,-5.2590964 13.365739,-5.5402603 12.920886,-5.6612631 12.825636,-5.3818631 8.7849197,6.4443061 15.088,18.285645 19.9394,28.788192 c 2.671939,5.78485 4.881739,11.672711 5.690658,18.028003 0.809625,6.3627 0.482247,12.810419 -0.225778,19.16571 -1.171574,10.51807 -3.273777,20.886561 -3.679119,31.484711 -0.30868,8.071194 0.141464,16.137814 0.62865,24.192434 0.626886,10.3505 1.175808,20.69889 1.284817,31.07055 0.01693,1.6249 0.02469,3.25014 0.0254,4.87539 0,0.29633 0.460728,0.29704 0.460728,0 m -10.285236,0 c -0.30727,-11.39543 -0.389467,-22.80179 0.04904,-34.1951 0.441325,-11.46281 1.406877,-22.91715 3.224741,-34.247663 C 18.89412,78.063486 21.412953,67.088922 22.844525,55.933736 24.247875,45.002564 24.400628,34.023062 22.034547,23.213245 19.746078,12.753737 15.817192,2.5662201 15.171961,-8.2026741 c -0.07973,-1.3296195 -0.103364,-2.6610019 -0.0762,-3.9927379 0.006,-0.296686 -0.45473,-0.296686 -0.460727,0 -0.2159,10.6478905 3.28048,20.8170625 5.877277,31.00846 1.360664,5.341056 2.407003,10.731147 2.766483,16.239066 0.365831,5.610225 0.138642,11.244086 -0.427919,16.832439 -1.151819,11.363677 -3.67418,22.523802 -5.615869,33.76436 -1.911703,11.068756 -3.05047,22.245107 -3.616325,33.460967 -0.574675,11.39719 -0.592314,22.81555 -0.344664,34.22191 0.03104,1.42452 0.06668,2.84904 0.104775,4.2732 0.0081,0.29598 0.468842,0.29704 0.460728,0 m -10.4302279,0 c 0.00353,-8.78805 0.2211917,-17.55845 0.7337778,-26.33133 0.1943805,-3.31823 0.3788833,-6.63681 0.4928305,-9.95892 C 4.8489782,115.05223 4.5378282,108.819 3.8664921,102.59106 2.4663171,89.602141 -0.19997728,76.751505 -0.74995782,63.675444 -1.0148939,57.368483 -0.80146337,51.013897 0.3002616,44.788075 0.84106992,41.732667 1.5942505,38.713242 2.5940227,35.774956 3.6308365,32.728367 4.9392893,29.785848 6.1616643,26.811226 7.3625198,23.887756 8.4564836,20.925481 9.1796781,17.843968 9.8774725,14.875695 10.279992,11.841807 10.466259,8.7994505 10.854314,2.4667367 10.314564,-3.8811465 9.5934864,-10.170821 9.410042,-11.772432 9.2135447,-13.372279 9.016342,-14.972479 c -0.036336,-0.290336 -0.4974167,-0.293864 -0.4610806,0 C 10.114892,-2.3518548 11.577509,10.705509 7.174842,22.943723 5.0204282,28.932126 2.156931,34.591387 0.65833104,40.810859 -0.7788856,46.776684 -1.3189884,52.930186 -1.3126384,59.057231 c 0.011994,13.009033 2.4902583,25.816982 4.1416111,38.675026 0.8427861,6.569073 1.471436,13.181183 1.4326305,19.810583 -0.02152,3.82023 -0.2293056,7.64223 -0.4473222,11.45505 -0.4512028,7.92198 -0.7895167,15.83196 -0.8484306,23.7684 -0.011642,1.6129 -0.016933,3.2258 -0.017286,4.8387 0,0.29633 0.4607278,0.29704 0.4607278,0 m -10.3575553,0 c 0,-13.69236 -0.1322917,-27.3879 -0.6960306,-41.07003 -0.5436305,-13.19283 -1.4989527,-26.372961 -3.0995053,-39.482183 -0.803981,-6.586713 -1.751895,-13.147674 -3.051175,-19.656424 -1.334559,-6.685139 -2.892072,-13.325122 -4.110214,-20.033544 -1.212144,-6.67632 -2.084211,-13.441186 -2.009069,-20.238508 0.03598,-3.246261 0.164394,-6.603647 1.014941,-9.7528949 0.89782,-3.3249305 2.854678,-5.7209971 5.322358,-8.032397 4.0110838,-3.7567305 7.217481,-7.9763055 9.2614754,-13.1166301 2.011186,-5.057775 2.8437416,-10.606616 2.3110471,-16.02881 -0.1266472,-1.286934 -0.3330222,-2.562578 -0.6067777,-3.826228 -0.062794,-0.289278 -0.5072945,-0.166511 -0.4441472,0.122767 2.39888879,11.071577 -1.1832167,23.146455 -9.3027496,31.0645511 -2.150886,2.09761666 -4.525081,4.0103777 -5.887509,6.7535776 -1.285522,2.5879777 -1.719086,5.4955717 -1.937455,8.3481333 -0.503061,6.571545 0.0095,13.17625 0.978253,19.681825 0.993775,6.673497 2.46768,13.261975 3.865033,19.858919 1.404055,6.627636 2.607028,13.266914 3.510492,19.982391 1.766711,13.130389 2.8624385,26.343327 3.5090801,39.574255 0.6607528,13.51738 0.8646583,27.05241 0.9041694,40.58391 0.00494,1.75577 0.0067,3.51155 0.00706,5.26732 0,0.29633 0.4607278,0.29704 0.4607278,0 m -10.3575553,0 c -0.0035,-10.22562 -0.230716,-20.49498 -1.626305,-30.63875 -1.223786,-8.89423 -3.472039,-17.60961 -6.730294,-25.97644 C -29.190544,91.929769 -34.942585,84.001441 -40.577152,76.162366 -46.269927,68.2418 -52.065078,60.161072 -55.374133,50.897481 -57.31935,45.452356 -58.2401,39.72642 -58.791139,33.988842 c -0.58173,-6.06178 -0.898525,-12.152841 -1.310216,-18.228027 l -0.316089,-4.671483 c -0.02011,-0.294217 -0.480484,-0.296334 -0.460728,0 0.416983,6.160205 0.805039,12.32288 1.258358,18.480616 0.427214,5.803194 1.012825,11.632494 2.505075,17.272352 2.525536,9.541933 7.882114,17.921817 13.526629,25.897064 5.622572,7.942438 11.662833,15.708488 15.835136,24.553332 2.002718,4.245324 3.535537,8.738304 4.857396,13.237984 1.246011,4.23968 2.229556,8.5538 2.962275,12.91131 1.651705,9.82239 2.055636,19.81235 2.147711,29.75681 0.01341,1.46861 0.0187,2.93758 0.01905,4.40619 0,0.29633 0.460727,0.29704 0.460727,0 m -10.357908,0 c 0.160161,-6.69078 0.963436,-13.48846 3.688997,-19.66454 2.100087,-4.75932 5.268384,-8.88329 8.449734,-12.95823 1.754716,-2.24755 3.732036,-4.45488 4.84505,-7.11024 0.9570861,-2.28423 1.1253611,-4.72404 0.647699,-7.14269 -0.485422,-2.4571 -1.495424,-4.77626 -2.371019,-7.11059 -1.056217,-2.81552 -1.940278,-5.700176 -2.164997,-8.714662 -0.204964,-2.754489 0.08396,-5.336469 1.206147,-7.863769 1.068564,-2.407708 2.511425,-4.642908 3.9719255,-6.826956 3.0240111,-4.521905 6.5680166,-8.914341 8.65081651,-13.983052 C 0.03638383,64.343253 0.61035326,62.237875 0.24416994,60.188236 0.01592272,58.908711 -0.66423282,57.781233 -1.2621911,56.645994 -2.2919495,54.691958 -3.3809744,52.769672 -4.4985744,50.864672 -8.9220549,43.324753 -13.71701,36.016609 -17.417296,28.075934 -21.048085,20.283426 -23.84138,12.076051 -25.666299,3.6732367 c -1.56598,-7.2118359 -2.363964,-15.2022517 0.407811,-22.2320547 0.681567,-1.727905 1.591381,-3.345744 2.698397,-4.835877 0.176742,-0.238125 -0.222955,-0.467784 -0.397933,-0.232481 -4.419247,5.950655 -5.065889,13.613341 -4.265083,20.7669684 0.903111,8.0616776 3.298472,16.0566806 6.199364,23.6082416 3.093861,8.052858 7.183613,15.559969 11.6518965,22.921383 2.2930555,3.777897 4.6175082,7.539214 6.7454637,11.414478 1.3860639,2.524477 2.88325274,4.809066 2.40841386,7.778397 -0.38311666,2.398888 -1.51800276,4.646788 -2.71321386,6.733822 -1.4287499,2.494844 -3.0723416,4.860925 -4.7014693,7.226652 -1.6111361,2.33927 -3.2423809,4.674658 -4.6598419,7.138458 -1.1303,1.965325 -2.217914,4.090459 -2.59715,6.348589 -0.971902,5.78485 1.255184,11.192227 3.204281,16.494117 0.860778,2.3421 1.610783,4.79002 1.444625,7.31485 -0.204964,3.10938 -1.83762,5.66879 -3.689703,8.06979 -3.183114,4.12644 -6.577894,8.15093 -9.077677,12.74763 -2.824339,5.19324 -4.221339,10.9354 -4.782256,16.79257 -0.187678,1.95404 -0.287161,3.91407 -0.33408,5.87622 -0.0071,0.29669 0.453319,0.29633 0.460727,0 m -10.357555,0 c 0.0049,-5.48463 0.204964,-10.99008 1.039283,-16.41828 0.611011,-3.9751 1.602317,-7.86518 2.652889,-11.74256 1.518708,-5.60634 2.969683,-11.22715 4.619978,-16.79751 1.948744,-6.57931 4.024136,-13.12086 5.886802,-19.72486 3.721453,-13.194947 6.20395,-26.664708 7.046736,-40.358835 0.750006,-12.189178 0.398639,-24.540986 -1.948391,-36.551305 -2.196042,-11.2402061 -6.232878,-22.2475781 -12.889089,-31.637111 -0.785989,-1.108427 -1.608666,-2.190397 -2.459919,-3.249788 -0.185209,-0.23107 -0.509411,0.09701 -0.325261,0.325966 7.300383,9.0861439 11.908719,19.9859186 14.508691,31.288919 2.701925,11.742914 3.331633,23.884113 2.852208,35.894785 -0.548922,13.772092 -2.710039,27.415066 -6.280855,40.721844 -1.763536,6.572602 -3.794831,13.068645 -5.761567,19.581985 -1.796697,5.94995 -3.412066,11.93835 -5.030611,17.93769 -1.0414,3.86045 -2.132188,7.71208 -2.878666,11.64378 -0.89147,4.69336 -1.285522,9.46045 -1.425575,14.23141 -0.04763,1.61749 -0.06597,3.23568 -0.06738,4.85387 0,0.29633 0.460375,0.29704 0.460728,0 m -10.357626,0 c -0.0074,-12.78713 -0.84455,-25.5591 -0.779286,-38.34694 0.06421,-12.59311 1.042458,-25.307217 4.75869,-37.402556 3.64878,-11.875911 10.483144,-22.532622 12.653433,-34.889722 2.094442,-11.926358 0.579614,-24.162807 -4.103158,-35.304588 -4.520847,-10.75478322 -11.280846,-20.4868637 -14.998418,-31.592307 -0.457905,-1.367367 -0.862189,-2.750609 -1.215672,-4.148314 -0.07267,-0.286808 -0.517172,-0.1651 -0.4445,0.122767 2.838803,11.216216 9.251315,20.9772235 14.207137,31.3033816 2.612672,5.4433614 4.7371,11.0825144 5.897033,17.0218804 1.195564,6.1214 1.444625,12.425892 0.763059,18.62455 -0.687917,6.260747 -2.440517,12.262203 -4.818945,18.07845 -2.350911,5.749924 -5.134327,11.320991 -7.228769,17.175338 -4.175196,11.66883 -5.564082,24.12858 -5.865001,36.4557 -0.310797,12.7127 0.496358,25.41623 0.678039,38.12434 0.02258,1.59279 0.03457,3.18523 0.03563,4.77802 0,0.29633 0.461081,0.29704 0.460728,0 m -10.357696,0 c -0.0039,-10.90436 -0.454378,-21.78932 -1.11125,-32.67145 -0.490361,-8.12165 -1.048809,-16.25212 -0.911931,-24.39353 0.06914,-4.11303 0.317147,-8.221833 0.748947,-12.312997 0.614539,-5.821539 1.619603,-11.593688 2.408061,-17.392649 0.849137,-6.240639 1.502128,-12.54372 1.253773,-18.849975 -0.244475,-6.204303 -1.495778,-12.206464 -3.79977,-17.973675 -4.452761,-11.143544 -12.110155,-22.244402 -10.487377,-34.82022434 0.195791,-1.51729726 0.54998,-3.00284446 1.044222,-4.44958606 0.09631,-0.2811639 -0.348545,-0.4021667 -0.443795,-0.1227667 -4.040716,11.8261692 2.262364,23.6675081 7.113764,34.1700551 2.671939,5.78485 4.881739,11.672711 5.690658,18.028003 0.809625,6.3627 0.482248,12.810419 -0.225777,19.16571 -1.171575,10.51807 -3.273778,20.886561 -3.67912,31.484711 -0.30868,8.071194 0.141464,16.137814 0.62865,24.192434 0.626886,10.3505 1.175809,20.69889 1.284817,31.07055 0.01693,1.6249 0.02469,3.25014 0.0254,4.87539 0,0.29633 0.460728,0.29704 0.460728,0 m -10.285307,0 c -0.307269,-11.39543 -0.389466,-22.80179 0.04904,-34.1951 0.441325,-11.46281 1.406878,-22.91715 3.224742,-34.247663 1.780822,-11.098741 4.299655,-22.073305 5.731228,-33.228491 1.40335,-10.931172 1.556102,-21.910674 -0.809625,-32.720491 -2.288823,-10.459508 -6.217709,-20.6470249 -6.862939,-31.4159191 -0.07937,-1.3296195 -0.103364,-2.6610019 -0.07585,-3.9927379 0.0056,-0.296686 -0.455084,-0.296686 -0.461081,0 -0.2159,10.6478905 3.280481,20.8170625 5.877278,31.00846 1.360664,5.341056 2.407002,10.731147 2.766483,16.239066 0.365831,5.610225 0.138642,11.244086 -0.427567,16.832439 -1.151819,11.363677 -3.674533,22.523802 -5.616222,33.76436 -1.91135,11.068756 -3.050469,22.245107 -3.616325,33.460967 -0.574675,11.39719 -0.592314,22.81555 -0.344664,34.22191 0.03104,1.42452 0.06667,2.84904 0.104775,4.2732 0.0081,0.29598 0.468842,0.29704 0.460728,0 m -10.430051,0 c 0.0035,-8.78805 0.221192,-17.55845 0.733778,-26.33133 0.194028,-3.31823 0.378883,-6.63681 0.492478,-9.95892 0.213783,-6.26251 -0.09807,-12.49574 -0.769409,-18.72368 -1.400175,-12.988919 -4.066469,-25.839555 -4.61645,-38.915616 -0.264936,-6.306961 -0.05151,-12.661547 1.050573,-18.887369 0.540455,-3.055408 1.293636,-6.074833 2.293761,-9.013119 1.036814,-3.046589 2.345266,-5.989108 3.567641,-8.96373 1.200856,-2.92347 2.294467,-5.885745 3.018014,-8.967258 0.697442,-2.968273 1.100314,-6.002161 1.286228,-9.0445175 0.388055,-6.3327138 -0.151342,-12.680597 -0.87242,-18.9702715 -0.183444,-1.601611 -0.379941,-3.201458 -0.577497,-4.801658 -0.03598,-0.290336 -0.497064,-0.293864 -0.460728,0 1.559278,12.6206242 3.022248,25.677988 -1.380419,37.916202 -2.154414,5.988403 -5.018264,11.647664 -6.516511,17.867136 -1.437217,5.965825 -1.977319,12.119327 -1.971322,18.246372 0.01235,13.009033 2.490611,25.816982 4.141258,38.675026 0.843492,6.569073 1.471789,13.181183 1.433336,19.810583 -0.02187,3.82023 -0.229658,7.64223 -0.446969,11.45505 -0.451556,7.92198 -0.790222,15.83196 -0.848784,23.7684 -0.01199,1.6129 -0.01693,3.2258 -0.01729,4.8387 0,0.29633 0.460728,0.29704 0.460728,0 m -10.357661,0 c 0,-13.69236 -0.132292,-27.3879 -0.696031,-41.07003 -0.543277,-13.19283 -1.498952,-26.372961 -3.099505,-39.482183 -0.803981,-6.586713 -1.751895,-13.147674 -3.051175,-19.656424 -1.334558,-6.685139 -2.892072,-13.325122 -4.110214,-20.033544 -1.21214,-6.67632 -2.08386,-13.441186 -2.00907,-20.238508 0.036,-3.246261 0.1644,-6.603647 1.01494,-9.7528949 0.89782,-3.3249305 2.85468,-5.7209971 5.322361,-8.032397 4.011436,-3.7567305 7.21748,-7.9763055 9.261474,-13.1166301 2.011186,-5.057775 2.844095,-10.606616 2.311048,-16.02881 -0.126648,-1.286934 -0.333023,-2.562578 -0.606778,-3.826228 -0.0628,-0.289278 -0.506942,-0.166511 -0.444147,0.122767 2.398888,11.071577 -1.183217,23.146455 -9.30275,31.0645511 -2.150886,2.09761666 -4.525081,4.0103777 -5.887508,6.7535776 -1.28517,2.5879777 -1.71908,5.4955717 -1.93745,8.3481333 -0.50306,6.571545 0.01,13.17625 0.97825,19.681825 0.99377,6.673497 2.467677,13.261975 3.86503,19.858919 1.404056,6.627636 2.607028,13.266914 3.510492,19.982391 1.766711,13.130389 2.862439,26.343327 3.509433,39.574255 0.6604,13.51738 0.864305,27.05241 0.903464,40.58391 0.0053,1.75577 0.0074,3.51155 0.0074,5.26732 0,0.29633 0.460728,0.29704 0.460728,0 m -10.357517,0 c -0.004,-10.22562 -0.23107,-20.49498 -1.62666,-30.63875 -1.22379,-8.89423 -3.47204,-17.60961 -6.7303,-25.97644 -3.52813,-9.060031 -9.27981,-16.988359 -14.91438,-24.827434 -5.69313,-7.920566 -11.48821,-16.001294 -14.79727,-25.264885 -1.94486,-5.445125 -2.86596,-11.171061 -3.41665,-16.908639 -0.58173,-6.06178 -0.89923,-12.152841 -1.31021,-18.228027 -0.10548,-1.557161 -0.21097,-3.114322 -0.31609,-4.671483 -0.0201,-0.294217 -0.48084,-0.296334 -0.46073,0 0.41698,6.160205 0.80469,12.32288 1.258,18.480616 0.42757,5.803194 1.01318,11.632494 2.50543,17.272352 2.52519,9.541933 7.88176,17.921817 13.52656,25.897064 5.62222,7.942438 11.66248,15.708488 15.83478,24.553332 2.00272,4.245324 3.53589,8.738304 4.85775,13.237984 1.24601,4.23968 2.22956,8.5538 2.96228,12.91131 1.6517,9.82239 2.05563,19.81235 2.14736,29.75681 0.0134,1.46861 0.0191,2.93758 0.0194,4.40619 0,0.29633 0.46073,0.29704 0.46073,0 m -10.35784,0 c 0.14005,-5.85082 0.75988,-11.76867 2.74849,-17.30798 1.50425,-4.18959 3.83399,-7.95867 6.4763,-11.51855 7.170556,-9.66011 15.510928,-18.77166 20.623736,-29.772322 2.775303,-5.971117 4.30777,-12.409664 3.911248,-19.015427 -0.423334,-7.05485 -2.73297,-13.871222 -5.773561,-20.203583 -3.233209,-6.73347 -7.32402,-13.002331 -11.139311,-19.409833 -3.826228,-6.426553 -7.216422,-13.066889 -9.881662,-20.062825 -2.51565,-6.603647 -4.57799,-13.4986889 -5.6963,-20.4850998 -1.01635,-6.3489416 -1.17545,-13.2411602 1.49013,-19.2313272 0.63077,-1.417108 1.42029,-2.748491 2.34457,-3.992738 0.17674,-0.238125 -0.22296,-0.467784 -0.39794,-0.232481 -3.72145,5.010855 -4.7879,11.303353 -4.52684,17.421224 0.28857,6.75569441 1.98755,13.4560025 3.99909,19.882203 2.17664,6.954308 4.99674,13.708239 8.417274,20.142905 3.538008,6.655858 7.726186,12.934244 11.447639,19.484975 3.674886,6.469238 6.898216,13.28808 8.428213,20.611041 1.472142,7.044619 1.042106,14.170025 -1.401586,20.944769 -2.27718,6.312599 -5.94748,12.027249 -9.862255,17.436039 -3.476978,4.80448 -7.160683,9.4548 -10.784415,14.14815 -2.66136,3.44664 -5.20841,7.00017 -7.00758,10.98585 -2.13889,4.73816 -3.16724,9.86296 -3.6075,15.02234 -0.14641,1.71415 -0.22719,3.43288 -0.26847,5.15267 -0.007,0.29669 0.45367,0.29633 0.46073,0 m -10.35752,0 c 0.005,-5.48463 0.20461,-10.99008 1.03928,-16.41828 0.61101,-3.9751 1.60232,-7.86518 2.65289,-11.74256 1.51871,-5.60634 2.96968,-11.22715 4.61963,-16.79751 1.94909,-6.57931 4.02413,-13.12086 5.88715,-19.72486 3.72145,-13.194947 6.20395,-26.664708 7.046385,-40.358835 0.750005,-12.189178 0.398992,-24.540986 -1.948035,-36.551305 -2.1964,-11.2402061 -6.23288,-22.2475781 -12.88909,-31.637111 -0.78599,-1.108427 -1.60867,-2.190397 -2.45992,-3.249788 -0.18556,-0.23107 -0.50941,0.09701 -0.32562,0.325966 7.30039,9.0861439 11.90908,19.9859186 14.50905,31.288919 2.70157,11.742914 3.331279,23.884113 2.852207,35.894785 -0.549277,13.772092 -2.710397,27.415066 -6.280857,40.721844 -1.76353,6.572602 -3.79483,13.068645 -5.76157,19.581985 -1.79705,5.94995 -3.41206,11.93835 -5.03061,17.93769 -1.04175,3.86045 -2.13219,7.71208 -2.87902,11.64378 -0.89111,4.69336 -1.28517,9.46045 -1.42522,14.23141 -0.0476,1.61749 -0.066,3.23568 -0.0674,4.85387 0,0.29633 0.46038,0.29704 0.46073,0 m -10.35784,0 c -0.007,-12.78713 -0.8442,-25.5591 -0.77893,-38.34694 0.0639,-12.59311 1.0421,-25.307217 4.75826,-37.402556 3.64914,-11.875911 10.4835,-22.532622 12.65344,-34.889722 2.09444,-11.926358 0.57996,-24.162807 -4.10351,-35.304588 -4.5205,-10.75478322 -11.28007,-20.4868637 -14.998,-31.592307 -0.45755,-1.367367 -0.86219,-2.750609 -1.21602,-4.148314 -0.0727,-0.286808 -0.51682,-0.1651 -0.44415,0.122767 2.8388,11.216216 9.25124,20.9772235 14.20707,31.3033816 2.61267,5.4433614 4.73745,11.0825144 5.89738,17.0218804 1.19521,6.1214 1.44428,12.425892 0.76306,18.62455 -0.68827,6.260747 -2.44087,12.262203 -4.81894,18.07845 -2.35091,5.749924 -5.13468,11.320991 -7.22913,17.175338 -4.17512,11.66883 -5.56365,24.12858 -5.86493,36.4557 -0.31044,12.7127 0.49636,25.41623 0.67804,38.12434 0.0226,1.59279 0.0349,3.18523 0.0356,4.77802 0,0.29633 0.46073,0.29704 0.46073,0 m -10.35769,0 c -0.004,-10.90436 -0.45474,-21.78932 -1.11125,-32.67145 -0.49037,-8.12165 -1.04917,-16.25212 -0.91194,-24.39353 0.0692,-4.11303 0.31715,-8.221833 0.74895,-12.312997 0.61454,-5.821539 1.61925,-11.593688 2.40806,-17.392649 0.84914,-6.240639 1.50213,-12.54372 1.25378,-18.849975 -0.24448,-6.204303 -1.49543,-12.206464 -3.79977,-17.973675 -4.45277,-11.143544 -12.11016,-22.244402 -10.48738,-34.82022434 0.19579,-1.51729726 0.55033,-3.00284446 1.04457,-4.44958606 0.096,-0.2811639 -0.34854,-0.4021667 -0.44414,-0.1227667 -4.04072,11.8261692 2.26236,23.6675081 7.11376,34.1700551 2.67194,5.78485 4.88174,11.672711 5.69066,18.028003 0.80962,6.3627 0.48225,12.810419 -0.22578,19.16571 -1.17157,10.51807 -3.27378,20.886561 -3.67912,31.484711 -0.30868,8.071194 0.14146,16.137814 0.62865,24.192434 0.62689,10.3505 1.17581,20.69889 1.28482,31.07055 0.0169,1.6249 0.025,3.25014 0.0254,4.87539 0,0.29633 0.46073,0.29704 0.46073,0 m -10.28517,0 c -0.30762,-11.39543 -0.38947,-22.80179 0.049,-34.1951 0.44097,-11.46281 1.40687,-22.91715 3.22474,-34.247663 1.78082,-11.098741 4.2993,-22.073305 5.73123,-33.228491 1.40335,-10.931172 1.5561,-21.910674 -0.80998,-32.720491 -2.28847,-10.459508 -6.21736,-20.6470249 -6.86259,-31.4159191 -0.0797,-1.3296195 -0.10336,-2.6610019 -0.0762,-3.9927379 0.006,-0.296686 -0.45473,-0.296686 -0.46073,0 -0.21625,10.6478905 3.28048,20.8170625 5.87728,31.00846 1.36067,5.341056 2.407,10.731147 2.76613,16.239066 0.36619,5.610225 0.139,11.244086 -0.42756,16.832439 -1.15182,11.363677 -3.67454,22.523802 -5.61587,33.76436 -1.91171,11.068756 -3.05047,22.245107 -3.61633,33.460967 -0.57467,11.39719 -0.59231,22.81555 -0.34466,34.22191 0.031,1.42452 0.0663,2.84904 0.10477,4.2732 0.008,0.29598 0.46849,0.29704 0.46073,0 m -10.43002,0 c 0,-8.78805 0.22084,-17.55845 0.73378,-26.33133 0.19403,-3.31823 0.37889,-6.63681 0.49213,-9.95892 0.21378,-6.26251 -0.0977,-12.49574 -0.76906,-18.72368 -1.40017,-12.988919 -4.06647,-25.839555 -4.61645,-38.915616 -0.26529,-6.306961 -0.0515,-12.661547 1.05022,-18.887369 0.54081,-3.055408 1.29399,-6.074833 2.29376,-9.013119 1.03682,-3.046589 2.34562,-5.989108 3.56764,-8.96373 1.20121,-2.92347 2.29447,-5.885745 3.01837,-8.967258 0.69744,-2.968273 1.10031,-6.002161 1.28623,-9.0445175 0.3877,-6.3327138 -0.1517,-12.680597 -0.87242,-18.9702715 -0.18345,-1.601611 -0.37994,-3.201458 -0.57785,-4.801658 -0.0356,-0.290336 -0.49707,-0.293864 -0.46073,0 1.55963,12.6206242 3.0226,25.677988 -1.38042,37.916202 -2.15441,5.988403 -5.01791,11.647664 -6.51616,17.867136 -1.43721,5.965825 -1.97732,12.119327 -1.97132,18.246372 0.0124,13.009033 2.49026,25.816982 4.14126,38.675026 0.84349,6.569073 1.47179,13.181183 1.43334,19.810583 -0.0222,3.82023 -0.22966,7.64223 -0.44733,11.45505 -0.4512,7.92198 -0.79022,15.83196 -0.84843,23.7684 -0.012,1.6129 -0.0169,3.2258 -0.0173,4.8387 0,0.29633 0.46072,0.29704 0.46072,0 m -10.35783,0 c 0,-13.69236 -0.1323,-27.3879 -0.69603,-41.07003 -0.54328,-13.19283 -1.49896,-26.372961 -3.09951,-39.482183 -0.80398,-6.586713 -1.75189,-13.147674 -3.05117,-19.656424 -1.33456,-6.685139 -2.89208,-13.325122 -4.11022,-20.033544 -1.21214,-6.67632 -2.08386,-13.441186 -2.00907,-20.238508 0.036,-3.246261 0.1644,-6.603647 1.0153,-9.7528949 0.89746,-3.3249305 2.85432,-5.7209971 5.322,-8.032397 4.01144,-3.7567305 7.21748,-7.9763055 9.26148,-13.1166301 2.01118,-5.057775 2.84409,-10.606616 2.31104,-16.02881 -0.12664,-1.286934 -0.33302,-2.562578 -0.60677,-3.826228 -0.0628,-0.289278 -0.50695,-0.166511 -0.44415,0.122767 2.39889,11.071577 -1.18322,23.146455 -9.30275,31.0645511 -2.15053,2.09761666 -4.52508,4.0103777 -5.88751,6.7535776 -1.28517,2.5879777 -1.71908,5.4955717 -1.93745,8.3481333 -0.50307,6.571545 0.01,13.17625 0.97825,19.681825 0.99377,6.673497 2.46768,13.261975 3.86503,19.858919 1.40406,6.627636 2.60703,13.266914 3.51049,19.982391 1.76671,13.130389 2.86244,26.343327 3.50944,39.574255 0.6604,13.51738 0.8643,27.05241 0.90381,40.58391 0.005,1.75577 0.007,3.51155 0.007,5.26732 0,0.29633 0.46073,0.29704 0.46073,0 m -10.35752,0 c -0.004,-10.22562 -0.23107,-20.49498 -1.62666,-30.63875 -1.22379,-8.89423 -3.47169,-17.60961 -6.7303,-25.97644 -3.52813,-9.060031 -9.27982,-16.988359 -14.91438,-24.827434 -5.69313,-7.920566 -11.48821,-16.001294 -14.79691,-25.264885 -1.94522,-5.445125 -2.86632,-11.171061 -3.41701,-16.908639 -0.58173,-6.06178 -0.89888,-12.152841 -1.31021,-18.228027 -0.10549,-1.557161 -0.21061,-3.114322 -0.31609,-4.671483 -0.0201,-0.294217 -0.48084,-0.296334 -0.46073,0 0.41698,6.160205 0.80468,12.32288 1.258,18.480616 0.42757,5.803194 1.01318,11.632494 2.50543,17.272352 2.52519,9.541933 7.88212,17.921817 13.52656,25.897064 5.62222,7.942438 11.66283,15.708488 15.83478,24.553332 2.00272,4.245324 3.53589,8.738304 4.85775,13.237984 1.24601,4.23968 2.22956,8.5538 2.96228,12.91131 1.6517,9.82239 2.05563,19.81235 2.14736,29.75681 0.0134,1.46861 0.019,2.93758 0.0194,4.40619 0,0.29633 0.46073,0.29704 0.46073,0 m -10.35784,0 c 0.14146,-6.75569 -0.52776,-13.53326 -1.13101,-20.25403 -0.72884,-8.12306 -1.55469,-16.24048 -2.05387,-24.38223 -0.43215,-7.05168 -0.77293,-14.250811 0.13617,-21.279909 0.5334,-4.120444 1.61431,-10.344149 6.40504,-11.530894 2.20662,-0.546452 4.57023,0.02681 6.66679,0.750711 2.57528,0.888648 5.01403,2.144889 7.41363,3.423003 2.32268,1.237192 4.61186,2.547056 6.99099,3.674886 1.70357,0.807508 3.59199,1.683103 5.5118,1.73602 1.48096,0.04022 2.68711,-0.657225 3.26284,-2.042937 0.5514,-1.326797 0.56057,-2.883252 0.60643,-4.288366 0.0878,-2.682522 -0.13265,-5.369278 -0.58738,-8.012289 -1.92828,-11.2141 -7.91315,-21.082705 -13.73681,-30.653919 -2.98732,-4.910313 -5.94113,-9.840383 -8.45185,-15.015985 -2.53365,-5.223228 -4.67783,-10.634839 -6.41068,-16.175567 -1.61325,-5.1572585 -2.99261,-10.4605667 -3.65266,-15.8330194 -0.59972,-4.8827971 -0.59619,-9.9687936 0.88195,-14.7034236 0.72072,-2.308931 1.8101,-4.469695 3.25225,-6.411736 0.17675,-0.238125 -0.22295,-0.467784 -0.39793,-0.232481 -5.85505,7.883172 -5.1121,18.4770879 -3.12173,27.5628794 2.41053,11.0041976 6.46007,21.6556166 11.89637,31.5182246 5.62716,10.208331 12.67037,19.724511 16.73684,30.73153 1.95686,5.296606 3.22862,10.903655 3.14642,16.5735 -0.0272,1.885244 0.19191,5.508625 -2.13077,6.346472 -1.61961,0.5842 -3.59975,-0.217311 -5.08918,-0.833261 -2.3816,-0.985309 -4.63761,-2.268009 -6.90103,-3.4925 -2.37667,-1.28517 -4.76321,-2.570339 -7.25947,-3.611033 -2.1597,-0.900642 -4.49156,-1.692981 -6.85905,-1.67887 -2.03059,0.01235 -3.937,0.765528 -5.26839,2.329745 -1.38006,1.621013 -2.1149,3.734505 -2.62078,5.770738 -1.55716,6.267097 -1.40124,12.989981 -1.17475,19.393951 0.28751,8.15305 1.05233,16.28352 1.80199,24.40446 0.67557,7.31803 1.43933,14.65016 1.6517,21.99993 0.0402,1.40511 0.055,2.81093 0.0254,4.2164 -0.006,0.29669 0.45438,0.29669 0.46073,0 m -10.35752,0 c 0.005,-5.48463 0.20496,-10.99008 1.03928,-16.41828 0.61101,-3.9751 1.60232,-7.86518 2.65289,-11.74256 1.51871,-5.60634 2.96968,-11.22715 4.61963,-16.79751 1.94909,-6.57931 4.02413,-13.12086 5.88715,-19.72486 3.72145,-13.194947 6.20395,-26.664708 7.04638,-40.358835 0.75001,-12.189178 0.399,-24.540986 -1.94803,-36.551305 -2.19605,-11.2402061 -6.23288,-22.2475781 -12.88909,-31.637111 -0.78599,-1.108427 -1.60867,-2.190397 -2.45992,-3.249788 -0.18556,-0.23107 -0.50941,0.09701 -0.32562,0.325966 7.30039,9.0861439 11.90908,19.9859186 14.50905,31.288919 2.70157,11.742914 3.33128,23.884113 2.85221,35.894785 -0.54928,13.772092 -2.7104,27.415066 -6.28086,40.721844 -1.76354,6.572602 -3.79483,13.068645 -5.76157,19.581985 -1.79705,5.94995 -3.41206,11.93835 -5.03061,17.93769 -1.0414,3.86045 -2.13219,7.71208 -2.87902,11.64378 -0.89111,4.69336 -1.28517,9.46045 -1.42522,14.23141 -0.0476,1.61749 -0.066,3.23568 -0.0674,4.85387 0,0.29633 0.46038,0.29704 0.46073,0 m -10.35766,0 c -0.007,-12.78713 -0.84455,-25.5591 -0.77929,-38.34694 0.0642,-12.59311 1.04246,-25.307217 4.75862,-37.402556 3.64878,-11.875911 10.48315,-22.532622 12.65343,-34.889722 2.09445,-11.926358 0.57962,-24.162807 -4.10351,-35.304588 -4.52084,-10.75478322 -11.28042,-20.4868637 -14.99834,-31.592307 -0.45756,-1.367367 -0.86184,-2.750609 -1.21568,-4.148314 -0.0727,-0.286808 -0.51717,-0.1651 -0.44414,0.122767 2.8388,11.216216 9.25124,20.9772235 14.20706,31.3033816 2.61232,5.4433614 4.7371,11.0825144 5.89704,17.0218804 1.19556,6.1214 1.44427,12.425892 0.76305,18.62455 -0.68791,6.260747 -2.44051,12.262203 -4.81894,18.07845 -2.35091,5.749924 -5.13433,11.320991 -7.22912,17.175338 -4.17477,11.66883 -5.56366,24.12858 -5.86493,36.4557 -0.31045,12.7127 0.49636,25.41623 0.67804,38.12434 0.0229,1.59279 0.0349,3.18523 0.036,4.77802 0,0.29633 0.46073,0.29704 0.46073,0 m -10.35788,0 c -0.004,-10.90436 -0.45437,-21.78932 -1.11125,-32.67145 -0.49036,-8.12165 -1.0488,-16.25212 -0.91193,-24.39353 0.0692,-4.11303 0.31715,-8.221833 0.74895,-12.312997 0.61454,-5.821539 1.61925,-11.593688 2.40806,-17.392649 0.84914,-6.240639 1.50213,-12.54372 1.25377,-18.849975 -0.24412,-6.204303 -1.49542,-12.206464 -3.79976,-17.973675 -4.45277,-11.143544 -12.10981,-22.244402 -10.48738,-34.82022434 0.19579,-1.51729726 0.55033,-3.00284446 1.04457,-4.44958606 0.096,-0.2811639 -0.34854,-0.4021667 -0.44414,-0.1227667 -4.04072,11.8261692 2.26236,23.6675081 7.11376,34.1700551 2.67194,5.78485 4.88174,11.672711 5.69066,18.028003 0.80962,6.3627 0.48224,12.810419 -0.22578,19.16571 -1.17158,10.51807 -3.27378,20.886561 -3.67912,31.484711 -0.30868,8.071194 0.14146,16.137814 0.629,24.192434 0.62654,10.3505 1.17546,20.69889 1.28447,31.07055 0.0169,1.6249 0.025,3.25014 0.0254,4.87539 0,0.29633 0.46072,0.29704 0.46072,0 m -10.28516,0 c -0.004,-12.0142 -0.12982,-24.27534 -2.32339,-36.13009 -0.48014,-2.59574 -1.11267,-5.15267 -1.83198,-7.69196 -0.51435,-1.81681 -1.05163,-3.63326 -1.33738,-5.50369 -0.34819,-2.27859 -0.30798,-4.59634 -0.11818,-6.88763 0.41839,-5.060949 1.43792,-10.059104 2.73403,-14.963068 3.89854,-14.749991 10.06545,-29.020205 12.02125,-44.239743 0.43956,-3.419475 0.63818,-6.881989 0.41134,-10.326158 -0.26282,-3.992386 -1.14582,-7.941734 -2.09938,-11.818056 -2.10644,-8.562269 -4.99674,-16.9975388 -5.92137,-25.8071053 -0.22472,-2.1374805 -0.32244,-4.2841327 -0.2787,-6.4329017 0.006,-0.296686 -0.45473,-0.296686 -0.46073,0 -0.1778,8.7502989 2.165,17.2356626 4.44112,25.605669 2.11737,7.785452 4.27743,15.638638 3.89467,23.777574 -0.35348,7.519105 -2.16817,14.916855 -4.24392,22.122694 -2.14771,7.454194 -4.68347,14.78915 -6.87246,22.230997 -1.69228,5.752394 -3.12526,11.569347 -3.8474,17.529174 -0.31115,2.571394 -0.51364,5.181594 -0.29139,7.768864 0.3623,4.22064 1.97661,8.24195 2.87443,12.36063 2.26096,10.37414 2.58234,21.18007 2.74109,31.75459 0.0332,2.21685 0.0469,4.43336 0.0476,6.65021 0,0.29633 0.46073,0.29704 0.46073,0 m -10.43002,0 c 0.004,-8.78805 0.22084,-17.55845 0.73378,-26.33133 0.19403,-3.31823 0.37888,-6.63681 0.49213,-9.95892 0.21378,-6.26251 -0.0977,-12.49574 -0.76906,-18.72368 -1.40017,-12.988919 -4.06647,-25.839555 -4.61645,-38.915616 -0.26494,-6.306961 -0.0515,-12.661547 1.05022,-18.887369 0.54081,-3.055408 1.29399,-6.074833 2.29376,-9.013119 1.03682,-3.046589 2.34562,-5.989108 3.56764,-8.96373 1.20121,-2.92347 2.29447,-5.885745 3.01837,-8.967258 0.69744,-2.968273 1.10031,-6.002161 1.28623,-9.0445175 0.3877,-6.3327138 -0.1517,-12.680597 -0.87242,-18.9702715 -0.18345,-1.601611 -0.37994,-3.201458 -0.5775,-4.801658 -0.036,-0.290336 -0.49706,-0.293864 -0.46073,0 1.55928,12.6206242 3.02225,25.677988 -1.38077,37.916202 -2.15441,5.988403 -5.01791,11.647664 -6.51616,17.867136 -1.43721,5.965825 -1.97732,12.119327 -1.97132,18.246372 0.0123,13.009033 2.49026,25.816982 4.14126,38.675026 0.84349,6.569073 1.47179,13.181183 1.43333,19.810583 -0.0222,3.82023 -0.22965,7.64223 -0.44696,11.45505 -0.45156,7.92198 -0.79023,15.83196 -0.84879,23.7684 -0.012,1.6129 -0.0169,3.2258 -0.0173,4.8387 0,0.29633 0.46072,0.29704 0.46072,0 m -10.35769,0 c 0,-13.69236 -0.13229,-27.3879 -0.69603,-41.07003 -0.54363,-13.19283 -1.49896,-26.372961 -3.09951,-39.482183 -0.80433,-6.586713 -1.75189,-13.147674 -3.05153,-19.656424 -1.33455,-6.685139 -2.89172,-13.325122 -4.10986,-20.033544 -1.21249,-6.67632 -2.08421,-13.441186 -2.00907,-20.238508 0.036,-3.246261 0.1644,-6.603647 1.01494,-9.7528949 0.89782,-3.3249305 2.85433,-5.7209971 5.32236,-8.032397 4.01109,-3.7567305 7.21748,-7.9763055 9.26112,-13.1166301 2.01154,-5.057775 2.8441,-10.606616 2.31105,-16.02881 -0.12629,-1.286934 -0.33267,-2.562578 -0.60678,-3.826228 -0.0624,-0.289278 -0.50694,-0.166511 -0.44379,0.122767 2.39889,11.071577 -1.18322,23.146455 -9.30275,31.0645511 -2.15089,2.09761666 -4.52508,4.0103777 -5.88751,6.7535776 -1.28552,2.5879777 -1.71908,5.4955717 -1.93745,8.3481333 -0.50306,6.571545 0.01,13.17625 0.97825,19.681825 0.99377,6.673497 2.46733,13.261975 3.86503,19.858919 1.40406,6.627636 2.60668,13.266914 3.51049,19.982391 1.76636,13.130389 2.86244,26.343327 3.50908,39.574255 0.66076,13.51738 0.86466,27.05241 0.90382,40.58391 0.005,1.75577 0.007,3.51155 0.007,5.26732 0,0.29633 0.46073,0.29704 0.46073,0 m -10.35766,0 c -0.004,-10.22562 -0.23107,-20.49498 -1.62666,-30.63875 -1.22379,-8.89423 -3.47169,-17.60961 -6.7303,-25.97644 -3.52813,-9.060031 -9.27982,-16.988359 -14.91438,-24.827434 -5.69313,-7.920566 -11.48821,-16.001294 -14.79691,-25.264885 -1.94522,-5.445125 -2.86597,-11.171061 -3.41701,-16.908639 -0.58173,-6.06178 -0.89888,-12.152841 -1.31022,-18.228027 l -0.31608,-4.671483 c -0.0201,-0.294217 -0.48084,-0.296334 -0.46073,0 0.41698,6.160205 0.80504,12.32288 1.25836,18.480616 0.42721,5.803194 1.01282,11.632494 2.50507,17.272352 2.52518,9.541933 7.88212,17.921817 13.52656,25.897064 5.62222,7.942438 11.66283,15.708488 15.83514,24.553332 2.00236,4.245324 3.53553,8.738304 4.85739,13.237984 1.24601,4.23968 2.22956,8.5538 2.96228,12.91131 1.6517,9.82239 2.05563,19.81235 2.14736,29.75681 0.0134,1.46861 0.019,2.93758 0.0194,4.40619 0,0.29633 0.46073,0.29704 0.46073,0 m -10.3577,0 c 0.14005,-5.85082 0.75988,-11.76867 2.74849,-17.30798 1.50425,-4.18959 3.83399,-7.95867 6.4763,-11.51855 7.1702,-9.66011 15.51093,-18.77166 20.62374,-29.772322 2.77495,-5.971117 4.30741,-12.409664 3.91124,-19.015427 -0.42333,-7.05485 -2.73297,-13.871222 -5.77391,-20.203583 -3.23321,-6.73347 -7.32367,-13.002331 -11.13896,-19.409833 -3.82658,-6.426553 -7.21677,-13.066889 -9.88166,-20.062825 -2.51565,-6.603647 -4.57799,-13.4986889 -5.69665,-20.4850998 -1.01635,-6.3489416 -1.1751,-13.2411602 1.49048,-19.2313272 0.63042,-1.417108 1.42029,-2.748491 2.34421,-3.992738 0.1771,-0.238125 -0.2226,-0.467784 -0.39758,-0.232481 -3.72145,5.010855 -4.7879,11.303353 -4.52684,17.421224 0.28857,6.75569441 1.98755,13.4560025 3.99873,19.882203 2.177,6.954308 4.99675,13.708239 8.41728,20.142905 3.53801,6.655858 7.72654,12.934244 11.44764,19.484975 3.67524,6.469238 6.89857,13.28808 8.42857,20.611041 1.47214,7.044619 1.0421,14.170025 -1.40194,20.944769 -2.27718,6.312599 -5.94713,12.027249 -9.8619,17.436039 -3.47698,4.80448 -7.16104,9.4548 -10.78442,14.14815 -2.66136,3.44664 -5.20841,7.00017 -7.00758,10.98585 -2.13924,4.73816 -3.16724,9.86296 -3.6075,15.02234 -0.14641,1.71415 -0.22719,3.43288 -0.26847,5.15267 -0.007,0.29669 0.45332,0.29633 0.46073,0 m -10.35766,0 c 0.005,-5.48463 0.20496,-10.99008 1.03928,-16.41828 0.61101,-3.9751 1.60232,-7.86518 2.65289,-11.74256 1.51871,-5.60634 2.96968,-11.22715 4.61998,-16.79751 1.94874,-6.57931 4.02378,-13.12086 5.8868,-19.72486 3.72145,-13.194947 6.20395,-26.664708 7.04638,-40.358835 0.75036,-12.189178 0.399,-24.540986 -1.94803,-36.551305 -2.19605,-11.2402061 -6.23288,-22.2475781 -12.88909,-31.637111 -0.78599,-1.108427 -1.60867,-2.190397 -2.45992,-3.249788 -0.18521,-0.23107 -0.50941,0.09701 -0.32526,0.325966 7.30003,9.0861439 11.90872,19.9859186 14.50869,31.288919 2.70157,11.742914 3.33163,23.884113 2.85221,35.894785 -0.54928,13.772092 -2.71004,27.415066 -6.28086,40.721844 -1.76354,6.572602 -3.79483,13.068645 -5.76157,19.581985 -1.79669,5.94995 -3.41206,11.93835 -5.03061,17.93769 -1.0414,3.86045 -2.13219,7.71208 -2.87902,11.64378 -0.89111,4.69336 -1.28517,9.46045 -1.42522,14.23141 -0.0476,1.61749 -0.066,3.23568 -0.0674,4.85387 0,0.29633 0.46038,0.29704 0.46073,0 m -10.3577,0 c 0.004,-9.69327 0.0459,-19.43558 0.89747,-29.09852 0.23495,-2.66418 0.53128,-5.33435 1.0675,-7.95655 0.31398,-1.53705 0.69427,-3.10833 1.38607,-4.52508 0.73378,-1.50283 1.8168,-2.53753 3.52989,-2.65042 1.46403,-0.0967 2.92947,0.16369 4.35716,-0.2988 2.24261,-0.72637 3.66395,-2.83104 4.67219,-4.83906 0.90452,-1.80093 1.74449,-3.77966 2.04858,-5.78026 0.43215,-2.843737 0.248,-5.787668 0.0332,-8.64164 -0.59549,-7.925152 -1.92722,-15.778338 -2.85044,-23.667507 -0.40676,-3.475214 -0.78211,-6.97477 -0.81174,-10.476442 -0.0113,-1.305278 0.0187,-2.624314 0.21625,-3.916539 0.30515,-1.993547 1.05833,-3.915833 1.50354,-5.883275 2.63137,-11.633552 1.82668,-23.974071 -2.31281,-35.160302 -3.97616,-10.7438472 -10.55018,-20.2723748 -14.81808,-30.885341 -1.03646,-2.577041 -1.92194,-5.21088 -2.6035,-7.904691 -0.0727,-0.286808 -0.51717,-0.1651 -0.44415,0.122767 2.8,11.06311 9.0798,20.7147569 14.00493,30.8842816 2.5781,5.3237704 4.72263,10.8306314 5.93583,16.6341784 1.25413,5.997927 1.59915,12.182474 1.04176,18.284471 -0.28258,3.09492 -0.80151,6.16832 -1.55293,9.183511 -0.42263,1.695803 -1.04951,3.344686 -1.26541,5.084586 -0.36337,2.929114 -0.13477,5.941836 0.11359,8.870597 0.67098,7.901164 1.99743,15.731067 2.88149,23.608242 0.38629,3.440641 0.73483,6.910563 0.70732,10.376605 -0.0198,2.439458 -0.381,4.612918 -1.27247,6.881278 -0.94051,2.39325 -2.25178,5.31107 -4.69865,6.51686 -1.37971,0.67945 -2.86526,0.51682 -4.34904,0.52882 -1.56246,0.0127 -2.8702,0.49283 -3.81353,1.79317 -1.91029,2.63313 -2.29976,6.45865 -2.70933,9.57156 -1.05763,8.04228 -1.18992,16.22249 -1.29893,24.32121 -0.0402,3.00708 -0.0557,6.01486 -0.0564,9.02229 0,0.29633 0.46073,0.29704 0.46073,0 m -10.35784,0 c -0.004,-10.90436 -0.45437,-21.78932 -1.11125,-32.67145 -0.49036,-8.12165 -1.0488,-16.25212 -0.91193,-24.39353 0.0692,-4.11303 0.31715,-8.221833 0.74895,-12.312997 0.61454,-5.821539 1.6196,-11.593688 2.40806,-17.392649 0.84914,-6.240639 1.50213,-12.54372 1.25377,-18.849975 -0.24412,-6.204303 -1.49542,-12.206464 -3.79976,-17.973675 -4.45277,-11.143544 -12.10981,-22.244402 -10.48738,-34.82022434 0.19579,-1.51729726 0.55033,-3.00284446 1.04457,-4.44958606 0.096,-0.2811639 -0.34854,-0.4021667 -0.44414,-0.1227667 -4.04072,11.8261692 2.26236,23.6675081 7.11376,34.1700551 2.67194,5.78485 4.88209,11.672711 5.69066,18.028003 0.80962,6.3627 0.48224,12.810419 -0.22578,19.16571 -1.17158,10.51807 -3.27378,20.886561 -3.67912,31.484711 -0.30868,8.071194 0.14146,16.137814 0.629,24.192434 0.62654,10.3505 1.17546,20.69889 1.28447,31.07055 0.0173,1.6249 0.025,3.25014 0.0254,4.87539 0,0.29633 0.46072,0.29704 0.46072,0 m -10.28516,0 c -0.30762,-11.39543 -0.38947,-22.80179 0.049,-34.1951 0.44097,-11.46281 1.40687,-22.91715 3.22474,-34.247663 1.78082,-11.098741 4.29965,-22.073305 5.73122,-33.228491 1.40335,-10.931172 1.55611,-21.910674 -0.80962,-32.720491 -2.28882,-10.459508 -6.21771,-20.6470249 -6.86294,-31.4159191 -0.0797,-1.3296195 -0.10336,-2.6610019 -0.0762,-3.9927379 0.006,-0.296686 -0.45473,-0.296686 -0.46073,0 -0.21625,10.6478905 3.28048,20.8170625 5.87728,31.00846 1.36066,5.341056 2.407,10.731147 2.76613,16.239066 0.36618,5.610225 0.139,11.244086 -0.42757,16.832439 -1.15146,11.363677 -3.67453,22.523802 -5.61586,33.76436 -1.91135,11.068756 -3.05047,22.245107 -3.61633,33.460967 -0.57467,11.39719 -0.59231,22.81555 -0.34466,34.22191 0.031,1.42452 0.0663,2.84904 0.10477,4.2732 0.008,0.29598 0.46884,0.29704 0.46073,0 m -10.43002,0 c 0.004,-8.78805 0.22084,-17.55845 0.73378,-26.33133 0.19403,-3.31823 0.37888,-6.63681 0.49213,-9.95892 0.21378,-6.26251 -0.0977,-12.49574 -0.76906,-18.72368 -1.40017,-12.988919 -4.06647,-25.839555 -4.61645,-38.915616 -0.26494,-6.306961 -0.0515,-12.661547 1.05022,-18.887369 0.54081,-3.055408 1.29399,-6.074833 2.29376,-9.013119 1.03681,-3.046589 2.34562,-5.989108 3.56764,-8.96373 1.20121,-2.92347 2.29447,-5.885745 3.01837,-8.967258 0.69744,-2.968273 1.10031,-6.002161 1.28623,-9.0445175 0.3877,-6.3327138 -0.1517,-12.680597 -0.87242,-18.9702715 -0.18345,-1.601611 -0.37994,-3.201458 -0.5775,-4.801658 -0.036,-0.290336 -0.49706,-0.293864 -0.46073,0 1.55928,12.6206242 3.02225,25.677988 -1.38077,37.916202 -2.15441,5.988403 -5.01791,11.647664 -6.51616,17.867136 -1.43721,5.965825 -1.97732,12.119327 -1.97132,18.246372 0.0123,13.009033 2.49026,25.816982 4.14126,38.675026 0.84349,6.569073 1.47179,13.181183 1.43333,19.810583 -0.0222,3.82023 -0.22965,7.64223 -0.44697,11.45505 -0.45155,7.92198 -0.79022,15.83196 -0.84878,23.7684 -0.012,1.6129 -0.0169,3.2258 -0.0173,4.8387 0,0.29633 0.46072,0.29704 0.46072,0 m -10.35769,0 c 0,-13.69236 -0.13229,-27.3879 -0.69603,-41.07003 -0.54363,-13.19283 -1.49896,-26.372961 -3.09951,-39.482183 -0.80433,-6.586713 -1.75189,-13.147674 -3.05117,-19.656424 -1.33456,-6.685139 -2.89208,-13.325122 -4.11022,-20.033544 -1.2125,-6.67632 -2.08421,-13.441186 -2.00907,-20.238508 0.036,-3.246261 0.1644,-6.603647 1.01494,-9.7528949 0.89782,-3.3249305 2.85433,-5.7209971 5.32236,-8.032397 4.01109,-3.7567305 7.21748,-7.9763055 9.26112,-13.1166301 2.01154,-5.057775 2.8441,-10.606616 2.3114,-16.02881 -0.12664,-1.286934 -0.33302,-2.562578 -0.60713,-3.826228 -0.0624,-0.289278 -0.50658,-0.166511 -0.44379,0.122767 2.39889,11.071577 -1.18322,23.146455 -9.30275,31.0645511 -2.15089,2.09761666 -4.52508,4.0103777 -5.88751,6.7535776 -1.28517,2.5879777 -1.71908,5.4955717 -1.93745,8.3481333 -0.50307,6.571545 0.01,13.17625 0.97825,19.681825 0.99377,6.673497 2.46733,13.261975 3.86503,19.858919 1.40406,6.627636 2.60668,13.266914 3.51049,19.982391 1.76636,13.130389 2.86244,26.343327 3.50908,39.574255 0.66076,13.51738 0.86466,27.05241 0.90382,40.58391 0.005,1.75577 0.007,3.51155 0.007,5.26732 0,0.29633 0.46073,0.29704 0.46073,0 m -10.35766,0 c -0.004,-10.22562 -0.23107,-20.49498 -1.62666,-30.63875 -1.22379,-8.89423 -3.47169,-17.60961 -6.72994,-25.97644 -3.52849,-9.060031 -9.28018,-16.988359 -14.91474,-24.827434 -5.69313,-7.920566 -11.48821,-16.001294 -14.79691,-25.264885 -1.94522,-5.445125 -2.86597,-11.171061 -3.41701,-16.908639 -0.58173,-6.06178 -0.89888,-12.152841 -1.31022,-18.228027 l -0.31608,-4.671483 c -0.0198,-0.294217 -0.48049,-0.296334 -0.46073,0 0.41698,6.160205 0.80504,12.32288 1.25836,18.480616 0.42721,5.803194 1.01282,11.632494 2.50542,17.272352 2.52483,9.541933 7.88176,17.921817 13.52621,25.897064 5.62222,7.942438 11.66283,15.708488 15.83513,24.553332 2.00237,4.245324 3.53554,8.738304 4.8574,13.237984 1.24601,4.23968 2.22956,8.5538 2.96228,12.91131 1.6517,9.82239 2.05563,19.81235 2.14736,29.75681 0.0138,1.46861 0.019,2.93758 0.0194,4.40619 0,0.29633 0.46073,0.29704 0.46073,0 m -10.3577,0 c 0.30762,-12.23433 5.80849,-26.7716 18.88666,-30.17943 1.32786,-0.34572 2.69029,-0.55175 4.06118,-0.61348 1.20826,-0.054 2.41124,0.13053 3.61386,0.0755 1.5822,-0.0727 3.03142,-0.73201 4.0894,-1.91664 2.71956,-3.04553 3.00319,-7.95902 3.19122,-11.82123 0.27446,-5.63845 -0.0977,-11.28995 -0.28998,-16.924509 -0.0893,-2.608792 -0.1584,-5.222522 -0.066,-7.832019 0.0473,-1.339145 0.19579,-2.666648 0.27693,-4.00297 0.13194,-2.16923 0.0582,-4.349397 -0.18697,-6.508397 -2.03729,-17.943336 -14.63534,-32.022344 -22.32484,-47.704021 -3.94829,-8.051447 -6.96736,-16.557625 -8.98278,-25.2955779 -1.72861,-7.4954693 -2.76084,-15.8058541 0.0363,-23.1813791 0.6918,-1.823861 1.63583,-3.5306 2.79859,-5.095522 0.17674,-0.238125 -0.22296,-0.467784 -0.39794,-0.232481 -4.60375,6.199011 -5.10681,14.2232935 -4.16066,21.6376239 1.0668,8.3608332 3.62938,16.6408811 6.76451,24.4415031 3.3521,8.338961 7.82744,16.026694 12.48446,23.687969 4.70641,7.742061 9.38142,15.645341 11.85509,24.430919 1.20403,4.276725 1.87184,8.717491 1.68699,13.166372 -0.11148,2.684638 -0.36971,5.330119 -0.34819,8.022872 0.0455,5.704063 0.47131,11.398947 0.4826,17.104427 0.006,2.62502 -0.0625,5.26133 -0.38418,7.86906 -0.26317,2.13042 -0.6791,4.34164 -1.66511,6.26886 -0.77541,1.51624 -1.97026,2.80247 -3.66183,3.24626 -0.99872,0.26212 -1.97556,0.14887 -2.99121,0.10337 -1.32574,-0.06 -2.655,0.0123 -3.96734,0.21166 -12.35604,1.87431 -19.2479,14.15697 -20.82588,25.54782 -0.25259,1.82174 -0.38946,3.65513 -0.43568,5.49345 -0.007,0.29669 0.45332,0.29633 0.46073,0 m -10.35766,0 c -0.009,-6.29497 -0.7807,-12.43471 -1.57057,-18.66159 -0.28681,-2.26272 -0.48507,-4.53778 -0.39476,-6.8199 0.11219,-2.83563 0.74613,-5.53014 1.38466,-8.28111 0.67133,-2.89348 1.04739,-5.86457 0.79092,-8.83461 -0.18944,-2.19392 -0.7239,-4.33423 -1.0033,-6.51545 -0.69144,-5.39186 0.53658,-10.794292 2.41759,-15.830547 1.98543,-5.31495 4.47569,-10.4394 6.91797,-15.555031 2.66559,-5.583766 5.37175,-11.153422 7.78298,-16.853252 2.03024,-4.798483 3.99945,-9.7663 4.89233,-14.923205 0.4385,-2.534003 0.38876,-5.064125 0.32843,-7.628467 -0.0885,-3.7719 -0.31538,-7.542036 -0.70802,-11.294886 -1.51271,-14.460008 -5.50157,-28.9789302 -13.77668,-41.093671 -0.98178,-1.437217 -2.02283,-2.831747 -3.11291,-4.18853 -0.18556,-0.23107 -0.50976,0.09701 -0.32561,0.325966 9.33273,11.6162661 14.18625,26.078038 16.23483,40.690447 0.52811,3.768372 0.87383,7.562144 1.07033,11.362266 0.16474,3.177469 0.40357,6.45548 0.1217,9.631186 -0.44061,4.958997 -2.25777,9.808633 -4.09504,14.394038 -4.41784,11.025717 -10.24502,21.420314 -14.7507,32.405814 -2.01012,4.901141 -3.66254,10.050996 -3.66395,15.405452 0,2.24966 0.39406,4.439 0.78493,6.64562 0.43357,2.44652 0.63253,4.88033 0.393,7.36142 -0.31574,3.26672 -1.38959,6.37646 -1.85208,9.61672 -0.3235,2.26624 -0.3863,4.55013 -0.22225,6.83295 0.3817,5.32342 1.43792,10.56675 1.73637,15.90534 0.10971,1.96603 0.15628,3.93418 0.1591,5.90303 0,0.29633 0.46108,0.29704 0.46073,0 m -10.3577,0 c -0.006,-11.14319 -0.64876,-22.25851 -1.37336,-33.37383 -0.71473,-10.96892 -1.22379,-21.92479 -1.36455,-32.917694 -0.15663,-12.260086 0.13653,-24.52123 1.75296,-36.688888 1.58891,-11.961283 4.06117,-23.88235 4.01425,-35.998149 -0.0427,-11.0560563 -2.51812,-22.0045144 -7.39633,-31.937677 -0.61666,-1.256242 -1.27283,-2.492375 -1.96039,-3.711223 -0.1457,-0.25788 -0.54363,-0.02611 -0.39758,0.232481 5.52132,9.7902881 8.70091,20.8124767 9.21208,32.042805 0.55281,12.142258 -1.76424,24.151872 -3.48156,36.114566 -1.7145,11.94188 -2.2987,23.927505 -2.23943,35.984038 0.0543,11.096977 0.45649,22.172781 1.16487,33.246121 0.69391,10.84968 1.43475,21.69548 1.57868,32.57057 0.0198,1.47849 0.0289,2.95804 0.0296,4.43688 0,0.29633 0.46073,0.29704 0.46073,0"
       inkscape:label="fili"
       mask="url(#mask21569)" />
  </g>
</svg>
