<?xml version="1.0" encoding="UTF-8" standalone="no"?>
<!-- Created with Inkscape (http://www.inkscape.org/) -->

<svg
   width="698.49957mm"
   height="223.37599mm"
   viewBox="0 0 698.49957 223.37599"
   version="1.1"
   id="svg19362"
   sodipodi:docname="header.svg"
   inkscape:version="1.1.2 (0a00cf5339, 2022-02-04)"
   inkscape:export-filename="/home/hawk/stanzino/graftholders/nextjs/nextjs-blog/public/images/header.png"
   inkscape:export-xdpi="300"
   inkscape:export-ydpi="300"
   xmlns:inkscape="http://www.inkscape.org/namespaces/inkscape"
   xmlns:sodipodi="http://sodipodi.sourceforge.net/DTD/sodipodi-0.dtd"
   xmlns="http://www.w3.org/2000/svg"
   xmlns:svg="http://www.w3.org/2000/svg">
  <sodipodi:namedview
     id="namedview19364"
     pagecolor="#505050"
     bordercolor="#eeeeee"
     borderopacity="1"
     inkscape:pageshadow="0"
     inkscape:pageopacity="0"
     inkscape:pagecheckerboard="0"
     inkscape:document-units="mm"
     showgrid="false"
     inkscape:zoom="0.38529391"
     inkscape:cx="1352.2145"
     inkscape:cy="529.46593"
     inkscape:window-width="1920"
     inkscape:window-height="1011"
     inkscape:window-x="0"
     inkscape:window-y="0"
     inkscape:window-maximized="1"
     inkscape:current-layer="g9414" />
  <defs
     id="defs19359">
    <rect
       x="911.87274"
       y="355.85172"
       width="418.12018"
       height="108.45435"
       id="rect53870" />
    <mask
       maskUnits="userSpaceOnUse"
       id="mask17816">
      <g
         id="g17822"
         style="fill:#ffffff"
         transform="translate(-0.21829945,0.07398376)">
        <rect
           style="mix-blend-mode:difference;fill:#ffffff;fill-opacity:1;stroke:none;stroke-width:0.662572;stroke-opacity:1"
           id="rect17818"
           width="1979.999"
           height="633.19202"
           x="-2770.0747"
           y="-4889.501"
           transform="scale(1,-1)"
           inkscape:label="rettangolo" />
        <path
           id="path17820"
           style="opacity:1;fill:#000000;fill-opacity:1;stroke:none;stroke-width:1.54037;stroke-opacity:1;filter:url(#filter16391)"
           d="M -2099.7363,-259.4082 V 135.35938 H -849.94922 V -259.4082 Z"
           transform="matrix(0.75000002,0,0,-0.75000002,-548.57469,4519.7508)"
           inkscape:label="opacità" />
      </g>
    </mask>
    <filter
       inkscape:collect="always"
       style="color-interpolation-filters:sRGB"
       id="filter16391"
       x="-0.12229039"
       y="-0.3871568"
       width="1.2445808"
       height="1.7743136">
      <feGaussianBlur
         inkscape:collect="always"
         stdDeviation="63.682063"
         id="feGaussianBlur16393" />
    </filter>
    <mask
       maskUnits="userSpaceOnUse"
       id="mask15942">
      <path
         d="m -2774.8562,4259.3915 h 1979.99895 v 633.192 H -2774.8562 Z"
         id="path15944"
         inkscape:label="maschera intera"
         style="display:inline;opacity:1;mix-blend-mode:normal;fill:#ffffff;fill-opacity:1;stroke:none;stroke-width:0.999998;stroke-opacity:1"
         mask="none"
         sodipodi:nodetypes="ccccc" />
    </mask>
    <meshgradient
       inkscape:collect="always"
       id="meshgradient25753"
       gradientUnits="userSpaceOnUse"
       x="914.21026"
       y="285.70444">
      <meshrow
         id="meshrow29857">
        <meshpatch
           id="meshpatch29859">
          <stop
             path="c 396.965,-14.2753  706.514,-3.30585  1123.13,-3.30665"
             style="stop-color:#ffffff;stop-opacity:0"
             id="stop29861" />
          <stop
             path="c -0.0199709,131.59  -1.36479,135.756  -1.3588,267.344"
             style="stop-color:#000000;stop-opacity:1"
             id="stop29863" />
          <stop
             path="c -416.601,0.0061855  -692.041,10.496  -1108.63,10.4952"
             style="stop-color:#ffffff;stop-opacity:1"
             id="stop29865" />
          <stop
             path="c -1.33572,-125.928  -13.1045,-142.935  -13.1412,-274.533"
             style="stop-color:#000000;stop-opacity:1"
             id="stop29867" />
        </meshpatch>
      </meshrow>
    </meshgradient>
  </defs>
  <g
     inkscape:label="Layer 1"
     inkscape:groupmode="layer"
     id="layer1"
     transform="translate(-166.02561,-103.95752)"
     style="display:inline">
    <g
       id="g2659"
       clip-path="none"
       inkscape:label="grafica"
       style="display:inline;mix-blend-mode:difference"
       transform="matrix(0.35277777,0,0,-0.35277777,1143.3234,1828.8908)"
       mask="none">
      <g
         id="g9416"
         inkscape:label="grafica"
         transform="translate(4.5631563,-3.008744)"
         mask="none"
         style="display:inline">
        <g
           id="g9230"
           transform="translate(-338.79072,555.41671)"
           inkscape:label="pentagono">
          <g
             id="g9224"
             transform="matrix(0.99998361,0,0,1.0000128,-2016.7762,4001.2149)">
            <path
               d="m 0,0 c 0,40.916 -33.169,74.085 -74.085,74.085 -40.916,0 -74.085,-33.169 -74.085,-74.085 0,-40.916 33.169,-74.085 74.085,-74.085 C -33.169,-74.085 0,-40.916 0,0 Z"
               style="fill:none;stroke:#231f20;stroke-width:5.223;stroke-linecap:butt;stroke-linejoin:miter;stroke-miterlimit:10;stroke-dasharray:none;stroke-opacity:1"
               id="path9222" />
          </g>
          <g
             id="g9228"
             transform="matrix(0.99998361,0,0,1.0000128,-2280.9198,4062.9707)">
            <path
               d="m 0,0 c 0,0 34.325,-81.479 43.399,-109.409 9.075,-27.929 29.199,-114.023 29.199,-114.023 0,0 88.098,7.466 117.465,7.466 29.366,0 117.465,-7.466 117.465,-7.466 0,0 20.123,86.094 29.198,114.023 C 345.801,-81.479 380.125,0 380.125,0 c 0,0 -75.662,45.743 -99.419,63.004 -23.758,17.262 -90.643,75.085 -90.643,75.085 0,0 -66.885,-57.823 -90.643,-75.085 C 75.662,45.743 0,0 0,0 Z"
               style="fill:none;stroke:#231f20;stroke-width:15.669;stroke-linecap:butt;stroke-linejoin:miter;stroke-miterlimit:10;stroke-dasharray:none;stroke-opacity:1"
               id="path9226" />
          </g>
        </g>
        <g
           id="g9322"
           inkscape:label="punte"
           transform="translate(-170.97443,1136.2245)">
          <path
             d="m -2251.9597,3629.3952 18.487,29.186 3.557,-2.585 z"
             style="fill:#231f20;fill-opacity:1;fill-rule:nonzero;stroke:none"
             id="path9232" />
          <path
             d="m -2228.2014,3612.1342 18.486,29.185 3.557,-2.584 z"
             style="fill:#231f20;fill-opacity:1;fill-rule:nonzero;stroke:none"
             id="path9234" />
          <path
             d="m -2204.444,3594.8732 18.487,29.185 3.557,-2.584 z"
             style="fill:#231f20;fill-opacity:1;fill-rule:nonzero;stroke:none"
             id="path9236" />
          <path
             d="m -2180.6862,3577.6122 18.487,29.185 3.557,-2.584 z"
             style="fill:#231f20;fill-opacity:1;fill-rule:nonzero;stroke:none"
             id="path9238" />
          <path
             d="m -2156.9284,3560.3512 18.487,29.186 3.557,-2.585 z"
             style="fill:#231f20;fill-opacity:1;fill-rule:nonzero;stroke:none"
             id="path9240" />
          <path
             d="m -2133.1701,3543.0902 18.486,29.185 3.558,-2.584 z"
             style="fill:#231f20;fill-opacity:1;fill-rule:nonzero;stroke:none"
             id="path9242" />
          <path
             d="m -2109.4123,3525.8292 18.486,29.185 3.557,-2.584 z"
             style="fill:#231f20;fill-opacity:1;fill-rule:nonzero;stroke:none"
             id="path9244" />
          <path
             d="m -2085.6549,3508.5682 18.487,29.185 3.557,-2.584 z"
             style="fill:#231f20;fill-opacity:1;fill-rule:nonzero;stroke:none"
             id="path9246" />
          <path
             d="m -2061.8966,3491.3062 18.487,29.186 3.557,-2.585 z"
             style="fill:#231f20;fill-opacity:1;fill-rule:nonzero;stroke:none"
             id="path9248" />
          <path
             d="m -2455.6711,3493.8212 -21.797,26.804 3.581,2.551 z"
             style="fill:#231f20;fill-opacity:1;fill-rule:nonzero;stroke:none"
             id="path9250" />
          <path
             d="m -2431.7541,3510.8622 -21.797,26.803 3.581,2.551 z"
             style="fill:#231f20;fill-opacity:1;fill-rule:nonzero;stroke:none"
             id="path9252" />
          <path
             d="m -2407.8381,3527.9032 -21.797,26.803 3.581,2.552 z"
             style="fill:#231f20;fill-opacity:1;fill-rule:nonzero;stroke:none"
             id="path9254" />
          <path
             d="m -2383.9216,3544.9432 -21.797,26.803 3.582,2.552 z"
             style="fill:#231f20;fill-opacity:1;fill-rule:nonzero;stroke:none"
             id="path9256" />
          <path
             d="m -2360.0046,3561.9842 -21.797,26.803 3.581,2.552 z"
             style="fill:#231f20;fill-opacity:1;fill-rule:nonzero;stroke:none"
             id="path9258" />
          <path
             d="m -2336.0881,3579.0242 -21.797,26.803 3.581,2.552 z"
             style="fill:#231f20;fill-opacity:1;fill-rule:nonzero;stroke:none"
             id="path9260" />
          <path
             d="m -2312.1721,3596.0652 -21.797,26.803 3.582,2.552 z"
             style="fill:#231f20;fill-opacity:1;fill-rule:nonzero;stroke:none"
             id="path9262" />
          <path
             d="m -2288.2551,3613.1052 -21.797,26.803 3.581,2.552 z"
             style="fill:#231f20;fill-opacity:1;fill-rule:nonzero;stroke:none"
             id="path9264" />
          <path
             d="m -2264.3386,3630.1462 -21.797,26.803 3.581,2.552 z"
             style="fill:#231f20;fill-opacity:1;fill-rule:nonzero;stroke:none"
             id="path9266" />
          <path
             d="m -2387.9308,3254.5232 -32.041,-12.921 -1.381,4.174 z"
             style="fill:#231f20;fill-opacity:1;fill-rule:nonzero;stroke:none"
             id="path9268" />
          <path
             d="m -2397.1589,3282.4012 -32.04,-12.92 -1.381,4.174 z"
             style="fill:#231f20;fill-opacity:1;fill-rule:nonzero;stroke:none"
             id="path9270" />
          <path
             d="m -2406.3864,3310.2802 -32.04,-12.921 -1.381,4.174 z"
             style="fill:#231f20;fill-opacity:1;fill-rule:nonzero;stroke:none"
             id="path9272" />
          <path
             d="m -2415.6139,3338.1592 -32.041,-12.921 -1.381,4.174 z"
             style="fill:#231f20;fill-opacity:1;fill-rule:nonzero;stroke:none"
             id="path9274" />
          <path
             d="m -2424.842,3366.0382 -32.04,-12.921 -1.381,4.174 z"
             style="fill:#231f20;fill-opacity:1;fill-rule:nonzero;stroke:none"
             id="path9276" />
          <path
             d="m -2434.069,3393.9172 -32.041,-12.921 -1.381,4.174 z"
             style="fill:#231f20;fill-opacity:1;fill-rule:nonzero;stroke:none"
             id="path9278" />
          <path
             d="m -2443.297,3421.7962 -32.041,-12.921 -1.381,4.174 z"
             style="fill:#231f20;fill-opacity:1;fill-rule:nonzero;stroke:none"
             id="path9280" />
          <path
             d="m -2452.5246,3449.6752 -32.041,-12.921 -1.381,4.174 z"
             style="fill:#231f20;fill-opacity:1;fill-rule:nonzero;stroke:none"
             id="path9282" />
          <path
             d="m -2461.7521,3477.5542 -32.041,-12.921 -1.381,4.174 z"
             style="fill:#231f20;fill-opacity:1;fill-rule:nonzero;stroke:none"
             id="path9284" />
          <path
             d="m -2139.237,3248.6452 2.895,-34.426 -4.396,-0.089 z"
             style="fill:#231f20;fill-opacity:1;fill-rule:nonzero;stroke:none"
             id="path9286" />
          <path
             d="m -2168.5978,3248.0512 2.895,-34.426 -4.396,-0.089 z"
             style="fill:#231f20;fill-opacity:1;fill-rule:nonzero;stroke:none"
             id="path9288" />
          <path
             d="m -2197.9582,3247.4572 2.896,-34.426 -4.397,-0.089 z"
             style="fill:#231f20;fill-opacity:1;fill-rule:nonzero;stroke:none"
             id="path9290" />
          <path
             d="m -2227.3185,3246.8632 2.896,-34.426 -4.397,-0.089 z"
             style="fill:#231f20;fill-opacity:1;fill-rule:nonzero;stroke:none"
             id="path9292" />
          <path
             d="m -2256.6784,3246.2702 2.895,-34.426 -4.396,-0.089 z"
             style="fill:#231f20;fill-opacity:1;fill-rule:nonzero;stroke:none"
             id="path9294" />
          <path
             d="m -2286.0388,3245.6762 2.895,-34.426 -4.396,-0.089 z"
             style="fill:#231f20;fill-opacity:1;fill-rule:nonzero;stroke:none"
             id="path9296" />
          <path
             d="m -2315.3996,3245.0822 2.896,-34.426 -4.397,-0.089 z"
             style="fill:#231f20;fill-opacity:1;fill-rule:nonzero;stroke:none"
             id="path9298" />
          <path
             d="m -2344.7595,3244.4882 2.895,-34.426 -4.396,-0.089 z"
             style="fill:#231f20;fill-opacity:1;fill-rule:nonzero;stroke:none"
             id="path9300" />
          <path
             d="m -2374.1198,3243.8952 2.895,-34.426 -4.396,-0.089 z"
             style="fill:#231f20;fill-opacity:1;fill-rule:nonzero;stroke:none"
             id="path9302" />
          <path
             d="m -2058.5885,3479.1052 33.535,-8.301 -1.326,-4.193 z"
             style="fill:#231f20;fill-opacity:1;fill-rule:nonzero;stroke:none"
             id="path9304" />
          <path
             d="m -2067.445,3451.1062 33.536,-8.301 -1.327,-4.193 z"
             style="fill:#231f20;fill-opacity:1;fill-rule:nonzero;stroke:none"
             id="path9306" />
          <path
             d="m -2076.3009,3423.1072 33.535,-8.301 -1.326,-4.193 z"
             style="fill:#231f20;fill-opacity:1;fill-rule:nonzero;stroke:none"
             id="path9308" />
          <path
             d="m -2085.1574,3395.1082 33.535,-8.303 -1.326,-4.192 z"
             style="fill:#231f20;fill-opacity:1;fill-rule:nonzero;stroke:none"
             id="path9310" />
          <path
             d="m -2094.0139,3367.1092 33.536,-8.302 -1.326,-4.192 z"
             style="fill:#231f20;fill-opacity:1;fill-rule:nonzero;stroke:none"
             id="path9312" />
          <path
             d="m -2102.8703,3339.1102 33.536,-8.303 -1.326,-4.192 z"
             style="fill:#231f20;fill-opacity:1;fill-rule:nonzero;stroke:none"
             id="path9314" />
          <path
             d="m -2111.7268,3311.1112 33.536,-8.302 -1.326,-4.192 z"
             style="fill:#231f20;fill-opacity:1;fill-rule:nonzero;stroke:none"
             id="path9316" />
          <path
             d="m -2120.5827,3283.1112 33.535,-8.302 -1.326,-4.192 z"
             style="fill:#231f20;fill-opacity:1;fill-rule:nonzero;stroke:none"
             id="path9318" />
          <path
             d="m -2129.4392,3255.1122 33.535,-8.302 -1.326,-4.192 z"
             style="fill:#231f20;fill-opacity:1;fill-rule:nonzero;stroke:none"
             id="path9320" />
        </g>
        <g
           id="g9414"
           clip-path="none"
           style="display:inline"
           mask="none"
           transform="translate(-2770.2931,1140.5527)"
           inkscape:label="capelli">
          <path
             id="path9412"
             style="fill:#231f20;fill-opacity:1;fill-rule:nonzero;stroke:none;stroke-width:1.33333"
             d="M 20.042969,4.0117188 C 39.456551,25.975794 59.609335,47.309959 80.017578,68.314453 c 13.877333,14.282666 28.026902,28.278862 40.740232,43.630857 9.28667,11.216 17.82842,23.005 26.09375,34.98633 23.95467,34.72667 47.61152,69.51531 73.24219,103.05664 4.56667,5.97733 9.17207,11.92942 13.80273,17.85742 0.688,0.88267 1.91314,-0.35713 1.23047,-1.23047 C 206.91762,230.4979 180.47804,193.24337 154.7207,155.35938 137.89537,130.61403 120.14213,106.95237 99.216797,85.484375 73.193987,58.783785 47.324096,31.886503 22.570312,4.0117188 Z m 65.173828,0 c 2.800407,4.0902539 5.502499,8.2518532 8.371094,12.2890622 25.837329,36.362666 54.518659,70.553597 82.722659,105.072269 28.69333,35.116 56.94987,70.75622 80.92187,109.32422 2.91067,4.68266 5.75259,9.40725 8.53125,14.16992 0.564,0.968 2.06863,0.0918 1.50195,-0.87891 -22.00533,-37.716 -48.36303,-72.61146 -75.70703,-106.57812 C 163.84126,102.97949 135.09471,69.359171 108.60938,33.951172 101.34176,24.234199 94.74024,14.023667 87.859375,4.0117188 Z m 66.917973,0 c 12.4909,15.1930872 25.2098,30.1981132 37.46093,45.5859372 11.09067,13.930667 21.37191,28.122574 29.50391,44.003906 6.82267,13.322668 12.78018,27.057808 19.85351,40.257818 12.28535,22.92933 26.80602,44.60006 42.02735,65.66406 5.48667,7.59466 11.08529,15.1064 16.75195,22.5664 0.668,0.88134 2.18062,0.0144 1.50196,-0.8789 -18.62801,-24.528 -36.70054,-49.64413 -52.14454,-76.32813 -8.31066,-14.35866 -15.3633,-29.28613 -22.55664,-44.21679 C 217.91854,86.935345 210.32765,73.88825 201.20898,61.65625 191.58498,48.74425 181.24785,36.327166 171.11719,23.8125 165.7387,17.168727 160.24726,10.617223 154.82227,4.0117188 Z m 74.1875,0 c 1.54453,3.2693033 3.02109,6.5707232 4.57421,9.8359372 14.10134,29.646666 28.5771,59.119185 43.75977,88.228514 15.33467,29.404 31.39365,58.43634 48.45898,86.875 2.12667,3.544 4.26907,7.08014 6.42774,10.60547 0.58267,0.95467 2.09057,0.0798 1.50391,-0.87891 C 313.7162,170.35507 297.40967,141.41688 281.875,112.07422 266.439,82.922218 251.75485,53.376098 237.49219,23.634766 234.3703,17.124791 231.40975,10.539017 228.32422,4.0117188 Z m 59.27539,0 c 2.12982,13.7145512 4.88387,27.3275332 8.8164,40.6464842 12.208,41.347999 32.72964,79.755537 56.32032,115.658207 3.58133,5.44933 7.24155,10.84455 10.96289,16.19921 0.63466,0.91335 2.14524,0.0438 1.5039,-0.8789 C 337.71984,138.96472 314.84074,99.888374 300.33008,57.484375 294.35506,40.020157 290.09109,22.133495 287.25977,4.0117188 Z m 47.82226,0 c 0.0437,0.3786898 0.0362,0.7705605 0.082,1.1484374 4.904,40.4173328 21.01418,79.0813448 39.96485,114.7773438 6.16,11.60267 12.73656,22.97926 19.61523,34.16992 0.58533,0.95334 2.09324,0.0784 1.50391,-0.8789 C 370.7393,114.43118 349.5183,72.648806 339.29297,27.994141 337.50089,20.167743 336.19601,12.120649 335.23633,4.0117188 Z m 34.5957,0 c 1.44834,5.0443064 2.45511,10.2050872 4.06055,15.2050782 11.2,34.879999 26.34173,68.453287 45.40039,99.751953 2.51467,4.13067 5.09828,8.21948 7.73828,12.27148 0.60934,0.93467 2.11529,0.0638 1.50196,-0.8789 -20.50134,-31.47867 -37.07038,-65.360184 -49.37305,-100.853518 -2.901,-8.370174 -4.94394,-16.991024 -7.39453,-25.4960932 z m 386.22657,0 C 669.51195,20.253381 584.29004,48.148628 520.6543,105.53711 c -8.92134,8.04667 -17.24791,16.69581 -25.00391,25.86914 -0.72,0.848 0.50647,2.0878 1.23047,1.23047 C 562.43708,55.107889 666.19756,22.117642 764.29102,4.0117188 Z m 226.50195,0 c -8.5118,4.5582535 -17.05518,9.0574662 -25.25,14.2714842 -18.52042,11.784484 -35.86359,25.255488 -52.73437,39.298828 -19.44427,3.061406 -38.82466,4.604137 -58.65625,3.675781 -39.14,-1.833333 -78.30804,-9.500364 -117.47071,-3.707031 -28.45652,4.209562 -53.97882,16.030009 -77.30859,31.595703 -33.5747,4.631712 -66.01095,15.954826 -92.9707,36.486326 -10.98134,8.364 -20.60725,18.13798 -29.03125,29.05664 -0.684,0.88667 0.82728,1.75491 1.50195,0.87891 28.6929,-37.19061 71.67971,-56.769807 116.99414,-63.873048 C 628.48324,103.7018 612.19272,117.44213 597.5,132.66211 c -13.684,14.17333 -26.35271,29.26882 -38.49805,44.77148 -0.684,0.87067 0.53981,2.11181 1.23047,1.23047 24.97255,-31.87487 53.7359,-64.06627 87.88477,-87.314451 20.59023,-3.026485 41.57281,-3.759016 61.95703,-1.970703 37.56972,3.296274 72.86023,14.835564 106.3125,30.839844 -4.43493,2.23462 -8.86154,4.48356 -13.29688,6.71289 -6.02919,0.58978 -12.08343,1.07529 -18.04101,1.95508 -5.14453,-3.47348 -10.44779,-6.71764 -16.03321,-9.54492 -47.69199,-24.142672 -95.03323,10e-4 -131.86523,32.53711 -16.81867,14.85733 -31.99121,31.45212 -46.42187,48.60547 -0.71734,0.85199 0.5078,2.08913 1.23046,1.23046 37.32934,-44.36933 95.94916,-107.852858 161.28516,-87.01953 10.61606,3.38546 20.40137,8.45688 29.63672,14.53711 -42.92745,6.62453 -83.86224,21.27945 -120.65625,52.21289 -14.844,12.48 -27.99341,26.71356 -39.94141,41.96289 -0.684,0.87067 0.53981,2.11377 1.23047,1.23242 23.18,-29.58266 51.36065,-54.88282 85.19531,-71.66015 23.75965,-11.78048 49.33141,-18.93239 75.42969,-23.00781 1.84967,1.2436 3.57456,2.70816 5.37891,4.0332 -8.33854,4.32635 -16.66613,8.67167 -24.7461,13.50391 -25.45733,15.22533 -48.97261,33.42261 -70.2246,54.11328 -14.45468,14.07066 -27.79044,29.2015 -40.39844,44.9375 -0.69467,0.86666 0.52913,2.10513 1.23047,1.23047 37.91866,-47.32399 82.9342,-84.13829 135.93164,-112.4375 10.26994,7.74718 19.74342,16.71555 28.92773,26.08203 -40.4827,20.76845 -78.06277,46.43132 -109.80469,79.22851 -8.86933,9.16534 -17.14234,18.85399 -24.90234,28.97266 -0.68133,0.888 0.83057,1.75625 1.50391,0.8789 35.75868,-46.61698 82.64958,-81.35284 134.44336,-107.80273 10.54907,10.83832 20.79246,21.71171 30.83789,32.25 -43.39396,15.97064 -83.59575,38.54271 -114.92774,72.50391 -7.30933,7.924 -13.9439,16.40183 -20.0039,25.3125 -0.632,0.92933 0.87724,1.80024 1.5039,0.8789 32.54832,-47.85756 81.43674,-77.45746 135.01953,-97.01172 1.89202,1.96869 3.80097,4.13494 5.69727,6.03516 11.15207,11.17379 23.26008,21.07921 35.42969,30.91016 h 1.87695 c -8.98732,-7.30658 -17.90695,-14.7085 -26.39649,-22.70899 -5.00745,-4.71903 -9.79393,-9.89048 -14.63867,-14.9375 18.50034,-6.6493 37.38718,-12.44807 56.54883,-16.94726 1.2579,0.90161 2.60475,1.72044 3.85742,2.625 23.98765,17.32194 47.76117,34.68554 71.60938,51.96875 h 3.0918 c -20.43187,-14.70989 -40.90387,-29.31026 -61.27149,-44.31055 -4.95143,-3.64667 -10.18199,-7.12556 -15.21094,-10.74609 24.7281,-5.71854 49.59463,-9.96021 73.60743,-13.29688 58.01602,-8.06267 116.60242,-11.34199 175.09182,-13.61133 11.7792,-0.45707 23.5642,-0.86267 35.3457,-1.32422 16.8203,8.12746 33.0304,17.70299 48.3652,29.14258 19.6212,14.6379 38.0016,30.92919 55.9336,47.71875 -96.5891,-2.71057 -193.3885,-2.50286 -289.498,5.8711 -1.5977,0.13916 -3.1932,0.3731 -4.7891,0.55664 h 29.2539 c 48.574,-3.74922 97.2805,-6.13478 146.0937,-6.39453 40.2965,-0.21443 80.5823,0.61384 120.8223,1.7832 1.6151,1.51952 3.1704,3.08705 4.7813,4.61133 h 3.123 c -1.5825,-1.47964 -3.1012,-3.03341 -4.6914,-4.50391 25.6172,0.76062 51.2374,1.55984 76.7656,2.5918 13.1882,0.53303 26.3645,1.30252 39.5489,1.91211 h 33.5488 c -10.0801,-0.51432 -20.1442,-1.30384 -30.2266,-1.77735 -40.4996,-1.90175 -81.1163,-3.42225 -121.7656,-4.58984 -13.7116,-12.61522 -27.604,-25.01537 -42.0137,-36.77344 -18.8756,-15.40286 -39.2002,-29.21936 -60.8789,-40.3125 44.4991,-1.74285 89.0038,-3.53752 133.5,-5.0039 20.205,-0.66584 40.3966,-0.8872 60.5723,-0.7168 50.5797,0.42719 101.0504,3.51031 151.4238,8.0293 63.8809,23.76401 127.5155,48.19049 191.0801,72.78515 7.253,2.80631 14.531,5.5659 21.791,8.35938 h 4.6191 c -70.2497,-27.12437 -140.5008,-54.2516 -211.0566,-80.57032 88.1192,8.1468 175.9081,20.99251 263.2578,34.44532 97.7956,15.06218 195.5901,28.99034 293.711,40.47265 -6.6583,1.75854 -13.2302,3.8233 -19.8692,5.65235 h 6.4102 c 6.0348,-1.64721 12,-3.53391 18.0527,-5.11719 58.6545,6.81076 117.3998,12.95643 176.4141,17.32617 62.7101,4.64346 125.5249,7.62574 188.3711,9.7207 -37.2045,14.02782 -74.1786,28.63019 -110.9707,43.6875 -86.1008,-5.60532 -172.1467,-11.99293 -258.1758,-18.60937 v 1.83984 c 84.6466,6.56972 169.3082,12.93067 254.0273,18.48243 -54.3762,22.30258 -108.5243,45.16214 -162.584,68.24218 -16.8202,0.14722 -33.6605,0.53813 -50.5019,1.07422 -13.726,-4.11971 -27.2728,-8.80245 -40.9414,-13.10351 v 1.69531 c 11.993,3.76552 23.8723,7.88023 35.9082,11.51367 -11.9841,0.41191 -23.9307,1.53612 -35.9082,2.17969 v 1.46484 c 13.8714,-0.75162 27.7456,-1.51248 41.6015,-1.95703 8.4492,2.53209 16.8972,5.06768 25.3711,7.52148 -22.3105,9.51061 -44.6252,19.01502 -66.9726,28.43165 v 1.41992 c 23.0682,-9.77487 46.2205,-19.3469 69.2676,-29.17188 13.5039,3.89764 26.8484,8.29913 40.4199,11.98242 9.3433,2.53572 18.7553,4.81902 28.1289,7.2461 -33.7331,6.2913 -67.2632,13.91991 -100.3281,24.68945 -12.6106,4.10744 -25.0922,8.56317 -37.4883,13.24023 v 2.11524 c 46.1177,-17.00654 93.3444,-30.01947 141.4316,-39.11328 1.7789,0.45767 3.556,0.9214 5.336,1.375 -1.6964,0.94379 -3.4881,1.62876 -5.17,2.61133 -24.5021,14.31459 -46.4921,31.84999 -67.8261,50.22461 -24.6373,0.77651 -49.2563,3.10651 -73.7715,6.44921 v 1.94532 c 23.8177,-3.26477 47.7234,-5.66349 71.6719,-6.55469 -24.4629,21.22837 -47.8527,43.831 -71.6719,65.88086 v 2.11914 c 24.5667,-22.83037 48.6438,-46.19628 74.0176,-68.13867 4.5826,-0.15413 9.1555,-0.75569 13.7382,-0.8125 61.8515,-0.76674 123.6478,7.42761 183.6778,27.22461 46.5025,15.33548 91.1953,38.7305 135.7383,62.99804 -23.1811,9.43653 -46.6789,18.04288 -70.4102,26.01368 -49.3888,-0.81248 -98.7599,0.29684 -147.7891,6.83984 -65.0051,8.67496 -126.7858,28.01307 -186.7714,52.43359 -29.2272,0.52843 -58.3907,-0.69429 -87.5079,-2.64257 h -23.5566 c 25.369,2.33484 50.7801,4.17453 76.2773,4.5625 10.3376,0.15719 20.6699,-0.2535 31.0059,-0.40626 -54.7946,22.54131 -107.9424,49.39273 -160.5332,76.96485 -26.8276,-7.71941 -53.2737,-16.70065 -79.4336,-26.56641 34.4387,-17.1561 68.4379,-35.11937 101.6367,-54.55468 h -3.8515 c -32.7278,19.02313 -66.2106,36.79201 -100.1524,53.66015 -9.0304,-3.43206 -18.1721,-6.53138 -27.1094,-10.23633 -23.9497,-9.92791 -47.1842,-21.2308 -70.0488,-33.19726 4.6267,-3.44523 9.2191,-6.81088 13.8438,-10.22656 h -3.752 c -4.0871,3.00669 -8.1621,6.02024 -12.2363,9.04492 -5.3987,-2.84492 -10.5562,-6.10083 -15.8965,-9.04492 h -3.9121 c 6.0442,3.39476 11.8886,7.11858 18.0234,10.36328 -24.5727,18.20162 -49.4397,36.01443 -76.1679,50.90625 -41.2467,22.97866 -85.8241,37.56508 -133.3575,37.84375 -45.5781,0.26697 -90.395,-10.7598 -133.2773,-25.67774 12.0175,-0.88195 24.0499,-1.62989 35.9941,-3.2207 74.8014,-9.96133 145.0662,-35.63261 212.8555,-68.08594 1.4273,-0.68328 2.818,-1.43616 4.2402,-2.1289 h -4.4472 c -49.8204,23.8589 -100.8209,45.07875 -154.7891,57.8164 -32.1447,7.58721 -64.9189,12.07514 -97.8437,14.2832 -2.2603,-0.80163 -4.5836,-1.46677 -6.8321,-2.28906 -12.2185,-4.46816 -24.0483,-9.89783 -36.0117,-15.00586 27.6838,-17.38459 54.6416,-35.94336 81.4121,-54.80468 h -2.7187 c -26.437,18.60835 -53.0825,36.90578 -80.4922,54.05468 -18.4691,-7.94326 -36.5516,-16.63772 -54.3203,-26.04492 16.2164,-8.78376 31.9968,-18.42204 47.8008,-28.00976 h -2.9473 c -15.3151,9.32893 -30.5909,18.73258 -46.3555,27.22265 -12.6316,-6.72403 -25.1221,-13.62868 -37.3515,-21.06055 13.0627,-2.06503 26.1297,-4.10262 39.1933,-6.1621 h -12.2031 c -9.8056,1.53462 -19.6088,3.09777 -29.418,4.61132 -2.3854,-1.46207 -4.6376,-3.12787 -7.0097,-4.61132 h -3.6426 c 2.6241,1.66179 5.1824,3.42347 7.8261,5.05468 -23.7645,3.67067 -47.5531,7.32213 -71.2734,11.17188 -21.7292,3.52653 -43.848,6.87979 -65.8281,10.35351 -16.0946,-6.6308 -31.9501,-13.84745 -47.418,-21.83398 -2.8917,-1.4931 -5.7073,-3.20534 -8.5859,-4.74609 h -2.9258 c 18.3389,9.81901 37.0083,19.00638 56.2168,27.00781 -42.4879,6.69115 -85.1361,12.82865 -128.1055,17.04492 -11.29286,-14.54227 -22.30635,-29.29689 -33.31833,-44.05273 h -2.14844 c 9.54193,13.06488 19.02322,26.17814 28.86137,39.00585 1.361,1.77453 2.8184,3.50031 4.1894,5.27149 -21.80317,2.10154 -43.60878,3.58682 -65.41991,4.4707 -11.91432,-6.65797 -23.98989,-12.99848 -35.97852,-19.50976 0.27418,-9.85357 0.59135,-19.74089 0.71485,-29.23828 h -2.36914 c -0.0104,9.38679 -0.16312,18.8006 -0.22657,28.21874 -5.40873,-2.9318 -10.79368,-5.91061 -16.22461,-8.79882 -5.38186,-6.61497 -10.78667,-13.19868 -16.47265,-19.41992 h -2.00391 c 3.24332,3.49031 6.52001,6.93289 9.62109,10.62304 1.89546,2.25561 3.55883,4.65388 5.41797,6.9336 -8.33298,-4.41156 -16.52247,-9.10532 -24.92187,-13.38672 -0.17158,-1.42457 -0.46024,-2.82598 -0.65235,-4.24805 -0.4518,0.0286 -0.90368,0.08 -1.35546,0.10742 0.14893,1.10234 0.21578,2.22665 0.35351,3.33203 -1.95469,-0.99358 -3.95133,-1.90514 -5.91015,-2.89062 -1.41667,0.0708 -2.82971,0.0446 -4.2461,0.10351 3.45774,1.72572 6.95851,3.36277 10.4043,5.11329 1.68873,14.31398 3.07453,28.70515 4.47461,43.08593 -40.1517,-2.05031 -80.10234,-7.15602 -119.59375,-16.80859 -18.28667,-4.47067 -36.28701,-9.93167 -54.01367,-16.26367 -1.056,-0.37734 -1.51224,1.30306 -0.46289,1.67773 56.6698,20.24461 115.13546,29.70662 174.19531,32.63672 1.59796,16.0442 3.73191,31.93427 8.59179,47.05273 -44.84883,-7.42974 -89.33584,-17.31986 -133.35742,-28.3125 -20.30266,-5.07066 -40.54676,-10.36718 -60.77344,-15.72851 -1.08399,-0.288 -1.54689,1.38973 -0.46289,1.67773 63.78671,16.91005 129.12802,33.08667 195.01368,43.89844 3.64447,10.91181 8.65869,21.43705 15.75976,31.37695 18.48667,25.87867 44.1922,47.5686 69.90821,65.94727 12.16133,8.69264 24.87306,16.56655 37.8496,23.98047 h 2.83399 c -32.58903,-18.37634 -62.8814,-40.59943 -88.84961,-67.375 -15.64164,-16.12901 -27.74076,-33.30505 -35.31641,-53.60352 15.49005,2.51178 30.98364,4.95241 46.52344,6.76172 9.40695,10.6157 23.35702,18.82069 35.56641,25.2168 13.46744,7.05591 27.78158,12.12832 42.40429,16.13867 19.50171,17.64565 39.37041,34.88992 60.98051,49.90234 12.5114,8.69213 25.6234,16.17787 39.0664,22.95899 h 2.8398 c -0.2823,-0.14045 -0.5834,-0.23352 -0.8652,-0.375 -35.0334,-17.584 -65.8962,-42.20164 -95.0215,-68.18164 -1.2043,-1.07415 -2.356,-2.20145 -3.5586,-3.27735 18.8246,4.86568 38.2072,7.72403 57.5449,8.80274 18.9736,1.05829 37.864,0.4711 56.6172,-1.33203 1.8712,1.35309 3.5337,2.95811 5.4356,4.27343 54.502,37.69418 120.8901,52.24752 186.123,59.81641 0.394,0.0964 0.7895,0.17781 1.1836,0.27344 h 13.707 c -4.4104,-0.44977 -8.7953,-1.10002 -13.1972,-1.6211 -56.1932,-13.67818 -110.5916,-34.66908 -162.7813,-59.37695 -3.9137,-1.85287 -7.7329,-3.88852 -11.6269,-5.7793 53.8691,-7.7121 106.3117,-25.60833 155.3808,-49.04296 19.1513,-9.14579 37.7849,-19.12752 56.0528,-29.70118 24.6711,1.30578 49.3599,1.07829 74.0019,-0.54882 68.3127,24.34282 141.9746,37.70785 212.2481,15.3457 50.5778,-16.09464 94.593,-45.99544 137.2929,-77.71094 15.1756,7.96908 30.4668,15.74433 46.166,22.79883 16.5258,7.42556 33.3079,14.16809 50.1875,20.62305 -15.1449,7.51742 -30.308,15.01671 -45.4043,22.51171 -81.6626,40.54535 -159.4891,87.84825 -240.2597,130.01758 -5.8854,3.07263 -12.0047,5.78211 -17.9473,8.7793 -5.0011,1.31963 -10.0316,2.49123 -15.0566,3.70508 h 32.0332 c 42.2117,-4.54859 84.1606,-11.21562 125.7051,-19.78906 -1.6291,0.63412 -3.2112,1.37619 -4.8438,2.00195 -17.1762,6.58345 -34.5665,12.39022 -52.0605,17.78711 h 6.0058 c 20.0221,-6.44344 39.7576,-13.66254 59.2813,-21.44922 48.4437,-10.31983 96.2996,-23.03066 143.039,-38.53125 5.6967,-1.88924 11.2843,-4.11003 16.9532,-6.08399 32.8141,-1.1993 65.691,-1.15195 98.4609,0.42383 150.7893,7.25067 299.0389,38.64871 449.4629,49.72071 74.4451,5.47972 150.5488,5.93611 225.0644,-3.41797 v -2.03321 c -60.2759,7.66121 -121.603,9.11273 -182.164,6.30079 -147.9,-6.86534 -293.3689,-37.04904 -440.7969,-48.95704 -48.1018,-3.88507 -96.4741,-5.43928 -144.7305,-3.93945 45.25,-15.97777 89.7484,-34.23553 134.0352,-53.13281 91.6744,20.8159 185.9093,31.30318 279.543,34.56055 115.6906,4.02501 242.8207,2.92139 354.1132,-37.79493 v -2.14257 c -99.3031,36.09862 -211.8917,40.68682 -315.6465,39.14453 -105.6359,-1.57054 -212.3022,-11.42827 -315.6914,-34.75391 102.71,-43.8641 204.7618,-89.70635 314.586,-111.88672 41.4053,-8.36266 83.6291,-12.95452 125.8984,-12.25586 45.252,0.748 89.8951,8.29084 133.9844,18.07617 19.0138,4.21952 37.9331,8.85591 56.8691,13.41993 v -1.90039 c -3.8265,-0.92359 -7.6749,-1.78477 -11.5,-2.70508 -42.852,-10.31067 -85.8992,-20.38024 -129.7539,-25.37891 -41.188,-4.69467 -82.7693,-4.2236 -123.916,0.67774 -129.8619,15.46764 -249.435,70.08897 -369.0781,121.22851 -20.0365,-4.57303 -39.9408,-9.65614 -59.6934,-15.29492 53.1964,-27.97357 106.8604,-55.10741 162.291,-77.69922 66.6278,-1.23783 133.1248,-8.45647 198.4004,-21.83594 46.1565,-9.4607 91.5859,-22.11217 136.2442,-37.08593 15.2317,0.23516 30.4685,0.44431 45.6738,1.00976 28.4612,1.05865 56.9071,2.53068 85.3574,3.86719 21.7835,11.46914 43.6785,22.48399 65.9746,32 v -2.32031 c -3.2613,-1.3752 -6.6114,-2.61996 -9.832,-4.04688 -17.716,-7.84978 -35.0391,-16.48302 -52.1934,-25.45312 20.6734,0.97621 41.353,1.80523 62.0254,2.81054 v -2 c -21.9666,-1.03567 -43.9441,-1.81135 -65.9101,-2.85547 -19.0162,-10.01838 -37.8753,-20.34612 -56.7383,-30.66796 41.8788,-17.18644 82.9062,-36.45172 122.6484,-58.13282 v -2.16601 c -40.3878,22.08451 -82.0212,41.81041 -124.6093,59.24609 -31.5788,-17.26202 -63.2966,-34.24385 -96.4805,-48.29101 -75.8559,-32.11045 -156.3148,-44.3484 -236.8867,-42.08594 0.5839,-0.50123 1.1215,-1.0533 1.707,-1.55274 22.3566,-19.07018 46.2344,-36.24719 71.8164,-50.41015 68.5777,17.38684 137.9004,31.8976 207.9492,41.89453 40.4067,5.76667 81.0251,10.09518 121.7598,12.72851 17.871,1.15605 36.3128,2.57726 54.7441,3.33789 v -2.86718 c -5.8315,-0.17867 -11.672,-0.0552 -17.4922,-0.28125 -42.0946,-1.632 -84.1073,-5.14225 -125.9179,-10.26758 -80.5457,-9.87216 -160.2425,-25.87578 -238.8965,-45.75586 2.5487,-1.38617 4.9889,-2.9624 7.5762,-4.2793 28.5126,-4.7571 57.2189,-8.56498 86.2929,-10.35351 95.8896,-5.89822 192.4429,-0.62604 288.4375,2.39453 v -2.07617 c -72.2627,-2.46473 -144.5572,-4.81728 -216.7851,-4.33985 -51.6672,0.34038 -102.7548,4.21495 -153.2383,12.03907 9.405,-4.58644 19.0022,-8.81919 28.9512,-12.3711 10.5125,-3.75295 21.2053,-6.83935 31.9824,-9.58008 103.0387,3.11535 206.0558,8.67049 309.0898,8.23828 v -1.84374 c -101.3316,0.43858 -202.7505,-4.48983 -304.1093,-7.63086 33.7402,-8.13569 68.4735,-12.21544 102.9433,-15.75782 67.043,-6.88998 134.1066,-13.57898 201.166,-20.30859 v -1.74609 c -41.151,4.15352 -82.3017,8.30766 -123.4531,12.46093 -61.2606,6.18295 -125.6323,9.4026 -185.9199,25.20117 -22.8308,-0.6882 -45.6694,-1.6431 -68.4902,-1.97656 -20.1073,-0.29398 -40.2778,-0.38762 -60.4766,-0.24609 53.9278,-23.02076 108,-45.6899 162.2598,-67.9043 11.3268,0.73888 22.6376,1.70771 33.9668,2.41602 80.6439,5.04297 161.3504,9.2513 242.1132,11.83398 v -2.00586 c -64.783,-2.0644 -129.5415,-4.9252 -194.2461,-8.67969 -25.8766,-1.50161 -51.713,-3.60559 -77.5781,-5.28124 23.5359,-9.61382 47.0438,-19.29607 70.7383,-28.5254 13.6142,-5.30297 27.4355,-10.12567 41.125,-15.26562 16.1596,0.52151 32.3082,1.3368 48.4727,1.68945 37.107,0.80993 74.3044,1.31772 111.4882,1.16992 v -2.44531 c -18.3884,0.0669 -36.7759,0.60244 -55.1504,0.42383 -33.6189,-0.32658 -67.2281,-1.259 -100.832,-2.31445 51.4828,-19.25435 103.3624,-37.54736 155.9824,-53.43946 v -1.15429 c -47.8059,14.38982 -95.3036,29.8538 -142.1386,47.11523 -6.3911,2.35545 -12.6815,4.9622 -19.0567,7.35742 -46.6991,-1.51918 -93.3796,-3.54724 -140.0117,-6.47461 -75.0255,-4.7098 -149.7281,-11.80389 -224.2695,-20.28515 52.7036,-13.65209 106.1135,-24.3525 159.7773,-33.57617 108.4466,22.71714 220.7279,30.22991 327.5527,-0.084 12.7537,-1.57109 25.51,-3.08036 38.1465,-5.3789 v -1.90821 c -9.2858,1.70074 -18.6716,2.78779 -28.0312,4.09375 5.9181,-1.81942 11.8516,-3.53854 17.7324,-5.59961 3.476,-1.21827 6.8585,-2.66473 10.2988,-3.9707 v -1.97656 c -12.9842,4.92468 -26.1008,9.24514 -39.3437,12.96679 -29.7052,3.66588 -59.5918,6.14383 -89.5254,6.80664 -74.8774,1.65798 -149.9656,-2.68882 -224.7676,-6.94336 19.2253,-3.19086 38.3785,-6.85748 57.6699,-9.53515 98.0889,-13.61495 196.9729,-20.30132 295.9668,-22.69727 v -2.14843 c -78.3882,1.89877 -156.6882,6.71442 -234.6386,15.43164 -43.0145,4.81059 -85.8661,11.17241 -128.5684,18.44726 -2.2468,-0.12752 -4.5039,-0.22856 -6.75,-0.35547 -24.3201,-5.16384 -48.4616,-10.8165 -72.1152,-17.26172 -81.9054,-22.31866 -161.9898,-50.63953 -243.1192,-75.519527 -4.9393,-1.514571 -9.9579,-2.758378 -14.9043,-4.25 126.3456,7.804977 252.9621,12.192357 379.5039,7.769527 107.4232,-3.755676 214.8562,-14.014921 320.5918,-33.499996 v -1.839843 c -91.25,16.855325 -183.7776,26.922552 -276.5,31.697265 -143.7745,7.403044 -287.8438,2.670524 -431.4511,-6.365234 C 1863.6026,69.365099 1788.3855,49.359905 1712.3555,32.912109 1659.7113,21.523207 1606.7931,11.997319 1553.6836,4.0117188 h -9.0625 c 44.3624,6.6144192 88.5548,14.3759812 132.5098,23.2929692 83.972,17.035999 167.1169,38.034771 249.2929,62.273437 1.8052,0.532398 3.5829,1.152977 5.3867,1.689453 -8.3092,-0.530426 -16.6336,-0.900533 -24.9394,-1.458984 -91.4499,-6.148639 -182.83,-14.232285 -274.2949,-20.695313 C 1563.5389,46.17764 1494.5379,23.163735 1424.4727,4.0117188 h -7.0625 c 70.302,18.9348482 139.5981,41.7026502 208.832,64.6894532 -67.6796,-4.716782 -135.3997,-8.637476 -203.2617,-9.570313 -45.5837,-0.626494 -91.3571,0.699965 -137.1153,3.011719 -0.9222,-0.248723 -1.8312,-0.549946 -2.7539,-0.796875 -80.9213,-21.657333 -162.449,-31.437739 -246.0957,-23.816406 -41.53195,3.785333 -82.71207,10.705 -123.63474,18.625 -2.25433,0.436225 -4.49932,0.524074 -6.75,0.908203 4.47635,-3.901707 8.76208,-8.067144 13.44336,-11.683594 20.3585,-15.727109 42.06591,-29.45578 64.66797,-41.3671872 z M 847.17578,628.93359 c -0.0623,-0.0311 -0.12523,-0.0607 -0.1875,-0.0918 -0.5168,0.0213 -1.03402,0.0994 -1.55078,0.11914 0.57992,-0.0221 1.15831,-0.003 1.73828,-0.0274 z m -0.1875,-0.0918 c 1.28542,-0.053 2.57178,-0.23021 3.85742,-0.29297 -0.64562,-0.32448 -1.30118,-0.62956 -1.94726,-0.95313 2.64395,-0.11115 5.28224,-0.5173 7.92578,-0.66992 0.0535,0.38204 0.071,0.77382 0.12305,1.15625 0.44664,-0.0271 0.89318,-0.0734 1.33984,-0.10156 -0.053,-0.38893 -0.12311,-0.77343 -0.17773,-1.16211 1.38557,-0.0834 2.7698,-0.2242 4.15429,-0.35156 v -0.002 c -1.38449,0.12737 -2.76871,0.26811 -4.15429,0.35157 -0.53389,-3.79823 -1.02507,-7.59332 -1.74219,-11.35547 2.0016,1.94932 3.93484,3.99456 5.89648,6 v -1.84961 c -2.08523,-1.95167 -4.12665,-3.95773 -6.17383,-5.95508 -2.54617,-12.73919 -5.99405,-25.25047 -11.86718,-36.96875 -12.364,-24.664 -33.04646,-43.52361 -56.45313,-57.59961 -16.47333,-9.90667 -34.15383,-17.54906 -52.17383,-24.15039 -1.05333,-0.38533 -1.50822,1.29702 -0.46289,1.67969 34.55867,12.66133 69.83399,29.87502 93.47266,59.06836 13.2769,16.39728 20.99179,35.69769 25.43164,55.99804 -24.10657,-23.16229 -50.75022,-43.23649 -81.52149,-58.8437 C 756.75963,544.84918 740.508,537.93616 724,531.66016 c -1.048,-0.39867 -1.50156,1.28502 -0.46289,1.67968 49.163,18.69452 93.55205,44.50227 130.88867,80.26954 0.71275,3.43751 1.55319,6.83814 2.08008,10.32421 0.14885,0.98517 0.17992,2.00224 0.31836,2.99024 -2.64485,0.15269 -5.28443,0.55874 -7.92969,0.66992 C 820.92891,613.5884 792.61257,600.27021 763.5,588.50586 c -16.96267,-6.85467 -34.1237,-13.18964 -51.45703,-19.04297 -1.064,-0.36 -1.52023,1.3204 -0.46289,1.67773 46.02603,15.54472 90.06629,35.18135 133.23047,56.63282 -16.10593,0.5435 -32.216,0.37756 -48.3086,-0.82422 16.09387,1.20186 32.20534,1.36987 48.3125,0.82617 0.72279,0.35921 1.4516,0.70607 2.17383,1.06641 z m 11.29883,-0.86133 c 0.0137,0.10071 0.0333,0.20006 0.0469,0.30078 1.30987,-0.0828 2.61981,-0.20661 3.92969,-0.3125 v -0.29102 c -1.32538,0.10169 -2.65088,0.21904 -3.97656,0.30274 z m -1.33984,0.10156 c -2.03409,0.12325 -4.06789,0.36752 -6.10157,0.4668 0.19093,0.096 0.38527,0.18521 0.57618,0.28125 1.85175,-0.0925 3.70454,-0.32906 5.55664,-0.44141 -0.0137,-0.1014 -0.0176,-0.20526 -0.0312,-0.30664 z M 1092.8906,36.285156 c 10.8884,-0.134479 21.7807,0.01337 32.668,0.484375 43.4853,1.88 86.5783,9.045375 128.8769,19.109375 8.3929,1.996916 16.6776,4.464959 25.0293,6.644532 -89.2172,4.79765 -178.2816,15.024525 -265.332,33.746093 -35.84767,7.710039 -72.28084,17.348999 -107.96874,29.374999 -25.4674,-1.07029 -50.80343,-1.52043 -75.81054,-0.56445 -3.27482,-1.71078 -6.58434,-3.34127 -9.89649,-4.9668 11.95409,-5.96824 23.79796,-12.15397 34.75586,-19.77148 17.32791,-12.046269 32.74966,-26.804526 48.66211,-40.886722 30.518,-4.429529 60.8164,-11.190437 91.36719,-15.378906 32.35401,-4.436 64.98321,-7.387578 97.64841,-7.791016 z M 765.35547,57.435547 c 20.23366,0.469 40.54593,2.750766 60.80859,4.384765 20.476,1.650668 41.06778,2.369698 61.53711,0.207032 4.04741,-0.42724 8.04625,-1.371922 12.08203,-1.921875 -6.83529,5.762069 -13.84005,11.327914 -20.4414,17.345703 -16.82667,15.338666 -33.40484,27.649228 -53.6875,38.087888 -2.37016,1.21979 -4.75665,2.39914 -7.13477,3.60156 -27.36681,-13.25632 -55.95436,-23.607896 -86.17773,-28.664058 -26.01886,-4.352795 -53.47916,-5.070943 -80.30469,-1.673828 16.39141,-10.689599 33.88611,-19.4942 52.98242,-24.873046 19.94667,-5.618001 40.10227,-6.963141 60.33594,-6.494141 z m 621.58403,3.216797 c 81.9256,-0.139655 163.676,4.224899 245.3535,10.03125 30.2669,10.045906 60.5174,20.151678 90.8906,29.781246 79.48,25.2 159.8706,46.59678 242.1133,60.66211 83.088,14.212 167.0947,22.33084 251.164,27.9375 19.5222,1.30201 39.1083,2.29613 58.6641,3.48047 0.1505,0.0323 0.2987,0.0713 0.4492,0.10352 -53.6504,9.33382 -106.9842,20.4172 -159.6445,34.19336 -87.0357,-9.98171 -173.8411,-21.95594 -260.5547,-35.36719 -101.854,-15.75392 -204.083,-31.64214 -306.8184,-40.85547 -7.4021,-2.75331 -14.7228,-5.72203 -22.1347,-8.44922 -78.1325,-28.74602 -156.9164,-57.213195 -237.3106,-79.089842 32.6868,-1.551942 65.3448,-2.372536 97.8282,-2.427734 z m -104.1719,2.746094 c 72.9763,19.254438 144.5339,44.630452 215.3711,70.291012 14.7182,5.33154 29.3215,10.97226 43.998,16.41602 -54.6998,-4.75264 -109.5355,-7.70011 -164.5508,-7.4707 -59.2506,0.24634 -118.6084,3.69471 -177.8476,5.88085 -12.0692,-5.96321 -24.438,-11.30699 -37.5039,-15.0039 -42.244,-11.95067 -86.3079,-10.12842 -129.5879,-6.73242 -39.43921,3.09391 -80.37034,0.85702 -121.25783,-0.91602 24.47793,-8.11505 49.20101,-15.20044 73.70508,-21.16211 96.96555,-23.592683 197.45015,-36.223703 297.67385,-41.302732 z m 356.1347,7.794921 c 75.9743,5.473211 151.8917,12.082059 227.8204,17.556641 23.9412,1.726318 47.9156,3.14342 71.8808,4.650391 77.2319,23.197019 153.4468,49.651409 230.8516,72.281249 31.3413,9.1624 63.4153,17.36286 95.7793,24.58008 -86.0114,-4.88682 -172.0109,-11.58736 -257.2813,-24.11524 -83.7706,-12.308 -165.9722,-31.27511 -246.9922,-55.7871 -40.8834,-12.368628 -81.4921,-25.700308 -122.0586,-39.166021 z M 6.0839844,83.478516 v 2.103515 c 7.8718306,6.267541 15.7385016,12.539218 23.5468746,18.886719 16.270667,13.228 32.259235,26.80451 47.615235,41.08984 17.554666,16.33067 34.262936,33.54922 50.210936,51.44922 20.48667,22.996 39.77494,47.04033 58.34961,71.59766 5.44267,7.196 10.82425,14.4407 16.15625,21.7207 0.65467,0.89467 2.16595,0.0278 1.50195,-0.8789 -19.45066,-26.56 -39.56687,-52.66167 -60.9082,-77.73633 C 126.22864,192.52827 109.15433,173.97429 91.125,156.37695 75.807667,141.42762 59.800708,127.21563 43.359375,113.51562 31.099862,103.29987 18.570327,93.415046 6.0839844,83.478516 Z M 818.43164,121.125 c 2.73697,1.3273 5.39534,2.82925 8.10742,4.21484 -6.42051,0.29233 -12.80167,0.746 -19.1582,1.30078 3.68708,-1.8216 7.35948,-3.68345 11.05078,-5.51562 z m 37.02539,4.10742 c 15.85655,0.0661 31.71715,0.69143 47.57813,1.44336 -14.35337,4.90614 -28.53111,10.24528 -42.50586,16.08594 -9.30147,-5.67862 -18.47613,-11.55051 -28.08203,-16.63086 7.67015,-0.26041 15.33817,-0.93042 23.00976,-0.89844 z m 239.04887,0.91992 c 10.1652,0.10925 20.3489,0.64624 30.5703,1.86524 24.9628,2.97579 48.2521,10.37877 70.3281,20.67578 -1.8405,0.0658 -3.6852,0.1636 -5.5254,0.22656 -58.6787,2.00667 -117.4271,4.58044 -175.7871,11.28711 -32.94642,3.78617 -67.55298,8.9922 -101.63868,16.88281 -16.2212,-11.63329 -32.91994,-22.64801 -50.05273,-33.1914 15.02679,-6.2485 30.32161,-11.82215 45.72656,-17.00391 31.63685,1.55648 63.28012,3.56077 94.91995,3 30.64,-0.543 60.9633,-4.06994 91.459,-3.74219 z m -266.15824,0.14063 c 10.35854,5.35072 20.53901,11.06599 30.54882,17.11719 -12.5282,5.27779 -24.80075,11.02645 -36.86914,17.16015 -9.25206,-9.36413 -18.91992,-18.19466 -29.28125,-26.03515 2.83991,-1.50334 5.42297,-3.28524 8.31055,-4.73828 1.75801,-0.88452 3.53357,-1.76976 5.30078,-2.64454 7.32846,-0.6651 14.6602,-0.55209 21.99024,-0.85937 z m -26.92383,1.48047 c -3.51252,1.76908 -6.97283,3.64354 -10.4668,5.44726 -1.59053,-1.17411 -3.1528,-2.38842 -4.78125,-3.50781 5.0681,-0.75882 10.15077,-1.40721 15.24805,-1.93945 z m 59.35156,16.75976 c 16.99814,10.35927 33.4491,21.54633 49.53125,33.02344 -19.06745,4.48583 -37.80514,10.04912 -56.09961,16.68164 -10.23748,-10.73968 -20.39205,-21.71048 -30.86328,-32.38867 12.24754,-6.19487 24.72788,-11.99264 37.43164,-17.31641 z M 6.0839844,169.25977 v 1.90429 c 12.4596156,5.85749 24.6451606,12.30842 36.3124996,19.94922 42.256,27.67333 78.067596,64.56186 111.183596,102.36719 5.67333,6.47733 11.27055,13.02128 16.81054,19.61328 0.72135,0.85867 1.94781,-0.37714 1.23047,-1.23047 C 136.67843,270.28462 99.242098,229.34303 54.884766,197.56836 39.422709,186.49253 23.056294,177.28121 6.0839844,169.25977 Z M 2288.5879,193.34375 c 59.0628,3.46212 118.1898,6.40767 177.2695,7.25 42.3539,0.60333 84.9883,-0.6184 127.2324,-4.9707 -98.9049,24.71481 -203.6644,17.95338 -304.5019,-2.2793 z M 862.26367,257.53711 c -33.93121,9.19867 -68.54048,21.67145 -96.64258,43.3125 -5.84533,4.5 -11.3381,9.41687 -16.38476,14.79687 -0.76667,0.816 0.46309,2.05047 1.23242,1.23047 24.076,-25.66133 57.81199,-40.58548 90.72266,-51.29883 6.94358,-2.26017 14.03156,-4.0368 21.07226,-5.9746 z m 1711.80473,63.40625 c 24.0233,0.65265 48.017,2.06505 72.0136,3.37109 v -0.002 c -23.997,-1.30599 -47.9898,-2.71657 -72.0136,-3.36914 z m -53.045,0.79102 c 41.7164,0.3086 83.4037,1.90318 125.0586,4.16992 v -0.002 c -41.6549,-2.26664 -83.3422,-3.8595 -125.0586,-4.16796 z m -316.8867,49.1289 c 42.578,-0.37975 85.148,0.53308 127.7149,1.78125 -20.9201,5.74947 -41.2398,13.26403 -60.7813,22.93555 -5.8557,0.94189 -11.6724,2.14296 -17.5098,3.20508 -1.0609,-0.27313 -2.1327,-0.50474 -3.1933,-0.7793 -22.2763,-5.7666 -44.2383,-12.55736 -66.334,-18.91602 6.488,-2.76649 13.0131,-5.44392 19.5,-8.21289 0.2007,-0.002 0.4029,-0.0119 0.6035,-0.0137 z m -4.9121,0.11328 c -5.8405,2.49322 -11.6937,4.95456 -17.5351,7.44532 -7.6014,-2.19481 -15.2445,-4.25148 -22.8262,-6.50977 13.4683,-0.39727 26.9358,-0.78799 40.3613,-0.93555 z M 771.17383,382.51758 c -1.05467,-0.384 -1.50761,1.29835 -0.46094,1.67969 33.12018,12.06963 63.98075,28.8992 91.55078,50.88476 v -1.07617 c -14.3652,-11.64522 -29.35717,-22.58933 -46.12109,-31.58789 -14.476,-7.76933 -29.54075,-14.27773 -44.96875,-19.90039 z m -625.5625,2.76172 c -20.62667,8.648 -42.69571,14.0103 -64.595705,18.29297 -24.747462,4.84011 -49.808931,8.15773 -74.9316406,10.30859 v 1.55078 c 19.1211426,-1.64131 38.1994116,-3.7701 57.1328126,-6.90625 22.894666,-3.79333 45.753493,-8.59679 67.798823,-15.93945 5.08668,-1.69467 10.11327,-3.55362 15.0586,-5.62696 1.01733,-0.42666 0.57044,-2.11302 -0.46289,-1.67968 z m 2120.77537,12.66601 c -1.7607,0.91152 -3.5565,1.72688 -5.3027,2.67774 -1.2815,-0.3255 -2.5726,-0.6138 -3.8535,-0.94141 3.0557,-0.56357 6.0934,-1.20639 9.1562,-1.73633 z M 759.44922,419.58594 c -1.052,-0.388 -1.50689,1.29373 -0.46289,1.67773 39.69598,14.60109 73.45674,39.84282 103.27734,69.23047 v -2.49609 c -20.83728,-20.45799 -43.4991,-38.91595 -69.11328,-53.06446 -10.83067,-5.984 -22.0905,-11.07699 -33.70117,-15.34765 z m -601.54688,2.83203 C 107.46894,435.50344 56.869226,447.95209 6.0839844,459.60156 v 1.80664 C 48.722729,451.63458 91.250686,441.37462 133.61719,430.48828 c 8.252,-2.12133 16.50004,-4.25258 24.74804,-6.39258 1.084,-0.28266 0.62378,-1.95906 -0.46289,-1.67773 z m 589.61914,34.87695 c -1.04533,-0.404 -1.49889,1.27774 -0.46289,1.67774 32.05067,12.39733 64.7005,25.02897 94.17383,42.93164 7.40535,4.49842 14.41065,9.61668 21.03125,15.15039 v -2.02149 c -18.82831,-15.67387 -41.83139,-27.11659 -64.23633,-37.05664 -16.632,-7.37866 -33.53919,-14.11897 -50.50586,-20.68164 z m -577.30859,2.31641 C 116.7256,474.03724 61.317856,479.08291 6.0839844,480.95508 v 1.74609 c 48.3516596,-1.6159 96.7399756,-5.62853 143.9667956,-16.29297 6.912,-1.56 13.785,-3.27185 20.625,-5.11718 1.08133,-0.29067 0.62244,-1.97303 -0.46289,-1.67969 z m 12.33203,37.25195 c -34.93866,9.55333 -70.68813,16.01819 -106.966795,16.74219 -23.225839,0.4636 -46.345261,-1.44894 -69.4941406,-2.92774 v 1.83789 c 19.9023526,1.28792 39.7917906,2.8188 59.7499996,2.90626 34.113334,0.15066 67.898576,-4.59231 101.003906,-12.68165 5.40933,-1.32266 10.79597,-2.72926 16.16797,-4.19726 1.08,-0.29467 0.62306,-1.97702 -0.46094,-1.67969 z m 12.39258,37.44141 c -46.03067,12.172 -92.82499,21.29907 -139.847656,28.67773 -16.291869,2.55685 -32.658277,4.59204 -49.0058596,6.75781 v 1.75 c 9.4385556,-1.24964 18.9082696,-2.25982 28.3300776,-3.63281 48.502667,-7.06933 96.816298,-15.81638 144.404298,-27.62304 5.53867,-1.37335 11.06603,-2.79196 16.58203,-4.25196 1.08267,-0.28666 0.62378,-1.9644 -0.46289,-1.67773 z m 2326.2617,12.4707 c 18.3313,9.99782 36.7032,19.85219 55.1231,29.61133 -5.3129,-0.25218 -10.6285,-0.44127 -15.9414,-0.69141 -35.3778,-1.66584 -70.8747,-3.15605 -106.3672,-3.8457 22.6373,-7.70067 45.0421,-16.03802 67.1855,-25.07422 z M 207.02344,570.81836 C 157.81991,584.82138 108.01379,596.75861 57.767578,606.39844 40.149562,599.77497 23.117999,591.60897 6.0839844,583.34375 v 1.88086 c 15.9500636,7.70318 31.8489826,15.49353 48.3046876,21.89453 -0.705109,0.13369 -1.400178,0.31649 -2.105469,0.44922 -15.348416,2.88836 -30.759313,5.43879 -46.1992186,7.79297 v 1.65039 c 10.4184816,-1.58459 20.8484006,-3.10368 31.2246096,-4.94336 6.542943,-1.15947 13.011414,-2.70496 19.539062,-3.94922 7.869141,2.97602 15.847198,5.68334 24.082032,7.75977 39.201332,9.884 80.001702,7.21133 119.207032,-1.25 6.612,-1.42667 13.18389,-3.02238 19.72656,-4.73438 1.08267,-0.284 0.62573,-1.96369 -0.46094,-1.67969 -41.94266,10.97867 -86.17136,16.86663 -129.082028,8.0293 -10.285453,-2.11786 -20.156505,-5.30397 -29.890624,-8.84961 41.785212,-8.0661 83.322192,-17.4558 124.388672,-28.59375 7.56933,-2.052 15.12334,-4.15802 22.66602,-6.30469 1.07599,-0.30533 0.62039,-1.9844 -0.46094,-1.67773 z m 2223.45706,2.31055 c 4.4228,0.0153 8.8388,0.23905 13.2617,0.29297 -27.7352,9.17674 -55.693,17.69468 -84.0684,24.77734 -78.9453,19.70533 -160.0193,31.03842 -241.3886,32.84375 -0.1356,0.003 -0.2708,-0.007 -0.4063,-0.004 39.3591,-15.88171 79.5214,-29.66402 121.1816,-39.38672 62.867,-14.671 127.118,-18.74593 191.42,-18.52343 z M 699.77344,608.4668 v 0.002 c 0.0653,0.0235 0.13193,0.0371 0.19726,0.0606 -0.0654,-0.0235 -0.13187,-0.0389 -0.19726,-0.0625 z m 99.29687,19.86328 c 6.25647,0.40269 12.50635,0.91274 18.7793,1.04101 5.9091,0.12086 11.83468,-0.15712 17.75391,-0.26367 -12.201,0.21952 -24.38497,0.005 -36.53321,-0.77734 z m 60.28125,6.58789 c 9.05147,4.61145 18.02814,9.37802 27.00977,14.13476 5.93132,7.35945 11.69054,14.80765 17.41992,22.29102 0.0531,2.20988 0.0425,4.42624 0.14258,6.63086 -13.56486,0.008 -27.12144,-0.14945 -40.64844,-0.81836 -1.09824,-11.97556 -1.81128,-24.00301 -2.95898,-35.95313 -0.20267,-2.10985 -0.72653,-4.17615 -0.96485,-6.28515 z m 420.43364,0.0215 c 12.3568,7.55651 24.6888,15.16144 37.4589,21.99414 -21.8098,11.66144 -44.2585,22.08849 -67.0742,31.79297 -36.4474,-7.62209 -72.222,-18.37994 -106.7168,-32.35156 45.4548,-7.06958 90.8939,-14.25114 136.3321,-21.43555 z M 231.75,645.52539 c -46.52533,12.892 -94.78484,23.73425 -143.326172,23.40625 C 60.175574,668.73773 32.81688,663.50726 6.0839844,654.87305 v 1.29883 c 23.0338666,7.36209 46.4275806,13.01852 70.7851566,14.18554 44.805329,2.15067 89.742859,-6.31999 132.992189,-17.22265 7.47466,-1.884 14.92356,-3.87297 22.35156,-5.93165 1.07867,-0.29866 0.61978,-1.9764 -0.46289,-1.67773 z m 658.36523,5.51953 c 4.47869,2.38291 8.97836,4.72132 13.44336,7.13281 -0.015,3.33449 0.10099,6.65228 0.15235,9.98047 -2.89962,-3.8566 -5.86983,-7.65827 -8.81641,-11.47851 -1.52168,-1.97285 -3.23259,-3.6957 -4.7793,-5.63477 z m 250.53317,5.77149 c 34.4973,14.13476 70.1815,25.32382 106.6621,33.10156 -8.7615,3.68361 -17.3845,7.64084 -26.3183,10.98242 -51.0177,19.08349 -103.8942,30.25694 -157.6602,34.77734 -14.7301,-15.22186 -28.872,-31.03068 -42.0644,-47.40429 -3.7965,-4.712 -7.2324,-9.69816 -10.9492,-14.47071 42.1133,-4.08418 84.0646,-9.79898 125.4062,-16.21289 1.6417,-0.2547 3.2822,-0.51833 4.9238,-0.77343 z m 178.125,0.94921 c 17.778,9.45919 35.9372,18.2014 54.4219,26.19141 -5.0031,3.11226 -9.844,6.46916 -14.9023,9.49805 -4.3881,2.62755 -9.0433,4.89343 -13.4844,7.45898 -30.5534,-1.67152 -60.9696,-5.47679 -90.9629,-11.56445 22.0969,-9.52604 43.6946,-20.16447 64.9277,-31.58399 z m -413.36129,1.39649 c 10.96912,5.93544 21.86726,12.02601 32.77734,18.08594 -8.9444,0.33369 -17.8862,0.7945 -26.82226,0.875 -2.03786,-2.72692 -4.17795,-5.37452 -6.22071,-8.09766 -0.013,-3.6647 0.17378,-7.19997 0.26563,-10.86328 z m -0.23438,13.9707 c 1.26934,1.66059 2.59844,3.28203 3.86524,4.94336 -1.18393,0.008 -2.36315,-0.0732 -3.54688,-0.0703 -0.0579,-1.63433 -0.29402,-3.23386 -0.31836,-4.87305 z m 102.75977,0.87305 c 16.6042,21.39543 34.0024,42.38728 52.8457,61.95898 -4.0305,0.32182 -8.0296,0.83374 -12.0703,1.07618 -35.1249,-19.31195 -69.99371,-39.10935 -104.97462,-58.68164 21.41534,-0.90047 42.817,-2.31558 64.19922,-4.35352 z m -144.47656,4.40234 c 13.47419,0.64612 26.97063,1.02337 40.49414,1.01172 0.32534,6.41971 0.8787,12.81356 1.79101,19.16211 1.67894,11.6806 4.69627,24.08191 12.23243,33.48242 -15.07299,-1.79766 -30.11185,-3.88681 -45.10157,-6.34179 -1.63326,-4.555 -3.31831,-9.06936 -4.46093,-13.98243 -2.55292,-10.97932 -3.89978,-22.1365 -4.95508,-33.33203 z m 76.9375,0.0742 c 35.27571,19.61862 70.61536,39.13004 105.98246,58.60156 -17.5098,0.98439 -35.0848,1.45077 -52.74809,0.9629 -11.58864,-0.32012 -23.09771,-1.54893 -34.64258,-2.38282 -6.43479,-6.68417 -13.07153,-13.16913 -19.03125,-20.32031 -9.64937,-11.57811 -18.50888,-23.76964 -27.52929,-35.83594 9.31524,-0.0949 18.64389,-0.66324 27.96875,-1.02539 z m -34.80664,0.97852 c 1.54409,-0.004 3.07852,0.12922 4.62304,0.11718 14.66638,19.23733 29.81327,38.09222 46.24024,55.91211 -11.62158,-0.8753 -23.25308,-1.57729 -34.82813,-2.91211 -4.09985,-4.65249 -7.7135,-9.72048 -9.91211,-15.92773 -4.18309,-11.81052 -5.58399,-24.42637 -6.12304,-37.18945 z m -661.6211,2.98633 c -24.148,6.476 -48.03872,13.84897 -71.52539,22.43164 -17.30933,6.32533 -34.34777,13.34251 -51.53711,19.97851 -18.16666,7.01334 -36.564252,13.0329 -55.294919,18.35156 -19.812465,5.62699 -39.673553,11.08004 -59.5292966,16.55079 v 1.72851 c 12.9247906,-3.55976 25.8958646,-6.9484 38.7968746,-10.59375 21.646667,-6.11467 43.303544,-12.05721 64.435551,-19.81055 16.75733,-6.148 33.24091,-13.01043 49.90625,-19.39843 21.24533,-8.144 42.78686,-15.44708 64.63086,-21.81641 6.83866,-1.99333 13.70141,-3.89881 20.58007,-5.74414 1.08134,-0.28933 0.62111,-1.9684 -0.46289,-1.67773 z m 1623.9785,1.75195 c 26.253,9.96333 52.9562,18.57235 79.9121,26.36523 -15.5666,8.16834 -31.2509,16.22643 -46.7324,24.39453 -32.7811,17.296 -65.6832,34.4898 -99.0488,50.6875 -2.8785,0.33488 -5.7746,0.43486 -8.6504,0.80079 -74.0093,9.41733 -143.1866,33.65726 -214.5586,53.97461 -2.6153,0.74458 -5.2926,1.22516 -7.9141,1.94726 59.2162,-30.33851 116.3741,-64.74331 174.8907,-96.36719 40.1146,-21.67816 81.2498,-41.48093 122.1015,-61.80273 z m -493.0351,0.50976 c 13.3835,5.74963 27.1508,11.09376 41.08,16.1543 -22.5586,1.35496 -45.1563,1.44239 -67.7363,0.33203 9.0286,-5.26378 17.7945,-10.95292 26.6563,-16.48633 z m -124.461,5.99414 c 30.1691,6.2707 60.8277,9.93367 91.584,11.74415 -65.1387,37.33758 -135.6496,67.58248 -210.334,77.74414 -16.1299,-7.87418 -32.1328,-15.99443 -47.9941,-24.38672 -6.3576,-5.81323 -12.3856,-11.95419 -18.4199,-18.12305 31.9333,-2.57961 63.7854,-7.59576 95.4433,-15.82422 30.8821,-8.02693 60.6497,-18.79245 89.7207,-31.1543 z m 699.6739,20.49024 c 19.597,5.61996 39.3323,10.72299 59.2168,15.29297 -30.7441,13.12688 -61.4601,26.30066 -92.4043,38.1582 -14.7479,5.6511 -29.6954,10.71234 -44.6192,15.8418 -21.9807,0.81677 -43.9194,2.32291 -65.7988,4.74805 10.8096,-5.27552 21.6413,-10.51318 32.3555,-15.95313 37.1478,-18.86236 74.1366,-38.55527 111.25,-58.08789 z M 620.45508,722.07227 c -0.43517,-1.7e-4 -0.8711,0.27917 -0.8711,0.83984 0.0225,41.85433 2.42874,83.60581 5.14649,125.35547 h 1.78711 c -2.32026,-36.1669 -4.60026,-72.33206 -5.08008,-108.58399 -0.0747,-5.59066 -0.10866,-11.18081 -0.11133,-16.77148 -6.6e-4,-0.56 -0.43593,-0.83968 -0.87109,-0.83984 z m -39.14649,0.79101 c -0.4355,-1.7e-4 -0.87109,0.27918 -0.87109,0.83984 -0.0187,20.63201 -0.7584,41.34768 -3.92773,61.76368 -2.30934,14.88133 -6.07001,29.43846 -10.02735,43.95312 -1.71433,6.28828 -3.50088,12.5541 -5.18945,18.84766 h 1.78515 c 0.83222,-3.07129 1.74594,-6.11669 2.57813,-9.18946 3.91867,-14.46799 8.05286,-28.89557 10.88086,-43.6289 3.38,-17.61333 4.86005,-35.50988 5.38672,-53.42188 0.18,-6.10533 0.25052,-12.21487 0.25586,-18.32422 6.6e-4,-0.55999 -0.4356,-0.83967 -0.8711,-0.83984 z m -39.12695,0.79297 c -0.43533,0 -0.87729,0.27984 -0.89062,0.83984 -0.52667,21.972 -2.82455,44.2321 -10.42188,64.9961 -5.10939,13.9643 -12.94132,26.48491 -21.63672,38.44726 -3.3293,-28.5754 -5.01004,-57.34487 -5.27539,-86.08984 -0.0507,-5.52 -0.0709,-11.04117 -0.0723,-16.5625 0,-1.12 -1.74219,-1.12133 -1.74219,0 0.009,35.12319 1.09191,70.35891 5.32031,105.26172 -0.40827,0.54834 -0.73433,1.14764 -1.14648,1.69336 -4.04426,5.35497 -8.25568,10.71254 -12.42188,16.02539 h 2.30664 c 2.01182,-2.57421 3.9411,-5.21228 5.95117,-7.78711 1.91453,-2.45167 3.65285,-5.03238 5.52344,-7.51953 0.29022,2.3051 0.29278,4.63782 0.61524,6.93945 0.39567,2.824 1.23105,5.55416 1.68359,8.36719 h 1.5625 c -0.94503,-5.90494 -1.29863,-11.87927 -2.01953,-17.8125 7.09633,-9.61152 13.83389,-19.47279 18.85156,-30.36914 8.152,-17.70134 12.00754,-36.9212 13.6582,-56.25586 0.548,-6.432 0.84924,-12.88065 1.00391,-19.33399 0.0133,-0.56 -0.41428,-0.83984 -0.84961,-0.83984 z m -78.31445,1.58203 c -0.43534,-1.7e-4 -0.8711,0.28113 -0.8711,0.8418 0.003,40.73393 0.55978,81.46973 1.75782,122.1875 h 1.73632 c -1.00324,-34.12036 -1.62577,-68.25123 -1.72461,-102.38477 -0.02,-6.60133 -0.0273,-13.2014 -0.0273,-19.80273 0,-0.56 -0.43576,-0.84163 -0.87109,-0.8418 z m -39.14649,0.79102 c -0.43533,-1.7e-4 -0.87109,0.28113 -0.87109,0.84179 -0.007,32.268 -0.7882,64.46326 -2.76953,96.66993 -0.506,8.23797 -0.8764,16.48268 -1.26563,24.72656 h 1.84766 c 0.26516,-5.43057 0.32389,-10.86854 0.64648,-16.29102 1.72534,-28.992 3.00409,-57.93042 3.21875,-86.98242 0.0453,-6.04133 0.0612,-12.08171 0.0625,-18.12305 0,-0.56 -0.4338,-0.84163 -0.86914,-0.84179 z m -39.44336,0.85351 c -0.43533,-5e-4 -0.86299,0.27851 -0.84765,0.83985 1.08447,40.17182 1.30765,80.37658 -0.0957,120.54492 h 1.54688 c 1.21366,-34.75038 1.44504,-69.53193 0.6875,-104.29297 -0.11733,-5.41733 -0.2531,-10.83462 -0.39844,-16.25195 -0.0153,-0.55934 -0.45724,-0.83935 -0.89258,-0.83985 z m -38.85156,0.73047 c -0.43517,-3.3e-4 -0.86914,0.28046 -0.86914,0.8418 0.0131,39.99007 1.64597,79.90615 4.10156,119.8125 h 1.82422 c -2.02143,-33.83582 -3.73704,-67.67295 -4.0918,-101.58203 -0.0627,-6.07734 -0.0924,-12.15314 -0.0937,-18.23047 -6.8e-4,-0.56 -0.43593,-0.84147 -0.8711,-0.8418 z m -39.14844,0.79297 c -0.43516,-3.3e-4 -0.86914,0.27851 -0.86914,0.83984 0.0233,39.6888 1.91444,79.34421 2.48633,119.02149 h 1.61133 c -0.49209,-33.65348 -1.73568,-67.30005 -2.2207,-100.95117 -0.0867,-6.02267 -0.13272,-12.04632 -0.13672,-18.07032 -6.7e-4,-0.56 -0.43593,-0.83951 -0.8711,-0.83984 z m 615.91407,5.92383 c 11.65924,1.31624 23.33374,2.1264 35.00781,2.97461 5.24424,5.61478 10.3108,11.36521 15.98828,16.65234 6.77155,6.30648 13.74571,12.41578 20.59766,18.6543 -16.4292,-4.78748 -32.4907,-10.94759 -47.1875,-19.74024 -8.88168,-5.31356 -17.44489,-11.23211 -24.40625,-18.54101 z m 37.53711,3.18945 c 29.5419,2.05509 59.09748,2.78856 88.61128,1.16797 10.7212,5.88917 21.4609,11.74054 32.2559,17.48242 10.0985,9.27475 20.7096,17.9457 31.7754,26.08203 -36.7044,3.36037 -74.3189,2.12732 -110.0723,-6.90625 -1.6504,-0.41697 -3.2205,-1.11175 -4.86325,-1.5625 -12.9942,-11.66526 -25.54823,-23.76912 -37.70703,-36.26367 z m 101.99218,0.32422 c 5.0081,5.14799 10.212,10.08402 15.4414,14.99414 -8.9058,-4.74624 -17.8436,-9.43127 -26.6933,-14.28516 3.7513,-0.2187 7.5026,-0.422 11.2519,-0.70898 z m 26.0664,22.22461 c 6.4448,3.39711 12.7391,7.0948 19.2207,10.41797 6.8373,3.50551 13.8994,6.7429 20.8301,10.14648 -1.7736,0.22882 -3.5169,0.60841 -5.2949,0.81446 -2.6717,0.30957 -5.3888,0.37932 -8.0723,0.63867 -9.3235,-6.78549 -18.0366,-14.36215 -26.6836,-22.01758 z m 42.6465,21.82812 c 53.1143,25.93402 108.7585,48.4421 166.0371,63.36719 -14.2019,-1.89454 -28.3662,-4.05416 -42.4258,-6.85742 -36.316,-7.24 -72.8838,-17.12153 -105.6465,-34.76953 -10.9972,-5.92344 -21.4274,-12.67904 -31.5254,-19.89063 4.5403,-0.464 9.0394,-1.23435 13.5606,-1.84961 z m 735.5918,0.47071 c -47.1575,15.99057 -95.0586,29.6156 -143.6133,40.29492 26.6308,-10.93915 52.9014,-22.74319 78.8164,-35.31055 21.524,-2.4998 43.1364,-4.05927 64.7969,-4.98437 z m -69.5117,5.4082 c -27.1948,13.10975 -54.7915,25.3359 -82.8145,36.58008 -51.0223,10.86928 -102.6609,18.5405 -154.6133,23.36133 1.0294,-0.5159 2.0951,-0.95993 3.1231,-1.47852 58.1572,-15.37796 114.7914,-36.56488 173.8281,-48.70703 20.0341,-4.12034 40.2144,-7.28305 60.4766,-9.75586 z"
             transform="matrix(0.75000002,0,0,-0.75000002,-4.5630654,3752.0308)"
             inkscape:label="esterno" />
          <path
             id="path89502"
             style="opacity:0.485055;fill:url(#meshgradient25753);fill-opacity:1;fill-rule:nonzero;stroke:none;stroke-width:1.33333;stroke-opacity:1"
             d="m 895.03516,233.5918 c 5.33637,4.31087 10.67677,8.61331 15.96679,12.99218 -15.85127,2.99082 -31.62997,6.3203 -47.19922,10.49805 -0.5123,0.13748 -1.02642,0.3161 -1.53906,0.45508 v 2.06641 c 16.58798,-4.56549 33.32818,-8.60235 50.2793,-11.73633 4.34097,3.62429 8.86723,6.99076 13.03515,10.85351 31.78535,29.45734 58.05534,64.20506 82.94338,99.51172 23.5667,33.432 46.0451,67.67572 71.3144,99.87305 26.176,33.35333 55.2432,64.42508 86.7032,92.84375 1.781,1.60891 3.7388,3.01154 5.5351,4.60351 -31.3802,9.05867 -62.8179,17.9089 -94.164,27.0918 -0.071,0.0208 -0.1457,0.0397 -0.2168,0.0605 0.071,-0.0207 0.146,-0.0379 0.2168,-0.0586 31.346,-9.18287 62.7838,-18.03298 94.164,-27.09179 30.3587,26.90511 63.0131,51.10109 97.2852,72.80469 h 3.6426 c -29.3141,-18.33175 -57.7151,-38.12551 -84.2032,-60.3379 -32.4853,-27.24133 -62.6861,-57.21282 -90.1074,-89.54882 -28.26,-33.324 -52.749,-69.46246 -77.625,-105.31446 -23.48132,-33.84 -47.52249,-67.55395 -75.92382,-97.50195 -9.68489,-10.2134 -20.25782,-19.22021 -30.98633,-28.01953 22.98154,-4.19517 46.16608,-7.38692 69.2832,-9.92578 3.03716,-0.33355 6.10143,-0.40357 9.14063,-0.71875 41.26012,29.85176 82.89102,59.11853 126.94332,85.34765 71.8054,42.75334 146.6821,80.19149 223.1797,113.77149 34.6966,15.23076 69.8046,29.49159 105.0899,43.29492 -56.0008,14.58262 -111.9275,29.43378 -167.6407,45.05273 55.7142,-15.61884 111.6408,-30.46803 167.6426,-45.05078 v -0.002 c 1.0956,-0.28532 2.1835,-0.59798 3.2793,-0.88281 -0.741,-0.28946 -1.4721,-0.6026 -2.2129,-0.89258 -29.6028,-11.58898 -59.2293,-23.13167 -88.4258,-35.69727 -77.3802,-33.30266 -153.1965,-70.4106 -226.0058,-112.83593 -48.3455,-28.17127 -93.9214,-59.85909 -139.04689,-92.32618 14.10559,-1.43671 28.28839,-2.08818 42.42969,-3.17968 h -29.2539 c -5.0456,0.58026 -10.08669,1.25373 -15.14063,1.75976 -0.81136,-0.58458 -1.6221,-1.17553 -2.43359,-1.75976 h -3.0918 c 0.95022,0.68864 1.90304,1.38194 2.85351,2.07031 -26.16851,2.67203 -52.31183,5.82135 -78.18164,10.64453 -5.20699,-4.24989 -10.43609,-8.4741 -15.65234,-12.71484 z m 553.82614,244.03906 c 26.4231,-6.8671 52.7674,-14.03718 79.2637,-20.61914 0.4777,0.47179 0.9671,0.93106 1.4453,1.40234 0,0 0,0 0,0 11.6501,11.4841 23.342,22.92431 35.3203,34.06055 -8.7053,6.25477 -17.4415,12.521 -26.1524,18.81641 -29.3678,-10.54702 -58.5966,-21.41278 -87.6621,-32.76563 10.7923,-2.8052 21.4969,-5.92529 32.3028,-8.68164 15.3678,-3.92012 30.7957,-7.60799 46.1894,-11.42969 -15.3932,3.82154 -30.8202,7.50774 -46.1875,11.42774 -10.807,2.75663 -21.5132,5.87612 -32.3066,8.68164 v 0.002 c -1.0963,0.28499 -2.1851,0.59737 -3.2813,0.88281 29.534,11.55344 59.3204,22.42754 89.1602,33.16797 -49.3358,35.65798 -99.0008,71.27168 -150.5449,103.7168 -25.6668,4.01849 -51.3215,8.05063 -76.9805,12.06641 h 12.2031 c 16.9345,-2.66973 33.8662,-5.35689 50.8067,-7.98829 3.3794,-0.52495 6.7477,-1.12665 10.1269,-1.65429 -5.3901,3.36809 -10.9951,6.33812 -16.4199,9.64258 h 2.9473 c 5.8219,-3.53202 11.8414,-6.68568 17.6093,-10.31836 36.4459,-5.70447 72.8797,-11.52411 109.2168,-17.9004 -13.1853,9.53502 -26.5133,18.85641 -39.8144,28.21876 h 2.7187 c 13.6317,-9.60428 27.2843,-19.17429 40.8164,-28.93946 38.5117,-6.79494 76.9391,-14.05148 115.1641,-22.33594 13.3374,-2.89072 26.5824,-6.0846 39.832,-9.26171 19.227,14.28259 39.0325,27.69295 59.3184,40.35156 -13.6068,6.88332 -27.3097,13.59747 -41.0664,20.18555 h 4.4472 c 12.8371,-6.25261 25.52,-12.79609 38.2715,-19.21485 10.913,6.77645 22.2113,12.92048 33.418,19.21485 h 3.9121 c -11.905,-6.56321 -23.8708,-13.02206 -35.4375,-20.16407 15.2716,-7.69765 30.6128,-15.25995 45.8477,-23.01953 19.0867,5.06209 38.2688,9.75744 57.5214,14.17578 -7.8672,5.71615 -15.8664,11.24339 -23.6523,17.07422 -5.3497,4.00609 -10.7535,7.9663 -16.1465,11.9336 h 3.752 c 12.8488,-9.48988 25.7134,-18.95323 38.4629,-28.41211 0.9292,0.21176 1.8457,0.47345 2.7753,0.68359 48.5589,10.97726 97.7431,19.31542 147.2227,24.93359 -1.6447,0.96532 -3.3453,1.83651 -4.9941,2.79493 h 3.8515 c 1.445,-0.84593 2.9372,-1.60512 4.3789,-2.45704 8.8744,0.98302 17.778,1.63884 26.668,2.45704 h 23.5566 c -15.9782,-1.06914 -31.9635,-2.06516 -47.8886,-3.79102 4.0764,-2.42338 8.3067,-4.56374 12.3496,-7.04883 37.8706,-23.27866 73.2973,-49.68961 106.2773,-79.48828 4.9269,-4.45187 9.7042,-9.06747 14.5684,-13.58789 v -2.11914 c -16.1086,14.912 -32.3763,29.61863 -49.4473,43.29492 -27.3952,21.94797 -56.8462,40.76224 -86.9453,58.53906 -39.5019,-4.38913 -78.8301,-10.49317 -117.791,-18.45312 -10.864,-2.21947 -21.6215,-4.89109 -32.4317,-7.3418 7.723,-5.70885 15.3949,-11.667 23.1915,-17.10547 52.3112,-36.48958 107.0717,-69.71275 164.1308,-98.30078 32.6878,-8.83128 65.8914,-15.38054 99.293,-19.95898 v -1.94532 c -30.8976,4.21297 -61.6191,10.15772 -91.8789,18.00782 21.0706,-10.3594 42.4329,-20.11893 64.166,-29.04297 9.1642,-3.76313 18.4503,-7.09602 27.7129,-10.51172 v -2.11524 c -33.6729,12.70476 -66.5909,27.35317 -98.8047,43.44922 -18.2807,4.90584 -36.4188,10.32111 -54.2969,16.36328 -67.7293,22.88963 -131.8818,53.64793 -195.4492,85.94532 -26.5603,-7.05222 -52.987,-14.58952 -79.2617,-22.66211 121.184,-31.06329 238.9427,-73.21052 354.9531,-120.39649 24.4106,-9.92878 48.5949,-20.40376 72.8594,-30.68554 v -1.41992 c -4.1366,1.74304 -8.2559,3.5312 -12.3965,5.26367 -134.9387,56.46133 -271.8135,109.56407 -413.8535,145.4414 -1.4008,0.35384 -2.8134,0.64927 -4.2149,1 -19.7812,-6.10191 -39.4842,-12.43235 -59.1191,-18.97265 -0.085,-0.0697 -0.1768,-0.12948 -0.2617,-0.19922 -5.8163,-4.77474 -11.3177,-9.89794 -17.0293,-14.78906 34.3902,-22.48311 69.7262,-43.43657 107.0019,-61.25782 124.7932,-59.66252 262.3858,-83.03265 399.8731,-90.48242 v -1.46484 c -112.8361,6.06283 -225.1329,22.39296 -331.4356,61.32422 -62.7376,22.97748 -120.8157,54.7881 -176.5664,90.90039 -12.2485,-10.51687 -24.4206,-21.11518 -36.2558,-32.08594 45.5947,-32.69023 91.4384,-65.0578 139.3769,-94.23047 65.5654,-39.89867 134.5167,-74.13632 205.6367,-102.95898 2.0304,-0.82291 4.0992,-1.54138 6.1329,-2.35547 63.8332,23.51091 128.2348,45.34329 193.1113,65.71289 v -1.69531 c -64.0515,-20.15484 -127.6459,-41.74944 -190.6953,-64.94532 17.9623,-7.1554 36.0514,-13.96128 54.2539,-20.44531 45.4742,3.64474 90.9584,7.16522 136.4414,10.69531 v -1.83984 c -44.0967,-3.39145 -88.196,-6.75418 -132.2813,-10.28711 39.0375,-13.78571 78.6536,-25.82008 118.5899,-36.7207 h -6.4102 c -39.3188,10.83245 -78.3624,22.65809 -116.8125,36.35547 -14.4119,-1.15483 -28.8283,-2.26546 -43.2402,-3.41602 -33.2364,-2.6535 -66.4983,-5.07707 -99.7422,-7.6875 -21.5216,-8.20453 -43.0846,-16.31523 -64.5605,-24.60742 -0.5618,-0.21689 -1.1258,-0.42765 -1.6876,-0.64453 h -4.6191 c 21.51,8.27653 43.0254,16.54373 64.5625,24.76758 -122.5907,-9.60553 -245.2434,-18.50181 -368.0449,-24.76758 h -33.5488 c 135.8736,6.2822 271.5606,16.26633 407.1621,26.90234 28.2791,10.78196 56.6701,21.24679 85.0664,31.71875 -49.6525,19.95774 -98.2956,42.42652 -145.461,67.71484 -38.493,20.63856 -75.4586,43.71236 -111.8672,67.66797 -24.4101,16.06115 -48.6982,32.31626 -72.5527,49.25782 -6.7215,4.77385 -13.4555,9.69236 -20.1699,14.51367 -11.8232,-10.98817 -23.5644,-22.06661 -35.0684,-33.39649 -30.3347,-29.87578 -59.7483,-60.71944 -89.0097,-91.60351 -42.3632,-44.71098 -84.5348,-90.52468 -129.7227,-132.77539 h -3.123 c 11.0255,10.4328 22.0033,20.92988 32.7226,31.56445 29.756,29.52267 58.6207,59.92418 87.4434,90.35352 32.3929,34.20073 64.916,68.37772 98.4492,101.5 -26.4966,6.58204 -52.8403,13.75395 -79.2637,20.62109 z m -371.1679,105.07422 c -15.6018,4.5701 -31.8371,8.6362 -47.793,13.01562 0.1489,0.103 0.3022,0.19992 0.4512,0.30274 15.8948,-4.36432 31.7986,-8.76541 47.3418,-13.31836 z m -47.3418,13.31836 c -0.4873,0.13378 -0.9637,0.27476 -1.4512,0.4082 8.5865,5.93879 17.092,11.9896 26.0332,17.44727 8.5317,5.20786 17.4181,9.76738 26.2207,14.48047 h 2.9258 c -18.3714,-9.83323 -36.5035,-20.44901 -53.7285,-32.33594 z m -1.4512,0.4082 c -0.1535,-0.10614 -0.3115,-0.20618 -0.4649,-0.3125 -9.9379,2.71914 -19.705,5.56592 -29.74995,8.10156 10.13855,-2.5585 20.18525,-5.04377 30.21485,-7.78906 z m -30.21485,7.78906 c -11.54193,2.91265 -23.12999,5.66169 -34.78125,8.2168 -16.40379,-22.40896 -32.77836,-44.83983 -50.09571,-66.55469 -16.00408,-20.06682 -33.07144,-39.74755 -51.54492,-57.88476 v 2.49609 c 10.63435,10.47995 20.82888,21.41528 30.52735,32.68359 24.68696,28.68271 47.17793,59.09904 69.50781,89.63868 -0.39136,0.0851 -0.77651,0.19073 -1.16797,0.27539 0.39454,-0.0853 0.78916,-0.1681 1.18359,-0.25391 3.79979,5.19682 7.68743,10.32267 11.48438,15.52149 h 2.14844 c -3.96791,-5.31692 -8.08665,-10.51904 -12.00586,-15.87305 11.68114,-2.56173 23.17293,-5.34471 34.74414,-8.26563 z m 29.74995,-8.10156 c 0.4893,-0.13387 0.9759,-0.26422 1.4649,-0.39844 -8.9565,-6.19693 -17.7499,-12.60015 -26.125,-19.46289 -21.50669,-17.62266 -40.38251,-38.07859 -58.70118,-58.91992 -26.1328,-29.73074 -52.49178,-58.75399 -82.81055,-83.33203 v 1.07617 c 0.39831,0.31763 0.82965,0.58254 1.22656,0.90235 22.50934,18.13466 42.29839,39.26696 61.37305,60.90429 18.2,20.64533 35.93023,41.76088 55.71289,60.93555 14.75896,14.30443 31.05113,26.64016 47.85933,38.29492 z m 809.293,-335.14844 c 14.8581,1.1674 29.7319,2.18086 44.5879,3.35742 29.5957,2.3441 59.1928,4.68486 88.7871,7.05665 -17.5597,6.30864 -35.0051,12.9378 -52.3301,19.86914 -27.0672,-9.97126 -54.0896,-20.0237 -81.0449,-30.28321 z m 159.6348,101.50586 c -34.8141,5.34 -69.5592,11.12708 -104.2266,17.31641 -34.4264,6.14655 -68.7797,12.68836 -103.0605,19.58203 34.2815,-6.89367 68.6335,-13.43341 103.0605,-19.58008 34.6674,-6.18933 69.4125,-11.97827 104.2266,-17.31836 z m 6.8203,123.07617 c -32.2224,16.46542 -63.8748,34.06757 -94.5215,53.23633 -29.6543,18.54763 -58.3488,38.51353 -86.6601,59.02344 -19.0658,-4.35319 -38.0555,-8.99617 -56.9629,-13.98828 43.3205,-22.04891 86.833,-43.68467 131.9629,-62.04297 34.4738,-14.02362 70.0567,-26.08343 106.1816,-36.22852 z m -437.8848,8.17383 c 11.8068,10.9483 23.8669,21.62371 36.0879,32.125 -2.7119,1.76259 -5.3911,3.58574 -8.0918,5.36914 -17.9584,-6.14916 -35.7365,-12.82288 -53.6094,-19.23047 8.5068,-6.12841 17.092,-12.15109 25.6133,-18.26367 z m -27.4238,19.55469 c 11.5619,4.15475 22.9983,8.65601 34.5957,12.70703 6.3119,2.20484 12.6754,4.27113 19,6.44336 -9.0086,5.96958 -18.1198,11.75125 -27.0156,17.92774 -22.058,15.31497 -43.7669,31.17274 -65.5449,46.92382 -36.378,6.43748 -72.7894,12.61981 -109.3008,18.35157 47.1236,-29.88997 92.7016,-62.42905 137.5429,-94.70899 3.5613,-2.56362 7.1618,-5.07916 10.7227,-7.64453 z m -676.61133,1.75195 v 2.02149 c 10.26345,8.57851 19.37671,18.40052 25.87695,30.35547 12.93998,23.80075 15.45524,49.16235 15.70508,74.93359 -11.67066,1.63987 -23.35444,2.62921 -35.04882,3.57031 -2.07802,-2.22354 -4.32643,-4.23729 -6.53321,-6.30273 v 1.84961 c 1.51108,1.54481 3.05942,3.03733 4.54297,4.62109 -1.51477,0.1163 -3.02899,0.24354 -4.54297,0.38281 v 0.002 c 1.51398,-0.13928 3.02821,-0.26652 4.54297,-0.38282 0.35733,0.38148 0.70081,0.78244 1.05664,1.16602 0.6473,-0.0524 1.29411,-0.0938 1.94141,-0.14844 -0.34946,-0.37686 -0.65515,-0.81026 -1.00586,-1.18554 11.69367,-0.94112 23.37693,-1.93051 35.04687,-3.57032 0.003,0.34945 -0.0121,0.70314 -0.01,1.05274 0.72412,-0.1021 1.44593,-0.23147 2.16992,-0.33594 -10e-4,-0.35549 -0.0638,-0.70888 -0.0664,-1.06445 13.40788,-1.9281 26.81212,-3.99133 40.16407,-6.66407 -13.352,2.6727 -26.75614,4.73405 -40.16407,6.66211 -0.15359,-20.82894 -2.62591,-41.78332 -9.9375,-61.39257 -7.01763,-18.8231 -19.15817,-33.43292 -33.73828,-45.57032 z m 43.74219,108.0293 c 2e-4,0.064 0.0135,0.12745 0.0137,0.19141 8.55575,-1.23454 17.09112,-2.62199 25.62109,-4.16211 -8.52734,1.53959 -17.08166,2.73651 -25.63476,3.9707 z m 0.0137,0.19141 c -0.72759,0.10498 -1.45586,0.19233 -2.18359,0.29492 0.0112,1.59758 -0.0373,3.21035 -0.0391,4.81055 h 2.36914 c 0.008,-0.64015 0.0426,-1.33479 0.0488,-1.97071 0.0102,-1.04593 -0.19282,-2.0879 -0.19531,-3.13476 z m -2.18359,0.29492 c -3.5e-4,-0.0499 3.6e-4,-0.10045 0,-0.15039 -2.52501,0.35601 -5.03999,0.84548 -7.56641,1.17187 2.52305,-0.32594 5.04477,-0.666 7.56641,-1.02148 z m -34.03125,3.55273 c 0.0738,0.0796 0.13914,0.17034 0.21289,0.25 5.84573,-0.49559 11.68801,-0.93133 17.53125,-1.60351 -5.91363,0.68024 -11.82799,0.85422 -17.74414,1.35351 z m 0.21289,0.25 c -0.64072,0.0543 -1.28116,0.1022 -1.92188,0.1543 0.26023,0.28111 0.51279,0.57301 0.77344,0.85352 h 2.00391 c -0.29517,-0.32296 -0.55857,-0.6871 -0.85547,-1.00782 z m -1.92188,0.1543 c -0.0781,-0.0844 -0.15425,-0.1716 -0.23242,-0.25586 -1.86701,0.15102 -3.73324,0.28454 -5.59961,0.42773 v 0.29102 c 1.94396,-0.15715 3.88787,-0.30481 5.83203,-0.46289 z M 1603.4551,526.80273 c 2.1148,1.81266 4.1093,3.75537 6.2383,5.55274 2.9402,2.48225 6.0729,4.69122 9.041,7.13476 -5.4774,-1.83194 -10.9963,-3.54846 -16.4629,-5.4082 -2.0825,-0.70847 -4.1314,-1.51681 -6.2129,-2.22851 2.485,-1.65189 4.9017,-3.41459 7.3965,-5.05079 z m -9.1524,6.25 c 9.5005,3.25731 19.0043,6.50352 28.5352,9.67579 9.9222,8.07547 19.8702,16.11454 30.0976,23.75 -49.4832,11.63794 -99.3731,21.2526 -149.4043,30.15429 29.9829,-21.63568 60.068,-43.10828 90.7715,-63.58008 z m 32.6289,11.06446 c 17.0496,5.64837 34.1774,11.04394 51.334,16.35742 -7.5704,1.88088 -15.1737,3.60008 -22.7617,5.39453 -9.5998,-7.14057 -19.2508,-14.20495 -28.5723,-21.75195 z m 54.0723,17.21875 c 26.478,8.16677 53.0465,16.03129 79.8145,23.16992 -6.6209,3.36952 -13.2713,6.66233 -19.8829,10.05859 -8.2902,4.25848 -16.6733,8.3919 -25,12.61133 -20.0996,-12.47058 -39.6115,-25.86369 -58.6699,-39.96484 7.9269,-1.91257 15.8415,-3.86491 23.7383,-5.875 z"
             transform="matrix(0.75000002,0,0,-0.75000002,-4.5630654,3752.0308)"
             inkscape:label="sfondo scritta" />
        </g>
      </g>
      <path
         d="m -2770.293,4256.3828 h 1979.99891 v 633.192 H -2770.293 Z"
         id="path15944-7"
         inkscape:label="maschera intera"
         style="display:none;opacity:1;mix-blend-mode:normal;fill:#ffffff;fill-opacity:1;stroke:none;stroke-width:0.999998;stroke-opacity:1"
         mask="none"
         sodipodi:nodetypes="ccccc" />
    </g>
    <g
       id="g20486"
       style="display:none;fill:#ffffff"
       transform="matrix(0.35277777,0,0,-0.35277777,1143.2464,1828.8647)">
      <rect
         style="display:none;mix-blend-mode:difference;fill:#ffffff;fill-opacity:1;stroke:none;stroke-width:0.662572;stroke-opacity:1"
         id="rect20482"
         width="1979.999"
         height="633.19202"
         x="-2770.0747"
         y="-4889.501"
         transform="scale(1,-1)"
         inkscape:label="rettangolo" />
      <path
         id="path20484"
         style="display:none;opacity:1;fill:#000000;fill-opacity:1;stroke:none;stroke-width:1.54037;stroke-opacity:1"
         d="M -2099.7363,-259.4082 V 135.35938 H -849.94922 V -259.4082 Z"
         transform="matrix(0.75000002,0,0,-0.75000002,-548.57469,4519.7508)"
         inkscape:label="opacità" />
    </g>
    <g
       id="g3504"
       inkscape:label="testo"
       style="display:inline"
       transform="matrix(0.35277777,0,0,-0.35277777,1143.2464,1828.8647)">
      <text
         transform="scale(1,-1)"
         style="font-style:normal;font-variant:normal;font-weight:normal;font-stretch:normal;font-size:68px;font-family:ClanOT;-inkscape-font-specification:'ClanOT, Normal';font-variant-ligatures:normal;font-variant-caps:normal;font-variant-numeric:normal;font-variant-east-asian:normal;writing-mode:lr-tb;white-space:pre;inline-size:1030.87;fill:#231f20;fill-opacity:1;fill-rule:nonzero;stroke:none"
         id="text735-8"
         x="-2089.4106"
         y="-4626.1816"
         xml:space="preserve"><tspan
           x="-2089.4106"
           y="-4626.1816"
           id="tspan9348"
           style="font-style:normal;font-variant:normal;font-weight:900;font-stretch:normal;font-size:68px;font-family:ClanOT;-inkscape-font-specification:'ClanOT, Heavy';font-variant-ligatures:normal;font-variant-caps:normal;font-variant-numeric:normal;font-variant-east-asian:normal">LO SCUDO
PER LA TUA
SICUREZZA INFORMATICA</tspan></text>
    </g>
  </g>
</svg>
